<svg xmlns="http://www.w3.org/2000/svg" width="142.922" height="98.437" viewBox="0 0 142.922 98.437">
  <g id="Group_9964" data-name="Group 9964" transform="translate(18798 -1887.647)">
    <path id="Path_45331" data-name="Path 45331" d="M5.766,104.393a3.172,3.172,0,0,0,2.511-1.226A4.454,4.454,0,0,0,9.309,100.2a4.674,4.674,0,0,0-.474-2.1,3.933,3.933,0,0,0-1.3-1.53,3.066,3.066,0,0,0-1.772-.566H2.223v8.382ZM2.223,87.628v7.539h3.1A2.741,2.741,0,0,0,7.509,94.06,4.068,4.068,0,0,0,8.416,91.4a4.444,4.444,0,0,0-.4-1.9,3.319,3.319,0,0,0-1.13-1.37,2.691,2.691,0,0,0-1.562-.5Zm5.357,7.855a5.239,5.239,0,0,1,1.828,1.041,4.972,4.972,0,0,1,1.241,1.661,4.815,4.815,0,0,1-1.116,5.575,5.284,5.284,0,0,1-3.766,1.476H.438V86.785H5.32a4.843,4.843,0,0,1,3.445,1.357A4.422,4.422,0,0,1,9.49,93.81,4.647,4.647,0,0,1,7.579,95.484Z" transform="translate(-18798 1880.41)" fill="none" stroke="#36a8e5" stroke-width="0.875"/>
    <path id="Path_45332" data-name="Path 45332" d="M20.492,86.785v.843H16.949v17.608H15.164V87.628H11.62v-.843Z" transform="translate(-18798.916 1880.41)" fill="none" stroke="#36a8e5" stroke-width="0.875"/>
    <path id="Path_45333" data-name="Path 45333" d="M27.981,104.393a3.172,3.172,0,0,0,2.511-1.226,4.454,4.454,0,0,0,1.032-2.965,4.663,4.663,0,0,0-.475-2.1,3.918,3.918,0,0,0-1.3-1.53,3.063,3.063,0,0,0-1.771-.566H24.438v8.382ZM24.438,87.628v7.539h3.1a2.744,2.744,0,0,0,2.19-1.107,4.068,4.068,0,0,0,.907-2.662,4.444,4.444,0,0,0-.4-1.9,3.326,3.326,0,0,0-1.13-1.37,2.693,2.693,0,0,0-1.562-.5Zm5.357,7.855a5.235,5.235,0,0,1,1.827,1.041,4.975,4.975,0,0,1,1.242,1.661,4.815,4.815,0,0,1-1.116,5.575,5.284,5.284,0,0,1-3.766,1.476H22.652V86.785h4.882a4.84,4.84,0,0,1,3.445,1.357A4.422,4.422,0,0,1,31.7,93.81,4.638,4.638,0,0,1,29.794,95.484Z" transform="translate(-18799.82 1880.41)" fill="none" stroke="#36a8e5" stroke-width="0.875"/>
    <path id="Path_45334" data-name="Path 45334" d="M119.714,102.768a.622.622,0,0,1,.431.448.589.589,0,0,1-.153.606,5.9,5.9,0,0,1-8.7-.092A6.721,6.721,0,0,1,109.475,99a6.985,6.985,0,0,1,.836-3.387,6.475,6.475,0,0,1,2.259-2.438,5.878,5.878,0,0,1,7.421.975.591.591,0,0,1,.153.607.627.627,0,0,1-.461.448.607.607,0,0,1-.753-.237,3.914,3.914,0,0,0-3.236-1.845,3.874,3.874,0,0,0-3.152,1.713,7.23,7.23,0,0,0,0,8.3,3.748,3.748,0,0,0,6.361-.105A.669.669,0,0,1,119.714,102.768Z" transform="translate(-18806.941 1879.952)" fill="none" stroke="#36a8e5" stroke-width="0.875"/>
    <path id="Path_45335" data-name="Path 45335" d="M52.735,86.785h1.786v18.451H52.735v-8.8H45.649v8.8H43.863V86.785h1.786v8.8h7.086Z" transform="translate(-18801.561 1880.41)" fill="none" stroke="#36a8e5" stroke-width="0.875"/>
    <path id="Path_45336" data-name="Path 45336" d="M59.448,98.973a5.988,5.988,0,0,0,.056.844l8.732-2.109a6.216,6.216,0,0,0-1.549-3.281,3.7,3.7,0,0,0-2.775-1.305,3.874,3.874,0,0,0-3.153,1.713A6.611,6.611,0,0,0,59.448,98.973Zm9.095,2.874a.723.723,0,0,1,.391,1.081,6.52,6.52,0,0,1-2.19,2.017,5.788,5.788,0,0,1-6.514-.554A6.661,6.661,0,0,1,58,101.055a7.766,7.766,0,0,1-.2-.817,7.174,7.174,0,0,1,.725-4.626,6.462,6.462,0,0,1,2.259-2.438,5.752,5.752,0,0,1,3.126-.9A5.681,5.681,0,0,1,67.719,93.7a6.711,6.711,0,0,1,2.19,3.611,5.849,5.849,0,0,1,.168.817l-1.758.422-8.676,2.083a6.073,6.073,0,0,0,1.59,3.045,3.685,3.685,0,0,0,2.679,1.173,3.524,3.524,0,0,0,2.12-.712,5.039,5.039,0,0,0,1.562-1.925.793.793,0,0,1,.4-.342A.821.821,0,0,1,68.543,101.846Z" transform="translate(-18802.695 1879.952)" fill="none" stroke="#36a8e5" stroke-width="0.875"/>
    <path id="Path_45337" data-name="Path 45337" d="M76.887,92.277a5.927,5.927,0,0,1,3.445.989,2.841,2.841,0,0,1,1.437,2.358v10.07H79.983v-.87a5.561,5.561,0,0,1-3.1.87,5.463,5.463,0,0,1-3.459-1.107A3.283,3.283,0,0,1,72,101.925a3.1,3.1,0,0,1,.7-1.964,4.663,4.663,0,0,1,1.87-1.384l.334-.105a7.564,7.564,0,0,1,1.367-.29c.13-.017.4-.036.81-.053a8.4,8.4,0,0,0,1-.092,5.072,5.072,0,0,0,.78-.2q1.005-.4,1.116-1.081a3.385,3.385,0,0,1-.167.738,1.9,1.9,0,0,1-.419.554,2.919,2.919,0,0,1-1.618.817,8.079,8.079,0,0,1-.866.119,8.3,8.3,0,0,0-.976.145,3.16,3.16,0,0,0-.977.488,2.915,2.915,0,0,0-.739.791,2.614,2.614,0,0,0-.265,2.425,2.886,2.886,0,0,0,.809,1.226,3.124,3.124,0,0,0,1.326.7,3.185,3.185,0,0,0,1.52.027,3.119,3.119,0,0,0,1.353-.686,2.641,2.641,0,0,0,.823-1.2,5.885,5.885,0,0,0,.223-1.9q0-.87-.014-2.61t-.014-2.61v-.159a2.165,2.165,0,0,0-.4-1.265,2.693,2.693,0,0,0-1.129-.909,3.729,3.729,0,0,0-1.562-.33,3.317,3.317,0,0,0-2.288.818.54.54,0,0,1-.419.145.758.758,0,0,1-.446-.171.516.516,0,0,1-.167-.5.569.569,0,0,1,.307-.422A6.313,6.313,0,0,1,76.887,92.277Z" transform="translate(-18803.869 1879.952)" fill="none" stroke="#36a8e5" stroke-width="0.875"/>
    <path id="Path_45338" data-name="Path 45338" d="M84.282,88.625h2.65V105.39H85.174V89.469Z" transform="translate(-18804.875 1880.256)" fill="none" stroke="#36a8e5" stroke-width="0.875"/>
    <path id="Path_45339" data-name="Path 45339" d="M100.811,91.742a4.969,4.969,0,0,1,2.678.764,5.479,5.479,0,0,1,1.939,2.069,5.824,5.824,0,0,1,.712,2.834v7.75h-1.786V97.41A5.619,5.619,0,0,0,103.321,94,2.94,2.94,0,0,0,98.3,94a5.619,5.619,0,0,0-1.033,3.413v7.75H94.2a3.5,3.5,0,0,1-2.512-.989,3.154,3.154,0,0,1-1.032-2.358V93.4H88.871v-.818h1.785V88.368h1.758v4.217H94.2V93.4H92.414v8.409a3.244,3.244,0,0,0,.237,1.238,2.289,2.289,0,0,0,.655.923,1.387,1.387,0,0,0,.893.343,1.816,1.816,0,0,0,1.282-.765V85.864h1.786v7.328A4.944,4.944,0,0,1,100.811,91.742Z" transform="translate(-18805.252 1880.487)" fill="none" stroke="#36a8e5" stroke-width="0.875"/>
    <path id="Path_45340" data-name="Path 45340" d="M127.029,92.277a5.927,5.927,0,0,1,3.445.989,2.839,2.839,0,0,1,1.437,2.358v10.07h-1.786v-.87a5.559,5.559,0,0,1-3.1.87,5.463,5.463,0,0,1-3.459-1.107,3.285,3.285,0,0,1-1.423-2.662,3.1,3.1,0,0,1,.7-1.964,4.654,4.654,0,0,1,1.869-1.384l.334-.105a7.579,7.579,0,0,1,1.367-.29c.13-.017.4-.036.81-.053a8.366,8.366,0,0,0,1-.092,5.11,5.11,0,0,0,.781-.2q1-.4,1.115-1.081a3.332,3.332,0,0,1-.167.738,1.9,1.9,0,0,1-.419.554,2.916,2.916,0,0,1-1.618.817,8.05,8.05,0,0,1-.865.119,8.321,8.321,0,0,0-.977.145,3.159,3.159,0,0,0-.977.488,2.723,2.723,0,0,0-1,3.216,2.879,2.879,0,0,0,.81,1.226,3.115,3.115,0,0,0,1.325.7,3.189,3.189,0,0,0,1.521.027,3.121,3.121,0,0,0,1.352-.686,2.65,2.65,0,0,0,.823-1.2,5.912,5.912,0,0,0,.223-1.9q0-.87-.014-2.61t-.015-2.61v-.159a2.17,2.17,0,0,0-.4-1.265,2.7,2.7,0,0,0-1.13-.909,3.729,3.729,0,0,0-1.562-.33,3.318,3.318,0,0,0-2.288.818.54.54,0,0,1-.419.145.758.758,0,0,1-.446-.171.516.516,0,0,1-.167-.5.573.573,0,0,1,.307-.422A6.318,6.318,0,0,1,127.029,92.277Z" transform="translate(-18807.98 1879.952)" fill="none" stroke="#36a8e5" stroke-width="0.875"/>
    <path id="Path_45341" data-name="Path 45341" d="M141.227,92.489a.462.462,0,0,1,.349.343.408.408,0,0,1-.153.448.484.484,0,0,1-.586.079,2.212,2.212,0,0,0-1-.237,2.319,2.319,0,0,0-1.884.975,3.72,3.72,0,0,0-.767,2.372V105.7H135.4V92.278h1.786v.843a4.425,4.425,0,0,1,2.65-.843A4.626,4.626,0,0,1,141.227,92.489Z" transform="translate(-18809.064 1879.952)" fill="none" stroke="#36a8e5" stroke-width="0.875"/>
    <path id="Path_45342" data-name="Path 45342" d="M143.384,98.973a5.988,5.988,0,0,0,.056.844l8.731-2.109a6.216,6.216,0,0,0-1.548-3.281,3.7,3.7,0,0,0-2.776-1.305,3.872,3.872,0,0,0-3.152,1.713A6.611,6.611,0,0,0,143.384,98.973Zm9.095,2.874a.722.722,0,0,1,.39,1.081,6.5,6.5,0,0,1-2.19,2.017,5.652,5.652,0,0,1-2.831.752,5.711,5.711,0,0,1-3.683-1.305,6.659,6.659,0,0,1-2.231-3.335,7.542,7.542,0,0,1-.2-.817,7.174,7.174,0,0,1,.725-4.626,6.462,6.462,0,0,1,2.259-2.438,5.749,5.749,0,0,1,3.125-.9,5.682,5.682,0,0,1,3.808,1.423,6.711,6.711,0,0,1,2.19,3.611,5.848,5.848,0,0,1,.167.817l-1.758.422-8.676,2.083a6.074,6.074,0,0,0,1.591,3.045,3.685,3.685,0,0,0,2.678,1.173,3.526,3.526,0,0,0,2.121-.712,5.039,5.039,0,0,0,1.562-1.925.793.793,0,0,1,.4-.342A.821.821,0,0,1,152.479,101.846Z" transform="translate(-18809.576 1879.952)" fill="none" stroke="#36a8e5" stroke-width="0.875"/>
    <path id="Path_45343" data-name="Path 45343" d="M5.766,104.393a3.172,3.172,0,0,0,2.511-1.226A4.454,4.454,0,0,0,9.309,100.2a4.663,4.663,0,0,0-.475-2.1,3.923,3.923,0,0,0-1.3-1.53,3.068,3.068,0,0,0-1.772-.566H2.223v8.382ZM2.223,87.628v7.539h3.1a2.743,2.743,0,0,0,2.19-1.107A4.068,4.068,0,0,0,8.416,91.4a4.444,4.444,0,0,0-.4-1.9,3.326,3.326,0,0,0-1.13-1.37,2.693,2.693,0,0,0-1.562-.5Zm5.357,7.855a5.235,5.235,0,0,1,1.827,1.041,4.963,4.963,0,0,1,1.242,1.661,4.815,4.815,0,0,1-1.116,5.575,5.284,5.284,0,0,1-3.766,1.476H.438V86.785H5.319a4.844,4.844,0,0,1,3.446,1.357A4.423,4.423,0,0,1,9.49,93.81a4.638,4.638,0,0,1-1.91,1.674" transform="translate(-18798 1880.41)" fill="#36a8e5"/>
    <path id="Path_45344" data-name="Path 45344" d="M20.492,86.785v.843H16.948v17.608H15.164V87.628H11.62v-.843Z" transform="translate(-18798.916 1880.41)" fill="#36a8e5"/>
    <path id="Path_45345" data-name="Path 45345" d="M27.98,104.393a3.172,3.172,0,0,0,2.511-1.226,4.454,4.454,0,0,0,1.032-2.965,4.663,4.663,0,0,0-.475-2.1,3.918,3.918,0,0,0-1.3-1.53,3.063,3.063,0,0,0-1.771-.566H24.437v8.382ZM24.437,87.628v7.539h3.1a2.743,2.743,0,0,0,2.19-1.107A4.068,4.068,0,0,0,30.63,91.4a4.444,4.444,0,0,0-.4-1.9,3.326,3.326,0,0,0-1.13-1.37,2.693,2.693,0,0,0-1.562-.5Zm5.357,7.855a5.235,5.235,0,0,1,1.827,1.041,4.963,4.963,0,0,1,1.242,1.661,4.815,4.815,0,0,1-1.116,5.575,5.284,5.284,0,0,1-3.766,1.476H22.651V86.785h4.882a4.84,4.84,0,0,1,3.445,1.357A4.422,4.422,0,0,1,31.7,93.81a4.638,4.638,0,0,1-1.91,1.674" transform="translate(-18799.82 1880.41)" fill="#36a8e5"/>
    <path id="Path_45346" data-name="Path 45346" d="M119.713,102.768a.621.621,0,0,1,.432.448.591.591,0,0,1-.153.606,5.9,5.9,0,0,1-8.7-.092A6.729,6.729,0,0,1,109.474,99a6.986,6.986,0,0,1,.837-3.387,6.468,6.468,0,0,1,2.259-2.438,5.878,5.878,0,0,1,7.421.975.593.593,0,0,1,.153.607.627.627,0,0,1-.461.448.606.606,0,0,1-.753-.237,3.916,3.916,0,0,0-3.236-1.845,3.872,3.872,0,0,0-3.152,1.713,7.23,7.23,0,0,0,0,8.3,3.748,3.748,0,0,0,6.361-.105.667.667,0,0,1,.809-.264" transform="translate(-18806.941 1879.952)" fill="#36a8e5"/>
    <path id="Path_45347" data-name="Path 45347" d="M52.735,86.785H54.52v18.451H52.735v-8.8H45.649v8.8H43.863V86.785h1.786v8.8h7.086Z" transform="translate(-18801.561 1880.41)" fill="#36a8e5"/>
    <path id="Path_45348" data-name="Path 45348" d="M59.448,98.973a5.988,5.988,0,0,0,.056.844l8.732-2.109a6.216,6.216,0,0,0-1.549-3.281,3.7,3.7,0,0,0-2.776-1.305,3.874,3.874,0,0,0-3.152,1.713,6.611,6.611,0,0,0-1.311,4.138m9.095,2.874a.722.722,0,0,1,.39,1.081,6.508,6.508,0,0,1-2.189,2.017,5.789,5.789,0,0,1-6.514-.554A6.655,6.655,0,0,1,58,101.055a7.766,7.766,0,0,1-.2-.817,7.174,7.174,0,0,1,.725-4.626,6.457,6.457,0,0,1,2.26-2.438,5.743,5.743,0,0,1,3.124-.9A5.682,5.682,0,0,1,67.719,93.7a6.711,6.711,0,0,1,2.19,3.611,5.849,5.849,0,0,1,.168.817l-1.758.422-8.676,2.083a6.073,6.073,0,0,0,1.59,3.045,3.685,3.685,0,0,0,2.678,1.173,3.524,3.524,0,0,0,2.121-.712,5.029,5.029,0,0,0,1.562-1.925.8.8,0,0,1,.406-.342.819.819,0,0,1,.543-.027" transform="translate(-18802.695 1879.952)" fill="#36a8e5"/>
    <path id="Path_45349" data-name="Path 45349" d="M76.886,92.277a5.927,5.927,0,0,1,3.445.989,2.841,2.841,0,0,1,1.437,2.358v10.07H79.982v-.87a5.561,5.561,0,0,1-3.1.87,5.463,5.463,0,0,1-3.459-1.107A3.283,3.283,0,0,1,72,101.925a3.1,3.1,0,0,1,.7-1.964,4.663,4.663,0,0,1,1.87-1.384l.334-.105a7.564,7.564,0,0,1,1.367-.29c.13-.017.4-.036.81-.053a8.4,8.4,0,0,0,1-.092,5.072,5.072,0,0,0,.78-.2q1.005-.4,1.116-1.081a3.385,3.385,0,0,1-.167.738,1.9,1.9,0,0,1-.419.554,2.919,2.919,0,0,1-1.618.817,8.079,8.079,0,0,1-.866.119,8.3,8.3,0,0,0-.976.145,3.159,3.159,0,0,0-.977.488,2.929,2.929,0,0,0-.739.791,2.614,2.614,0,0,0-.265,2.425,2.886,2.886,0,0,0,.809,1.226,3.124,3.124,0,0,0,1.326.7,3.185,3.185,0,0,0,1.52.027,3.119,3.119,0,0,0,1.353-.686,2.648,2.648,0,0,0,.823-1.2,5.88,5.88,0,0,0,.224-1.9q0-.87-.015-2.61t-.014-2.61v-.159a2.165,2.165,0,0,0-.4-1.265,2.687,2.687,0,0,0-1.129-.909,3.729,3.729,0,0,0-1.562-.33,3.318,3.318,0,0,0-2.288.818.54.54,0,0,1-.419.145.758.758,0,0,1-.446-.171.518.518,0,0,1-.168-.5.574.574,0,0,1,.308-.422,6.313,6.313,0,0,1,3.013-.712" transform="translate(-18803.869 1879.952)" fill="#36a8e5"/>
    <path id="Path_45350" data-name="Path 45350" d="M84.282,88.625h2.65V105.39H85.174V89.469Z" transform="translate(-18804.875 1880.256)" fill="#36a8e5"/>
    <path id="Path_45351" data-name="Path 45351" d="M100.811,91.742a4.972,4.972,0,0,1,2.679.764,5.493,5.493,0,0,1,1.939,2.069,5.833,5.833,0,0,1,.711,2.834v7.75h-1.786V97.41A5.619,5.619,0,0,0,103.321,94,2.94,2.94,0,0,0,98.3,94a5.619,5.619,0,0,0-1.033,3.413v7.75H94.2a3.5,3.5,0,0,1-2.511-.989,3.152,3.152,0,0,1-1.033-2.358V93.4H88.871v-.818h1.785V88.368h1.758v4.217H94.2V93.4H92.414v8.409a3.244,3.244,0,0,0,.237,1.238,2.289,2.289,0,0,0,.655.923,1.387,1.387,0,0,0,.893.343,1.816,1.816,0,0,0,1.282-.765V85.864h1.786v7.328a4.944,4.944,0,0,1,3.544-1.45" transform="translate(-18805.252 1880.487)" fill="#36a8e5"/>
    <path id="Path_45352" data-name="Path 45352" d="M127.029,92.277a5.927,5.927,0,0,1,3.445.989,2.841,2.841,0,0,1,1.437,2.358v10.07h-1.786v-.87a5.561,5.561,0,0,1-3.1.87,5.463,5.463,0,0,1-3.459-1.107,3.285,3.285,0,0,1-1.423-2.662,3.09,3.09,0,0,1,.7-1.964,4.654,4.654,0,0,1,1.869-1.384l.334-.105a7.579,7.579,0,0,1,1.367-.29c.13-.017.4-.036.81-.053a8.4,8.4,0,0,0,1-.092,5.11,5.11,0,0,0,.781-.2q1-.4,1.115-1.081a3.332,3.332,0,0,1-.167.738,1.913,1.913,0,0,1-.419.554,2.916,2.916,0,0,1-1.618.817,8.05,8.05,0,0,1-.865.119,8.321,8.321,0,0,0-.977.145,3.159,3.159,0,0,0-.977.488,2.929,2.929,0,0,0-.739.791,2.613,2.613,0,0,0-.265,2.425,2.879,2.879,0,0,0,.81,1.226,3.115,3.115,0,0,0,1.325.7,3.185,3.185,0,0,0,1.52.027,3.119,3.119,0,0,0,1.353-.686,2.657,2.657,0,0,0,.823-1.2,5.938,5.938,0,0,0,.223-1.9q0-.87-.014-2.61t-.015-2.61v-.159a2.17,2.17,0,0,0-.4-1.265,2.7,2.7,0,0,0-1.13-.909,3.729,3.729,0,0,0-1.562-.33,3.318,3.318,0,0,0-2.288.818.539.539,0,0,1-.419.145.758.758,0,0,1-.446-.171.516.516,0,0,1-.167-.5.571.571,0,0,1,.307-.422,6.318,6.318,0,0,1,3.013-.712" transform="translate(-18807.98 1879.952)" fill="#36a8e5"/>
    <path id="Path_45353" data-name="Path 45353" d="M141.227,92.489a.463.463,0,0,1,.349.343.408.408,0,0,1-.153.448.484.484,0,0,1-.586.079,2.212,2.212,0,0,0-1-.237,2.319,2.319,0,0,0-1.884.975,3.72,3.72,0,0,0-.767,2.372V105.7H135.4V92.278h1.786v.843a4.427,4.427,0,0,1,2.65-.843,4.626,4.626,0,0,1,1.394.211" transform="translate(-18809.064 1879.952)" fill="#36a8e5"/>
    <path id="Path_45354" data-name="Path 45354" d="M143.384,98.973a5.988,5.988,0,0,0,.056.844l8.732-2.109a6.224,6.224,0,0,0-1.549-3.281,3.7,3.7,0,0,0-2.776-1.305,3.874,3.874,0,0,0-3.152,1.713,6.611,6.611,0,0,0-1.311,4.138m9.095,2.874a.72.72,0,0,1,.39,1.081,6.508,6.508,0,0,1-2.189,2.017,5.788,5.788,0,0,1-6.514-.554,6.655,6.655,0,0,1-2.232-3.335,7.763,7.763,0,0,1-.2-.817,7.174,7.174,0,0,1,.725-4.626,6.462,6.462,0,0,1,2.259-2.438,5.749,5.749,0,0,1,3.125-.9,5.682,5.682,0,0,1,3.808,1.423,6.711,6.711,0,0,1,2.19,3.611,5.719,5.719,0,0,1,.167.817l-1.757.422-8.676,2.083a6.066,6.066,0,0,0,1.59,3.045,3.685,3.685,0,0,0,2.678,1.173,3.524,3.524,0,0,0,2.121-.712,5.039,5.039,0,0,0,1.562-1.925.793.793,0,0,1,.4-.342.821.821,0,0,1,.544-.027" transform="translate(-18809.576 1879.952)" fill="#36a8e5"/>
    <path id="Path_45355" data-name="Path 45355" d="M36.128,48.114a2.288,2.288,0,0,0,.569.142,2.239,2.239,0,0,1,.568.141q2.932.621,5.8,1.442t5.744,1.894l3.829,1.583a22.142,22.142,0,0,1,3.65,1.922,13.373,13.373,0,0,1,1.675,1.244,8.575,8.575,0,0,1,1.376,1.526q.359.452.3.707t-.6.537a1.4,1.4,0,0,1-.478.226,12.75,12.75,0,0,1-2.932.338,23.205,23.205,0,0,1-5.086-.961q-1.018-.283-2-.65t-2-.82a25.524,25.524,0,0,1-4.368-2.431,22.683,22.683,0,0,1-3.71-3.222,13.084,13.084,0,0,1-1.286-1.668A14.161,14.161,0,0,1,36.128,48.114ZM61.378,45.4a29.468,29.468,0,0,0-.18-3.223,63.438,63.438,0,0,0-1.106-7.095,38.246,38.246,0,0,0-2.184-6.869,27.586,27.586,0,0,0-1.8-3.477A19.183,19.183,0,0,0,53.719,21.6a10.293,10.293,0,0,0-4.069-2.714A3.181,3.181,0,0,0,47.138,19a3.323,3.323,0,0,0-1.556,1.7,7.268,7.268,0,0,0-.449,1.357,10.728,10.728,0,0,0-.209,1.413,15.773,15.773,0,0,0,.12,3.364,23.862,23.862,0,0,0,.718,3.307A40.269,40.269,0,0,0,47.8,35.479q1.2,2.571,2.693,5.116a2,2,0,0,0,.269.4,1.959,1.959,0,0,1,.269.4,2.878,2.878,0,0,0,.539.735.736.736,0,0,1-.449-.114,3.141,3.141,0,0,1-.269-.226q-1.018-.791-2.094-1.469a21.492,21.492,0,0,0-2.274-1.244,23.536,23.536,0,0,0-2.872-1.074,10.492,10.492,0,0,0-3.051-.452,6.692,6.692,0,0,0-3.77.848,5.105,5.105,0,0,0-2.334,2.883,11.6,11.6,0,0,0-.538,1.922,6.207,6.207,0,0,0-.06,1.923,2.825,2.825,0,0,1-.061.678l-.837-.114-.837-.113q-1.736-.283-3.411-.537t-3.41-.368a5.259,5.259,0,0,0-.9-.056q-.24,0-.359.339a.837.837,0,0,0,.778.961q1.018.225,2.065.4t2.123.339q1.2.282,2.453.509t2.454.509a.377.377,0,0,1,.419.339,5.2,5.2,0,0,1,.209.594,5.185,5.185,0,0,0,.209.593,14.248,14.248,0,0,0,1.825,3.138,23.3,23.3,0,0,0,2.483,2.742,20.536,20.536,0,0,0,3.71,2.8,38.956,38.956,0,0,0,4.188,2.12q.839.338,1.675.65t1.675.594a17.486,17.486,0,0,0,2.184.536q1.107.2,2.244.312a6.421,6.421,0,0,0,1.585.027q.749-.084,1.526-.2a4.549,4.549,0,0,0,1.437-.453,2.706,2.706,0,0,0,1.406-1.244,2.668,2.668,0,0,0,.029-1.978,4.326,4.326,0,0,0-.568-1.272,12.056,12.056,0,0,0-.868-1.16,10.78,10.78,0,0,0-1.257-1.215,16.806,16.806,0,0,0-1.436-1.045,32.45,32.45,0,0,0-6.1-3.11q-1.018-.452-2.095-.819t-2.154-.764Q43.668,48,40.855,47.323q-1.2-.283-2.423-.537t-2.483-.537a.6.6,0,0,1-.479-.509,5.614,5.614,0,0,1,.9-3.618,3.293,3.293,0,0,1,1.257-1.215,6.942,6.942,0,0,1,1.735-.651,6.458,6.458,0,0,1,1.7-.113q.869.056,1.706.17a16.61,16.61,0,0,1,4.518,1.5,31.55,31.55,0,0,1,3.979,2.4q1.975,1.47,3.769,3.052a2.137,2.137,0,0,1,.209.226,2.342,2.342,0,0,0,.209.226.461.461,0,0,0,.479.17.266.266,0,0,0,.179-.4q-.059-.452-.149-.9a2.559,2.559,0,0,0-.389-.9q-.9-1.47-1.765-2.94T51.984,39.8a25.617,25.617,0,0,1-1.764-3.223q-.749-1.639-1.466-3.336-.54-1.413-1.017-2.854a25.255,25.255,0,0,1-.778-2.912,14.707,14.707,0,0,1-.3-2.2,6.611,6.611,0,0,1,.24-2.149,2.5,2.5,0,0,1,.718-1.3,1.709,1.709,0,0,1,1.616-.51,3.441,3.441,0,0,1,1.047.283,9.459,9.459,0,0,1,.987.509,7.3,7.3,0,0,1,1.885,1.555q.808.932,1.526,1.894a15.6,15.6,0,0,1,1.675,2.94q.658,1.528,1.2,3.11.658,2.091,1.106,4.183t.808,4.239a24.746,24.746,0,0,1,.419,2.94l.24,2.94q.12,1.188.15,2.374t.09,2.375q.059.621.06,1.159v1.16a1.657,1.657,0,0,0,.03.282.441.441,0,0,1-.09.339.755.755,0,0,0,.06.339q.12.227.209.424a.49.49,0,0,0,.389.254.449.449,0,0,0,.419-.2,1.631,1.631,0,0,0,.18-.423,11.193,11.193,0,0,0,.628-2.063q.209-1.046.389-2.12.3-1.526.449-3.053t.269-3.052q.12-1.753.179-3.505t0-3.505q-.118-2.489-.269-4.919a44.968,44.968,0,0,0-.568-4.863q-.24-1.3-.449-2.629t-.509-2.628q-.179-.623-.389-1.188A4.639,4.639,0,0,0,60.78,19.4a2.42,2.42,0,0,0-.478-.566q-.479-.34-.658.17a2.306,2.306,0,0,0,0,1.639,6.371,6.371,0,0,1,.6,1.611q.179.819.359,1.668.6,3.052.9,6.218.12.961.15,1.894t.15,1.894q.12,1.528.09,3.025t-.03,2.968a19.745,19.745,0,0,1-.06,2.657q-.12,1.357-.239,2.657C61.558,45.306,61.5,45.363,61.378,45.4Z" transform="translate(-18799.936 1886.089)" fill="none" stroke="#30bba9" stroke-width="1"/>
    <path id="Path_45356" data-name="Path 45356" d="M36.128,48.114a2.278,2.278,0,0,0,.569.142,2.248,2.248,0,0,1,.568.141q2.932.621,5.8,1.442t5.744,1.894l3.829,1.583a22.142,22.142,0,0,1,3.65,1.922,13.373,13.373,0,0,1,1.675,1.244,8.575,8.575,0,0,1,1.376,1.526q.358.452.3.707t-.6.537a1.4,1.4,0,0,1-.479.226,12.736,12.736,0,0,1-2.931.338,23.205,23.205,0,0,1-5.086-.961q-1.018-.283-2-.65t-2-.82a25.489,25.489,0,0,1-4.368-2.431,22.683,22.683,0,0,1-3.71-3.222,13.084,13.084,0,0,1-1.286-1.668,14.161,14.161,0,0,1-1.047-1.951M61.378,45.4a29.7,29.7,0,0,0-.18-3.223,63.228,63.228,0,0,0-1.107-7.095,38.242,38.242,0,0,0-2.183-6.869,27.586,27.586,0,0,0-1.8-3.477A19.235,19.235,0,0,0,53.719,21.6a10.293,10.293,0,0,0-4.069-2.714A3.181,3.181,0,0,0,47.138,19a3.323,3.323,0,0,0-1.556,1.7,7.268,7.268,0,0,0-.449,1.357,10.728,10.728,0,0,0-.209,1.413,15.773,15.773,0,0,0,.12,3.364,23.729,23.729,0,0,0,.718,3.307A40.393,40.393,0,0,0,47.8,35.479q1.2,2.571,2.693,5.116a2,2,0,0,0,.269.4,2,2,0,0,1,.269.4,2.878,2.878,0,0,0,.539.735.736.736,0,0,1-.449-.114,3.005,3.005,0,0,1-.269-.226q-1.018-.791-2.094-1.469a21.492,21.492,0,0,0-2.274-1.244,23.536,23.536,0,0,0-2.872-1.074,10.494,10.494,0,0,0-3.052-.452,6.691,6.691,0,0,0-3.769.848,5.105,5.105,0,0,0-2.334,2.883,11.6,11.6,0,0,0-.538,1.922,6.207,6.207,0,0,0-.06,1.923,2.825,2.825,0,0,1-.061.678l-.837-.114-.837-.113q-1.736-.283-3.411-.537t-3.41-.368a5.259,5.259,0,0,0-.9-.056q-.24,0-.359.339a.837.837,0,0,0,.778.961q1.018.225,2.065.4t2.123.339q1.2.282,2.453.509t2.454.509a.378.378,0,0,1,.419.339,5.2,5.2,0,0,1,.209.594,5.185,5.185,0,0,0,.209.593,14.248,14.248,0,0,0,1.825,3.138,23.3,23.3,0,0,0,2.483,2.742,20.536,20.536,0,0,0,3.71,2.8,38.871,38.871,0,0,0,4.188,2.12q.839.338,1.675.65t1.675.594a17.486,17.486,0,0,0,2.184.536q1.107.2,2.244.312a6.42,6.42,0,0,0,1.585.027q.748-.084,1.526-.2a4.536,4.536,0,0,0,1.436-.453,2.7,2.7,0,0,0,1.407-1.244,2.668,2.668,0,0,0,.029-1.978,4.328,4.328,0,0,0-.569-1.272,11.759,11.759,0,0,0-.868-1.16,10.7,10.7,0,0,0-1.256-1.215,16.806,16.806,0,0,0-1.436-1.045,32.45,32.45,0,0,0-6.1-3.11q-1.018-.452-2.094-.819t-2.155-.764Q43.668,48,40.855,47.323q-1.2-.283-2.423-.537t-2.483-.537a.6.6,0,0,1-.479-.509,5.614,5.614,0,0,1,.9-3.618,3.293,3.293,0,0,1,1.257-1.215,6.942,6.942,0,0,1,1.735-.651,6.458,6.458,0,0,1,1.7-.113q.869.056,1.706.17a16.61,16.61,0,0,1,4.518,1.5,31.55,31.55,0,0,1,3.979,2.4q1.975,1.47,3.769,3.052a2.137,2.137,0,0,1,.209.226,2.341,2.341,0,0,0,.209.226.461.461,0,0,0,.479.17.266.266,0,0,0,.179-.4q-.059-.452-.15-.9a2.539,2.539,0,0,0-.388-.9q-.9-1.47-1.765-2.94T51.984,39.8a25.742,25.742,0,0,1-1.765-3.223q-.748-1.639-1.465-3.336-.538-1.413-1.017-2.854a25.255,25.255,0,0,1-.778-2.912,14.59,14.59,0,0,1-.3-2.2,6.611,6.611,0,0,1,.24-2.149,2.5,2.5,0,0,1,.718-1.3,1.709,1.709,0,0,1,1.616-.51,3.441,3.441,0,0,1,1.047.283,9.552,9.552,0,0,1,.987.509,7.3,7.3,0,0,1,1.885,1.555q.807.932,1.526,1.894a15.6,15.6,0,0,1,1.675,2.94q.658,1.528,1.2,3.11.658,2.091,1.107,4.183t.808,4.239a24.937,24.937,0,0,1,.419,2.94l.24,2.94q.12,1.188.15,2.374t.09,2.375q.059.621.06,1.159v1.16a1.741,1.741,0,0,0,.029.282.44.44,0,0,1-.089.339.743.743,0,0,0,.06.339q.12.227.209.424a.488.488,0,0,0,.389.254.449.449,0,0,0,.419-.2,1.6,1.6,0,0,0,.179-.423,11.127,11.127,0,0,0,.629-2.063q.209-1.046.388-2.12.3-1.526.449-3.053t.27-3.052q.118-1.753.179-3.505t0-3.505q-.118-2.489-.269-4.919a44.968,44.968,0,0,0-.568-4.863q-.24-1.3-.449-2.629t-.509-2.628q-.18-.623-.389-1.188A4.639,4.639,0,0,0,60.78,19.4a2.429,2.429,0,0,0-.479-.566q-.478-.34-.657.17a2.3,2.3,0,0,0,0,1.639,6.371,6.371,0,0,1,.6,1.611q.179.819.358,1.668.6,3.052.9,6.218.12.961.15,1.894t.15,1.894q.12,1.528.09,3.025t-.03,2.968a19.745,19.745,0,0,1-.06,2.657q-.12,1.357-.239,2.657c0,.075-.061.132-.18.17" transform="translate(-18799.936 1886.089)" fill="#30bba9"/>
    <path id="Path_45357" data-name="Path 45357" d="M69.108,18.968a.567.567,0,0,1,.214-.067h.007a2.8,2.8,0,0,1,.629-.067c.621,0,1.125.175,1.125.39s-.5.389-1.125.389-1.125-.174-1.125-.389c0-.1.1-.186.274-.255M76.217,39.9V32.5c.506.136,1.2,1.109,1.481,1.58,1.476,2.467.892,4.226-1.481,5.813m-4.6-3.059a4.83,4.83,0,0,1,2.043-4.207c0,2.534.128,4.7.128,7.139a3.755,3.755,0,0,1-2.17-2.931m4.34,15.551,0-4.338c0-.7.119-.847.132-1.4,1.92,1.284,2.483,3.989-.129,5.736m-3.7-2.423V49.2a2.926,2.926,0,0,1,1.66-2.422v5.481c-.484-.324-1.66-1.543-1.66-2.3m3.486,11.543L75.82,58.8a2.047,2.047,0,0,1-.076,2.715M63.831,0H65.27A5.418,5.418,0,0,1,69.58,2.421c.839,1.449.047,3.678-1.227,4.642-1.93,1.46.7,2.933,1.353,3.9a10.693,10.693,0,0,1,2.558-.251c1.52.034,1.15-.106,1.145-1.661,0-.878.057-1.946-.006-2.8-.11-1.494-.3-1.028-.84-1.966-1.839-3.174,3.3-5.91,4.9-2.341A2.76,2.76,0,0,1,77.3,4.27c-.564.988-.852.461-.834,1.972.05,4.152-.593,4.506,1.149,4.469,2.43-.05,2.435.686,4.038-1.329.49-.616.839-1.141.24-1.921-.409-.533-.924-.789-1.288-1.393a3.556,3.556,0,0,1,.074-4.159A5.294,5.294,0,0,1,84.418.032C84.513.02,84.607.009,84.7,0h1.47a8.2,8.2,0,0,1,2.9.932,36.828,36.828,0,0,1,5.2,3.22L97.639,6.4a66.6,66.6,0,0,0,7.218,4.011,9.652,9.652,0,0,0,1.87.808v.255c-.956.223-2.326,1.28-5.089.237a40.212,40.212,0,0,1-7.78-4.469,19.146,19.146,0,0,1-1.775-1.286c-.49-.414-1.035-1.35-1.569-1.493a3.331,3.331,0,0,0-.255.765,2.072,2.072,0,0,0,.637.638l1.949,1.624a32.575,32.575,0,0,0,2.7,2.018c1.526,1.108,4.5,2.822,6.457,2.985-.275,1.028-2.255,1.362-3.432,1.136-2.569-.495-7.35-4.556-9.08-5.469a5.474,5.474,0,0,1-.383.637c.666.445,1.392,1.04,2.043,1.53,1.372,1.031,2.853,1.94,4.316,2.829.629.382,1.861.6,2.068,1.378-3.006.7-3.457.325-5.995-1.281-.769-.487-1.577-1.211-2.3-1.778-1.033-.8-1.435-1.6-2.3-1.147.084.113,1.172,1.128,1.373,1.305a22.9,22.9,0,0,0,2.941,2.417c.552.344,1.366.478,1.43,1.248a4.773,4.773,0,0,1-2.889-.048c-1.6-.464-2.782-1.9-3.79-3.1-.53-.63-1-1.675-1.747-1.314.3.406.55.232.452.943a3.913,3.913,0,0,1-1.674,2.808c-2.024,1.394-2.562,1.01-4.811.965a1.953,1.953,0,0,0-.991-.1c-.509,0-.73-.122-.836.256-.067.236-.093,1.912-.1,2.271l.048,8.922a13.082,13.082,0,0,0,4.561-2.073c1.813-1.349,2-2.434,1.822-4.555-.828.221-1.047,1.418-3.187.888a3.033,3.033,0,0,1-1.885-1.321c-.393-.732-.039-.7-.035-.715.118-.327-.023-.213.461-.432,2.105-.954,6.518-.1,7.007,3.947a4.2,4.2,0,0,1-.595,2.456c-1.375,2.277-2.583,2.9-5.086,4.226.494.674,1.5.8,2.836,2.777,1,1.49,1.111,2.106,1.123,4.49a6.33,6.33,0,0,1-2.077,4.938,12.478,12.478,0,0,1-2.137,1.945c.306.456.694.707,1.078,1.218,1.938,2.577,2.213,6.385.559,8.83a8.344,8.344,0,0,1-2.4,2.189,7.208,7.208,0,0,1,1.244,1.945,5.347,5.347,0,0,1,.218,2.83,5.424,5.424,0,0,1-2.866,3.512v.255A5.914,5.914,0,0,1,78.8,65.74a4.148,4.148,0,0,1-.674,6.408c.24-1.025.778-3.063.106-4.184-.462-.772-1.6-2.1-2.659-2.189,0,2.2-.139,3.97-.126,6.12.007,1.356-.385,4.578-.385,5.734h-.255c0-.91-.233-2.033-.26-2.928-.028-.941-.127-2.046-.128-2.931,0-2.05-.123-3.842-.123-6a4.989,4.989,0,0,0-2.516,2.332c-.763,1.61.058,2.6.09,4.041a4.834,4.834,0,0,1-1.76-4.433,5.558,5.558,0,0,1,2.111-2.864,4.652,4.652,0,0,0,.8-.733c-.317-.432-2.279-1.35-2.8-3.7-.595-2.669,1.249-4.147,1.4-4.711a18.99,18.99,0,0,1-2.48-2.368,11.644,11.644,0,0,1-.884-1.539c-.953-1.844-.387-4.225.424-5.784.6-1.149,1.551-1.617,2.173-2.546-.8-1.19-4.211-2.785-4.217-7.009a7.356,7.356,0,0,1,3.306-6.522c.319-.247.556-.307.784-.619a18.7,18.7,0,0,1-2.061-1.127c-2.939-2.051-5.419-5.085-2.267-8.421,1.354-1.433,5.2-2.082,6.244-.522a3.04,3.04,0,0,1-4,1.83c-.691-.3-.689-.666-1.231-.81a4.59,4.59,0,0,0,.215,2.845,6.027,6.027,0,0,0,1.5,1.693,14.827,14.827,0,0,0,4.417,2.09l.039-8.158c-.037-.9-.019-1.8-.044-2.687-.018-.659.021-.625-.621-.643-.375-.01-.993-.071-1.236.142a6.984,6.984,0,0,1-2.662.057,4.888,4.888,0,0,1-3.5-2.62c-.644-1.61-.309-1.577.114-2.153-.585-.28-.767.054-1.06.471a12.544,12.544,0,0,1-2.439,2.664,7.2,7.2,0,0,1-2.141,1.3,4.131,4.131,0,0,1-2.785.023c.043-.523.245-.577.609-.794,2.642-1.569,1.981-1.547,3.805-2.957.4-.307,1.219-.929,1.331-1.348-.684-.057-.257-.243-.738.027-1.146.641-4.046,3.711-6.489,4.485a5.812,5.812,0,0,1-3.369-.177c.146-.545.46-.554.98-.807.485-.236.671-.4,1.148-.639,2.919-1.478,4.137-2.845,6.3-4.291a5.608,5.608,0,0,1-.384-.637,11.9,11.9,0,0,0-1.44.984l-3.64,2.484a11.68,11.68,0,0,1-3.992,2.007c-1.2.256-3.164-.114-3.439-1.141,4.33-1.007,7.234-3.477,10.486-6.1.453-.365.754-.7,1.259-1.039a4.727,4.727,0,0,0-.255-.893c-.538.144-.484.336-.8.728C56.991,7.1,52.519,9.4,50.325,10.733a8.09,8.09,0,0,1-4.753,1.383,9.872,9.872,0,0,1-2.421-.643v-.255A10.768,10.768,0,0,0,45.579,10.2c2.183-1.074,4.315-2.322,6.356-3.6C55,4.69,59.113,1.336,62.344.3A7.034,7.034,0,0,1,63.831,0M80.354,18.834c.621,0,1.125.175,1.125.39s-.5.389-1.125.389-1.125-.174-1.125-.389.5-.39,1.125-.39M74.071,59.217l.05,1.788c-.107-.114-.315.09-.33-.841a2.536,2.536,0,0,1,.032-.48Z" transform="translate(-18801.502 1887.647)" fill="#36a8e5" fill-rule="evenodd"/>
    <path id="Path_45358" data-name="Path 45358" d="M115.9,48.114a2.288,2.288,0,0,1-.569.142,2.229,2.229,0,0,0-.568.141q-2.932.621-5.8,1.442t-5.744,1.894l-3.83,1.583a22.17,22.17,0,0,0-3.649,1.922,13.373,13.373,0,0,0-1.675,1.244,8.575,8.575,0,0,0-1.376,1.526q-.359.452-.3.707c.04.17.239.348.6.537a1.393,1.393,0,0,0,.478.226,12.75,12.75,0,0,0,2.932.338,23.205,23.205,0,0,0,5.086-.961q1.018-.283,2-.65t2-.82a25.524,25.524,0,0,0,4.368-2.431,22.683,22.683,0,0,0,3.71-3.222,13.084,13.084,0,0,0,1.286-1.668A14.161,14.161,0,0,0,115.9,48.114ZM90.649,45.4a29.468,29.468,0,0,1,.18-3.223,63.441,63.441,0,0,1,1.106-7.095,38.245,38.245,0,0,1,2.184-6.869,27.586,27.586,0,0,1,1.8-3.477A19.183,19.183,0,0,1,98.308,21.6a10.293,10.293,0,0,1,4.069-2.714,3.181,3.181,0,0,1,2.513.114,3.323,3.323,0,0,1,1.556,1.7,7.268,7.268,0,0,1,.449,1.357,10.727,10.727,0,0,1,.209,1.413,15.773,15.773,0,0,1-.12,3.364,23.862,23.862,0,0,1-.718,3.307,40.268,40.268,0,0,1-2.034,5.343q-1.2,2.571-2.693,5.116a2,2,0,0,1-.269.4,1.959,1.959,0,0,0-.269.4,2.878,2.878,0,0,1-.539.735.736.736,0,0,0,.449-.114,3.143,3.143,0,0,0,.269-.226q1.018-.791,2.094-1.469a21.493,21.493,0,0,1,2.274-1.244,23.536,23.536,0,0,1,2.872-1.074,10.494,10.494,0,0,1,3.052-.452,6.691,6.691,0,0,1,3.769.848,5.1,5.1,0,0,1,2.333,2.883,11.516,11.516,0,0,1,.539,1.922,6.235,6.235,0,0,1,.06,1.923,2.883,2.883,0,0,0,.06.678l.838-.114.837-.113q1.736-.283,3.411-.537t3.41-.368a5.259,5.259,0,0,1,.9-.056q.24,0,.359.339a.837.837,0,0,1-.778.961q-1.018.225-2.065.4t-2.123.339q-1.2.282-2.454.509t-2.453.509a.377.377,0,0,0-.419.339,5.2,5.2,0,0,0-.209.594,5.184,5.184,0,0,1-.209.593,14.284,14.284,0,0,1-1.825,3.138,23.3,23.3,0,0,1-2.483,2.742,20.536,20.536,0,0,1-3.71,2.8,38.957,38.957,0,0,1-4.188,2.12q-.839.338-1.675.65t-1.675.594a17.485,17.485,0,0,1-2.184.536q-1.107.2-2.245.312a6.413,6.413,0,0,1-1.584.027q-.749-.084-1.527-.2a4.544,4.544,0,0,1-1.436-.453,2.706,2.706,0,0,1-1.406-1.244,2.668,2.668,0,0,1-.029-1.978,4.326,4.326,0,0,1,.568-1.272,12.056,12.056,0,0,1,.868-1.16A10.708,10.708,0,0,1,94,54.587a16.806,16.806,0,0,1,1.436-1.045,32.45,32.45,0,0,1,6.1-3.11q1.018-.452,2.095-.819t2.154-.764q2.572-.848,5.384-1.526,1.2-.283,2.424-.537t2.483-.537a.6.6,0,0,0,.479-.509,5.614,5.614,0,0,0-.9-3.618,3.293,3.293,0,0,0-1.257-1.215,6.943,6.943,0,0,0-1.735-.651,6.458,6.458,0,0,0-1.7-.113q-.869.056-1.706.17a16.61,16.61,0,0,0-4.518,1.5,31.55,31.55,0,0,0-3.979,2.4q-1.975,1.47-3.769,3.052a2.252,2.252,0,0,0-.21.226,2.216,2.216,0,0,1-.208.226.461.461,0,0,1-.479.17.266.266,0,0,1-.179-.4q.059-.452.149-.9a2.559,2.559,0,0,1,.389-.9q.9-1.47,1.765-2.94t1.825-2.94a25.614,25.614,0,0,0,1.764-3.223q.749-1.639,1.466-3.336.54-1.413,1.017-2.854a25.256,25.256,0,0,0,.778-2.912,14.708,14.708,0,0,0,.3-2.2,6.611,6.611,0,0,0-.24-2.149,2.5,2.5,0,0,0-.719-1.3,1.706,1.706,0,0,0-1.615-.51,3.441,3.441,0,0,0-1.047.283,9.461,9.461,0,0,0-.987.509,7.3,7.3,0,0,0-1.885,1.555q-.808.932-1.526,1.894a15.6,15.6,0,0,0-1.675,2.94q-.658,1.528-1.2,3.11Q93.82,33.7,93.372,35.79t-.808,4.239a24.746,24.746,0,0,0-.419,2.94l-.24,2.94q-.12,1.188-.15,2.374t-.09,2.375q-.059.621-.06,1.159v1.16a1.657,1.657,0,0,1-.03.282.441.441,0,0,0,.09.339.755.755,0,0,1-.06.339q-.12.227-.21.424a.486.486,0,0,1-.388.254.449.449,0,0,1-.419-.2,1.631,1.631,0,0,1-.18-.423,11.194,11.194,0,0,1-.628-2.063q-.209-1.046-.389-2.12-.3-1.526-.449-3.053T88.674,43.7q-.12-1.753-.179-3.505t0-3.505q.118-2.489.269-4.919a44.965,44.965,0,0,1,.568-4.863q.24-1.3.449-2.629t.509-2.628q.179-.623.389-1.188a4.639,4.639,0,0,1,.568-1.073,2.42,2.42,0,0,1,.478-.566q.479-.34.658.17a2.306,2.306,0,0,1,0,1.639,6.371,6.371,0,0,0-.6,1.611q-.179.819-.359,1.668-.6,3.052-.9,6.218-.118.961-.149,1.894t-.15,1.894q-.12,1.528-.09,3.025t.03,2.968a19.745,19.745,0,0,0,.06,2.657q.12,1.357.239,2.657C90.469,45.306,90.529,45.363,90.649,45.4Z" transform="translate(-18805.219 1886.089)" fill="none" stroke="#30bba9" stroke-width="1"/>
    <path id="Path_45359" data-name="Path 45359" d="M115.9,48.114a2.278,2.278,0,0,1-.569.142,2.239,2.239,0,0,0-.568.141q-2.932.621-5.8,1.442t-5.744,1.894l-3.829,1.583a22.142,22.142,0,0,0-3.65,1.922,13.373,13.373,0,0,0-1.675,1.244,8.611,8.611,0,0,0-1.376,1.526q-.359.452-.3.707t.6.537a1.4,1.4,0,0,0,.478.226,12.75,12.75,0,0,0,2.932.338,23.2,23.2,0,0,0,5.086-.961q1.018-.283,2-.65t2-.82a25.49,25.49,0,0,0,4.368-2.431,22.683,22.683,0,0,0,3.71-3.222,13,13,0,0,0,1.286-1.668,14.161,14.161,0,0,0,1.047-1.951M90.649,45.4a29.468,29.468,0,0,1,.18-3.223,63.231,63.231,0,0,1,1.107-7.095,38.168,38.168,0,0,1,2.183-6.869,27.586,27.586,0,0,1,1.8-3.477A19.235,19.235,0,0,1,98.308,21.6a10.293,10.293,0,0,1,4.069-2.714,3.181,3.181,0,0,1,2.513.114,3.323,3.323,0,0,1,1.556,1.7,7.268,7.268,0,0,1,.449,1.357,10.727,10.727,0,0,1,.209,1.413,15.773,15.773,0,0,1-.12,3.364,23.862,23.862,0,0,1-.718,3.307,40.268,40.268,0,0,1-2.034,5.343q-1.2,2.571-2.693,5.116a2,2,0,0,1-.269.4,2,2,0,0,0-.269.4,2.878,2.878,0,0,1-.539.735.736.736,0,0,0,.449-.114,3.008,3.008,0,0,0,.269-.226q1.018-.791,2.094-1.469a21.493,21.493,0,0,1,2.274-1.244,23.436,23.436,0,0,1,2.872-1.074,10.481,10.481,0,0,1,3.051-.452,6.692,6.692,0,0,1,3.77.848,5.105,5.105,0,0,1,2.334,2.883,11.6,11.6,0,0,1,.538,1.922,6.235,6.235,0,0,1,.06,1.923,2.883,2.883,0,0,0,.06.678l.838-.114.837-.113q1.736-.283,3.411-.537t3.409-.368a5.278,5.278,0,0,1,.9-.056q.24,0,.359.339a.837.837,0,0,1-.778.961q-1.018.225-2.065.4t-2.123.339q-1.2.282-2.453.509t-2.454.509a.377.377,0,0,0-.419.339,5.2,5.2,0,0,0-.209.594,5.184,5.184,0,0,1-.209.593,14.247,14.247,0,0,1-1.825,3.138,23.3,23.3,0,0,1-2.483,2.742,20.536,20.536,0,0,1-3.71,2.8,38.871,38.871,0,0,1-4.188,2.12q-.839.338-1.675.65t-1.675.594a17.485,17.485,0,0,1-2.184.536q-1.107.2-2.244.312a6.421,6.421,0,0,1-1.585.027q-.749-.084-1.526-.2a4.549,4.549,0,0,1-1.437-.453,2.7,2.7,0,0,1-1.405-1.244,2.668,2.668,0,0,1-.03-1.978,4.35,4.35,0,0,1,.568-1.272,12.056,12.056,0,0,1,.868-1.16A10.78,10.78,0,0,1,94,54.587a16.806,16.806,0,0,1,1.436-1.045,32.45,32.45,0,0,1,6.1-3.11q1.018-.452,2.095-.819t2.154-.764q2.572-.848,5.385-1.526,1.2-.283,2.423-.537t2.483-.537a.6.6,0,0,0,.479-.509,5.614,5.614,0,0,0-.9-3.618,3.293,3.293,0,0,0-1.257-1.215,6.943,6.943,0,0,0-1.735-.651,6.458,6.458,0,0,0-1.7-.113q-.869.056-1.706.17a16.61,16.61,0,0,0-4.518,1.5,31.55,31.55,0,0,0-3.979,2.4q-1.975,1.47-3.769,3.052a2.252,2.252,0,0,0-.21.226,2.116,2.116,0,0,1-.208.226.461.461,0,0,1-.479.17.266.266,0,0,1-.179-.4q.059-.452.149-.9a2.559,2.559,0,0,1,.389-.9q.9-1.47,1.765-2.94t1.825-2.94a25.614,25.614,0,0,0,1.764-3.223q.749-1.639,1.466-3.336.54-1.413,1.017-2.854a25.256,25.256,0,0,0,.778-2.912,14.708,14.708,0,0,0,.3-2.2,6.611,6.611,0,0,0-.24-2.149,2.5,2.5,0,0,0-.718-1.3,1.709,1.709,0,0,0-1.616-.51,3.441,3.441,0,0,0-1.047.283,9.461,9.461,0,0,0-.987.509,7.32,7.32,0,0,0-1.885,1.555q-.808.932-1.526,1.894a15.6,15.6,0,0,0-1.675,2.94q-.658,1.528-1.2,3.11-.658,2.091-1.107,4.183t-.808,4.239a24.746,24.746,0,0,0-.419,2.94l-.24,2.94q-.12,1.188-.15,2.374t-.09,2.375q-.059.621-.06,1.159v1.16a1.657,1.657,0,0,1-.03.282.445.445,0,0,0,.09.339.743.743,0,0,1-.06.339q-.12.227-.209.424a.488.488,0,0,1-.389.254.449.449,0,0,1-.419-.2,1.6,1.6,0,0,1-.179-.423,11.126,11.126,0,0,1-.629-2.063q-.209-1.046-.388-2.12-.3-1.526-.449-3.053t-.27-3.052q-.12-1.753-.179-3.505t0-3.505q.12-2.489.269-4.919a44.965,44.965,0,0,1,.568-4.863q.24-1.3.449-2.629t.509-2.628c.12-.415.249-.811.389-1.188a4.639,4.639,0,0,1,.568-1.073,2.444,2.444,0,0,1,.478-.566q.479-.34.658.17a2.306,2.306,0,0,1,0,1.639,6.333,6.333,0,0,0-.6,1.611q-.18.819-.359,1.668-.6,3.052-.9,6.218-.12.961-.15,1.894t-.15,1.894q-.12,1.528-.09,3.025t.03,2.968a19.745,19.745,0,0,0,.06,2.657q.12,1.357.239,2.657c0,.075.061.132.18.17" transform="translate(-18805.219 1886.089)" fill="#30bba9"/>
  </g>
</svg>
