<svg xmlns="http://www.w3.org/2000/svg" width="306" height="81" viewBox="0 0 306 81">
  <g id="Group_8792" data-name="Group 8792" transform="translate(-964 -1183)">
    <text id="Specialists_will_listen_to_your_needs_and_evaluate_your_condition_from_every_angle." data-name="Specialists will listen to your needs and evaluate your condition from every angle." transform="translate(1040 1183)" fill="#1a1a1a" font-size="18" font-family="RNSPhysis-Medium, RNS Physis" font-weight="500"><tspan x="0" y="20">Specialists will listen to your </tspan><tspan x="0" y="48">needs and evaluate your </tspan><tspan x="0" y="76">condition from every angle.</tspan></text>
    <path id="Path_44677" data-name="Path 44677" d="M77.473,200a2.555,2.555,0,0,1-1.654-2.769c.051-3.3.017-6.6.017-9.9,0-1.687.528-2.325,2.169-2.629a1.19,1.19,0,0,0,.2-.082,11.659,11.659,0,0,0-1.068-3.918,27.366,27.366,0,0,0-2.088-3.644c-1.945-2.784-3.956-5.522-5.981-8.249a10.484,10.484,0,0,1-2.145-6.6c.037-2.538.013-5.078.007-7.617a3.649,3.649,0,0,1,5.876-3.046.7.7,0,0,0,.563.066,3.514,3.514,0,0,1,3.9.773,3.47,3.47,0,0,1,.858,3.927q-1.273,3.613-2.559,7.221c-.411,1.158-.409,1.164.591,2.006a3.909,3.909,0,0,1,2.86-2.6,3.707,3.707,0,0,1,3.254.71,7.478,7.478,0,0,1,.769.719c2.664,2.748,5.316,5.508,7.991,8.246a6.826,6.826,0,0,1,2.026,5.008c-.013,2.129,0,4.258,0,6.386v.565c.62.168,1.175.321,1.731.469a.451.451,0,0,0,.22.018c.574-.156,1.146-.32,1.788-.5v-2.083c0-1.621.021-3.242-.005-4.863a6.779,6.779,0,0,1,2.065-5.049c2.651-2.706,5.275-5.44,7.906-8.165,2.39-2.476,5.357-2.027,6.873,1.044.016.032.057.05.12.1a7.159,7.159,0,0,1,.573-.648.624.624,0,0,0,.136-.779c-.907-2.553-1.795-5.113-2.706-7.665a3.64,3.64,0,0,1,.633-3.884,3.587,3.587,0,0,1,3.95-.99.842.842,0,0,0,.677-.02,3.61,3.61,0,0,1,5.869,2.8c.078,3.063.03,6.131-.049,9.2a8.357,8.357,0,0,1-1.676,4.675q-3.208,4.473-6.462,8.913a16.357,16.357,0,0,0-3.064,7.319.844.844,0,0,0,0,.143c.034.036.045.058.06.062,1.953.47,2.307.921,2.307,2.939,0,1.523,0,3.047,0,4.57a2.955,2.955,0,0,1-.06.638.777.777,0,0,1-.9.652.751.751,0,0,1-.765-.739c-.035-.52-.008-1.044-.008-1.6H95.823c-.015.163-.04.314-.04.465q0,2.93,0,5.859c0,.7.088.793.759.793,4.979,0,9.959-.005,14.938.01.557,0,.8-.189.761-.747a5.626,5.626,0,0,1,.012-.819.8.8,0,0,1,.822-.817.77.77,0,0,1,.878.753c.1,1.526.191,2.532-1.563,3.379H95.751a1.468,1.468,0,0,0-1.758,0Zm13.82-15.294v-.718c0-2.089-.023-4.178.007-6.267a5.268,5.268,0,0,0-1.586-3.948c-2.653-2.7-5.273-5.438-7.908-8.158a7.139,7.139,0,0,0-.546-.53,2.127,2.127,0,0,0-2.915.155,2.044,2.044,0,0,0-.039,2.854c1.557,1.724,3.13,3.433,4.694,5.15a2.628,2.628,0,0,1,.4.5.8.8,0,0,1-.186,1.058.79.79,0,0,1-1.072.044,2.885,2.885,0,0,1-.421-.4q-4.22-4.71-8.44-9.42a3.261,3.261,0,0,1-.864-2.342c.029-2.694.007-5.389.013-8.083a1.932,1.932,0,0,0-.9-1.791,1.75,1.75,0,0,0-1.837-.056,1.83,1.83,0,0,0-1,1.725c0,2.538.029,5.077-.011,7.614a9.128,9.128,0,0,0,1.879,5.776c2.016,2.707,3.972,5.46,5.964,8.185a17.929,17.929,0,0,1,3.394,8.057c.069.471.226.611.692.608,3.358-.018,6.715-.01,10.073-.01Zm18.491-.029c.048-.217.092-.368.114-.522a17.959,17.959,0,0,1,3.38-8.061c2.037-2.789,4.06-5.588,6.094-8.379a7.267,7.267,0,0,0,1.658-3.937c.116-3.119.095-6.243.109-9.365a1.8,1.8,0,0,0-.9-1.615,1.847,1.847,0,0,0-2.816,1.632c-.024,2.752-.014,5.505-.005,8.258a3.249,3.249,0,0,1-.84,2.3q-4.269,4.744-8.513,9.51a2.277,2.277,0,0,1-.383.358.8.8,0,0,1-1.116-.092.794.794,0,0,1-.108-1.069,3.555,3.555,0,0,1,.373-.449c1.565-1.716,3.142-3.422,4.7-5.149a2.09,2.09,0,0,0-.99-3.423,2.2,2.2,0,0,0-2.316.738q-4.1,4.262-8.226,8.5a4.866,4.866,0,0,0-1.449,3.583c.023,2.206.006,4.412.006,6.618v.568Zm-32.188,6.435c0,2.234,0,4.416,0,6.6,0,.5.334.535.721.535q7.492-.006,14.985,0c.521,0,.736-.163.731-.706-.02-2.01-.007-4.02-.01-6.03a3.692,3.692,0,0,0-.045-.4Zm34.563-1.794a.7.7,0,0,0,.063-.163c.007-.585.013-1.17.014-1.755,0-.892-.04-.934-.912-.934H96.693a1.1,1.1,0,0,0-.462.022c-.167.085-.409.249-.416.389-.039.808-.019,1.619-.019,2.441ZM94.023,189.3c0-.677,0-1.3,0-1.923,0-.894-.021-.915-.917-.915H78.539c-.156,0-.345-.051-.46.019-.186.113-.45.3-.461.467-.049.772-.022,1.548-.022,2.352Zm21.5-27.461.182-.015v-8.606a1.737,1.737,0,0,0-1.783.289,1.662,1.662,0,0,0-.645,1.876C113.994,157.549,114.769,159.692,115.521,161.843Zm-41.39-.064.18.014c.628-1.773,1.26-3.545,1.882-5.32a8.085,8.085,0,0,0,.382-1.281,1.673,1.673,0,0,0-.742-1.72,1.638,1.638,0,0,0-1.7-.235ZM95.516,140a5.068,5.068,0,0,1,2.743,1.549,4.392,4.392,0,0,1-.086,5.871c-.09.1-.173.207-.3.366a8.31,8.31,0,0,1,3.2,2.869c-1.542-2.789-1.346-5.067,1.872-6.336a3.434,3.434,0,0,1,3.972,1.4,3.688,3.688,0,0,1-.232,4.72,26.56,26.56,0,0,1,1.9,1.9,4.92,4.92,0,0,1,1.092,3.091c.033,1.542.027,3.085.011,4.627a1.493,1.493,0,0,1-1.518,1.531q-5.593.024-11.186.005a.884.884,0,0,1-.989-.851.893.893,0,0,1,.964-.89c1.03-.026,2.062-.007,3.106-.007a1.276,1.276,0,0,0,.066-.263c-.013-1.991.026-3.984-.06-5.972a5.132,5.132,0,0,0-4.043-4.587,5.276,5.276,0,0,0-5.621,2.46,5.547,5.547,0,0,0-.729,2.679c-.03,1.8-.009,3.592-.007,5.389a2.22,2.22,0,0,0,.047.289c.844,0,1.677,0,2.511,0a3.833,3.833,0,0,1,.7.053.789.789,0,0,1,.694.874.8.8,0,0,1-.772.809,4.633,4.633,0,0,1-.526.019q-5.154,0-10.308,0c-1.316,0-1.885-.567-1.885-1.88,0-1.406-.024-2.812.021-4.217a5.6,5.6,0,0,1,2.764-4.745c.1-.061.187-.131.313-.22a3.883,3.883,0,0,1-1.014-3.079,3.711,3.711,0,0,1,5.8-2.614,4.145,4.145,0,0,1,1.322,1.655,4.308,4.308,0,0,1,.2,2.161,11.418,11.418,0,0,1-.784,1.98,8.29,8.29,0,0,1,3.135-2.8,11.517,11.517,0,0,1-1.041-1.653,4.4,4.4,0,0,1,3.221-6.081,2.256,2.256,0,0,0,.27-.1Zm-7.6,19.8c0-1.256-.016-2.481,0-3.705a29.009,29.009,0,0,1,.149-3.211.689.689,0,0,0-.475-.876,3.93,3.93,0,0,0-5.532,2.719,31.761,31.761,0,0,0-.051,5.073Zm20.009,0c0-1.547.077-3.034-.017-4.509a4.018,4.018,0,0,0-5.18-3.467c-.971.3-1.008.357-.89,1.354a2.729,2.729,0,0,1,.016.292q.026,2.752.051,5.5c0,.266,0,.532,0,.826Zm-15.687-15.34a2.68,2.68,0,1,0,2.653-2.7A2.7,2.7,0,0,0,92.237,144.465ZM87.9,147.916a1.981,1.981,0,0,0-1.952-2,1.977,1.977,0,1,0-.03,3.953A1.962,1.962,0,0,0,87.9,147.916Zm16.012,1.958a1.978,1.978,0,1,0-1.99-1.943A1.952,1.952,0,0,0,103.916,149.874ZM95.751,200a1.468,1.468,0,0,0-1.758,0Z" transform="translate(897.082 1054)" fill="#00a8f0"/>
  </g>
</svg>
