<svg xmlns="http://www.w3.org/2000/svg" width="20" height="20" viewBox="0 0 20 20">
  <g id="Group_8806" data-name="Group 8806" transform="translate(-763 -3199)">
    <path id="Path_44408" data-name="Path 44408" d="M19.495,21.5a1.722,1.722,0,0,1-2.436,0L.5,4.942A1.723,1.723,0,0,1,2.941,2.5L5,4.567l0,0,7.616,7.618a.087.087,0,0,1,.017.016l0,0,6.852,6.854a1.72,1.72,0,0,1,0,2.435" transform="translate(763 3197)" fill="#5981c1"/>
    <path id="Path_44409" data-name="Path 44409" d="M9.694,34.338a1.723,1.723,0,0,1-2.437,0L.5,27.586a1.723,1.723,0,0,1,2.437-2.437L9.694,31.9a1.723,1.723,0,0,1,0,2.437" transform="translate(763 3181.724)" fill="#19a362"/>
    <path id="Path_44410" data-name="Path 44410" d="M5.008,51.482a1.722,1.722,0,0,1-2.437,0L.5,49.416a1.723,1.723,0,0,1,2.437-2.437l2.067,2.067a1.723,1.723,0,0,1,0,2.437" transform="translate(763 3166.997)" fill="#64c6c2"/>
    <path id="Path_44411" data-name="Path 44411" d="M39.816,19.153a1.722,1.722,0,0,1-2.436,0L30.628,12.4a1.722,1.722,0,1,1,2.435-2.437l3.03,3.029,3.723,3.723a1.723,1.723,0,0,1,0,2.437" transform="translate(742.678 3191.968)" fill="#b21f5f"/>
    <path id="Path_44412" data-name="Path 44412" d="M45.028,2.534a1.722,1.722,0,0,1,2.437,0h0L49.531,4.6A1.722,1.722,0,1,1,47.1,7.037L45.028,4.971a1.723,1.723,0,0,1,0-2.437" transform="translate(732.963 3196.98)" fill="#f99f1e"/>
    <path id="Path_44413" data-name="Path 44413" d="M39.609,41.613a1.722,1.722,0,0,1-2.436,0L30.32,34.76a1.722,1.722,0,0,1,2.416-2.455.087.087,0,0,1,.017.016l0,0,6.852,6.854a1.72,1.72,0,0,1,0,2.435" transform="translate(742.886 3176.883)" fill="#466bb3"/>
    <path id="Path_44414" data-name="Path 44414" d="M17.421,42.065a1.723,1.723,0,0,1-2.437,0L11.959,39.04A1.723,1.723,0,1,1,14.4,36.6l3.026,3.026a1.723,1.723,0,0,1,0,2.437" transform="translate(755.273 3173.997)" fill="#8ec64e"/>
    <path id="Path_44415" data-name="Path 44415" d="M9.289,55.764a1.722,1.722,0,0,1-2.437,0h0a1.723,1.723,0,0,1,2.436-2.437l0,0a1.723,1.723,0,0,1,0,2.437" transform="translate(758.719 3162.715)" fill="#96d8e7"/>
    <path id="Path_44416" data-name="Path 44416" d="M36.093,15.429a1.722,1.722,0,0,1-2.437,0L30.628,12.4a1.722,1.722,0,1,1,2.435-2.437l3.03,3.029a1.723,1.723,0,0,1,0,2.436" transform="translate(742.678 3191.968)" fill="#df4f43"/>
    <path id="Path_44417" data-name="Path 44417" d="M45.028,2.534a1.722,1.722,0,0,1,2.437,0h0A1.723,1.723,0,0,1,45.03,4.972l0,0a1.723,1.723,0,0,1,0-2.437" transform="translate(732.963 3196.98)" fill="#ffc81b"/>
  </g>
</svg>
