<svg xmlns="http://www.w3.org/2000/svg" width="209.923" height="144.438" viewBox="0 0 209.923 144.438">
  <g id="Group_9969" data-name="Group 9969" transform="translate(18798 -1887.647)">
    <path id="Path_45331" data-name="Path 45331" d="M8.28,112.658a4.671,4.671,0,0,0,3.7-1.8,6.538,6.538,0,0,0,1.519-4.357,6.859,6.859,0,0,0-.7-3.079,5.781,5.781,0,0,0-1.909-2.248,4.518,4.518,0,0,0-2.608-.832H3.065v12.317ZM3.065,88.024V99.1H7.624a4.037,4.037,0,0,0,3.223-1.627,5.972,5.972,0,0,0,1.335-3.911,6.521,6.521,0,0,0-.6-2.789,4.878,4.878,0,0,0-1.663-2.014,3.965,3.965,0,0,0-2.3-.737Zm7.884,11.543a7.714,7.714,0,0,1,2.69,1.53,7.307,7.307,0,0,1,1.827,2.44,7.067,7.067,0,0,1-1.643,8.192A7.785,7.785,0,0,1,8.28,113.9H.438V86.785H7.624a7.135,7.135,0,0,1,5.071,1.995,6.489,6.489,0,0,1,1.067,8.328A6.835,6.835,0,0,1,10.949,99.567Z" transform="translate(-18798 1917.749)" fill="none" stroke="#36a8e5" stroke-width="0.875"/>
    <path id="Path_45332" data-name="Path 45332" d="M24.678,86.785v1.239H19.463V113.9H16.836V88.024H11.62V86.785Z" transform="translate(-18794.072 1917.748)" fill="none" stroke="#36a8e5" stroke-width="0.875"/>
    <path id="Path_45333" data-name="Path 45333" d="M30.5,112.658a4.671,4.671,0,0,0,3.7-1.8A6.538,6.538,0,0,0,35.71,106.5a6.842,6.842,0,0,0-.7-3.079,5.759,5.759,0,0,0-1.909-2.248,4.514,4.514,0,0,0-2.606-.832H25.28v12.317ZM25.28,88.024V99.1h4.558a4.042,4.042,0,0,0,3.224-1.627A5.972,5.972,0,0,0,34.4,93.564a6.521,6.521,0,0,0-.6-2.789,4.889,4.889,0,0,0-1.663-2.014,3.969,3.969,0,0,0-2.3-.737Zm7.884,11.543a7.708,7.708,0,0,1,2.689,1.53,7.311,7.311,0,0,1,1.828,2.44,7.067,7.067,0,0,1-1.643,8.192A7.785,7.785,0,0,1,30.5,113.9H22.652V86.785h7.186a7.13,7.13,0,0,1,5.071,1.995,6.489,6.489,0,0,1,1.067,8.328A6.823,6.823,0,0,1,33.164,99.567Z" transform="translate(-18790.197 1917.749)" fill="none" stroke="#36a8e5" stroke-width="0.875"/>
    <path id="Path_45334" data-name="Path 45334" d="M124.545,107.693a.914.914,0,0,1,.635.659.865.865,0,0,1-.226.89,8.689,8.689,0,0,1-12.809-.135,9.867,9.867,0,0,1-2.67-6.954,10.25,10.25,0,0,1,1.231-4.977,9.521,9.521,0,0,1,3.325-3.583,8.662,8.662,0,0,1,10.923,1.433.867.867,0,0,1,.226.892.921.921,0,0,1-.678.659.893.893,0,0,1-1.108-.349,5.763,5.763,0,0,0-4.763-2.711,5.7,5.7,0,0,0-4.64,2.517,10.609,10.609,0,0,0,0,12.2,5.522,5.522,0,0,0,9.362-.155A.985.985,0,0,1,124.545,107.693Z" transform="translate(-18759.711 1919.653)" fill="none" stroke="#36a8e5" stroke-width="0.875"/>
    <path id="Path_45335" data-name="Path 45335" d="M56.921,86.785h2.628V113.9H56.921V100.96H46.492V113.9H43.864V86.785h2.628V99.721h10.43Z" transform="translate(-18782.75 1917.748)" fill="none" stroke="#36a8e5" stroke-width="0.875"/>
    <path id="Path_45336" data-name="Path 45336" d="M60.278,102.115a8.785,8.785,0,0,0,.082,1.24l12.852-3.1a9.128,9.128,0,0,0-2.279-4.822,5.449,5.449,0,0,0-4.085-1.918,5.7,5.7,0,0,0-4.641,2.517A9.7,9.7,0,0,0,60.278,102.115Zm13.386,4.222a1.061,1.061,0,0,1,.576,1.588,9.59,9.59,0,0,1-3.224,2.963,8.531,8.531,0,0,1-9.588-.814,9.786,9.786,0,0,1-3.285-4.9,11.393,11.393,0,0,1-.288-1.2,10.526,10.526,0,0,1,1.067-6.8A9.5,9.5,0,0,1,62.248,93.6a8.476,8.476,0,0,1,4.6-1.317,8.37,8.37,0,0,1,5.6,2.092,9.858,9.858,0,0,1,3.224,5.307,8.582,8.582,0,0,1,.247,1.2l-2.588.62-12.77,3.06a8.918,8.918,0,0,0,2.34,4.474,5.429,5.429,0,0,0,3.943,1.724,5.192,5.192,0,0,0,3.12-1.047,7.407,7.407,0,0,0,2.3-2.828,1.167,1.167,0,0,1,.595-.5A1.211,1.211,0,0,1,73.664,106.338Z" transform="translate(-18777.896 1919.654)" fill="none" stroke="#36a8e5" stroke-width="0.875"/>
    <path id="Path_45337" data-name="Path 45337" d="M79.191,92.277a8.734,8.734,0,0,1,5.071,1.453A4.173,4.173,0,0,1,86.376,97.2v14.8H83.748v-1.278a8.2,8.2,0,0,1-4.558,1.278,8.049,8.049,0,0,1-5.091-1.627A4.821,4.821,0,0,1,72,106.454a4.543,4.543,0,0,1,1.026-2.886,6.863,6.863,0,0,1,2.752-2.034l.492-.155a11.148,11.148,0,0,1,2.012-.426c.192-.026.589-.053,1.192-.078a12.386,12.386,0,0,0,1.478-.135,7.475,7.475,0,0,0,1.149-.291q1.48-.582,1.643-1.588a4.966,4.966,0,0,1-.246,1.084,2.788,2.788,0,0,1-.616.813,4.3,4.3,0,0,1-2.381,1.2,11.905,11.905,0,0,1-1.274.175,12.234,12.234,0,0,0-1.436.213,4.653,4.653,0,0,0-1.438.717,4.286,4.286,0,0,0-1.088,1.162,4.367,4.367,0,0,0-.6,1.452,4.324,4.324,0,0,0,.205,2.112,4.241,4.241,0,0,0,1.19,1.8,4.6,4.6,0,0,0,1.951,1.026,4.7,4.7,0,0,0,2.238.039,4.593,4.593,0,0,0,1.992-1.007,3.88,3.88,0,0,0,1.211-1.763,8.634,8.634,0,0,0,.328-2.788q0-1.279-.02-3.834t-.02-3.834V97.2a3.177,3.177,0,0,0-.6-1.859A3.962,3.962,0,0,0,81.49,94a5.5,5.5,0,0,0-2.3-.485,4.887,4.887,0,0,0-3.367,1.2.8.8,0,0,1-.616.213,1.117,1.117,0,0,1-.657-.252.757.757,0,0,1-.246-.735.836.836,0,0,1,.451-.62A9.3,9.3,0,0,1,79.191,92.277Z" transform="translate(-18772.869 1919.653)" fill="none" stroke="#36a8e5" stroke-width="0.875"/>
    <path id="Path_45338" data-name="Path 45338" d="M84.282,88.625h3.9v24.634H85.6V89.866Z" transform="translate(-18768.557 1918.387)" fill="none" stroke="#36a8e5" stroke-width="0.875"/>
    <path id="Path_45339" data-name="Path 45339" d="M106.444,94.5a7.323,7.323,0,0,1,3.941,1.123,8.056,8.056,0,0,1,2.854,3.04,8.546,8.546,0,0,1,1.049,4.164v11.388h-2.629V102.829a8.246,8.246,0,0,0-1.519-5.016,4.331,4.331,0,0,0-7.391,0,8.247,8.247,0,0,0-1.52,5.016v11.388H96.713a5.154,5.154,0,0,1-3.7-1.453A4.631,4.631,0,0,1,91.5,109.3V96.942H88.871v-1.2H91.5v-6.2h2.587v6.2h2.628v1.2H94.085V109.3a4.759,4.759,0,0,0,.349,1.82,3.363,3.363,0,0,0,.965,1.356,2.044,2.044,0,0,0,1.315.5,2.673,2.673,0,0,0,1.888-1.125V85.864h2.628V96.632A7.283,7.283,0,0,1,106.444,94.5Z" transform="translate(-18766.947 1917.429)" fill="none" stroke="#36a8e5" stroke-width="0.875"/>
    <path id="Path_45340" data-name="Path 45340" d="M129.333,92.277A8.734,8.734,0,0,1,134.4,93.73a4.17,4.17,0,0,1,2.115,3.465v14.8H133.89v-1.278a8.192,8.192,0,0,1-4.558,1.278,8.049,8.049,0,0,1-5.091-1.627,4.825,4.825,0,0,1-2.094-3.911,4.544,4.544,0,0,1,1.027-2.886,6.848,6.848,0,0,1,2.751-2.034l.492-.155a11.172,11.172,0,0,1,2.012-.426c.192-.026.589-.053,1.192-.078a12.332,12.332,0,0,0,1.478-.135,7.531,7.531,0,0,0,1.15-.291q1.478-.582,1.642-1.588a4.889,4.889,0,0,1-.246,1.084,2.788,2.788,0,0,1-.616.813,4.294,4.294,0,0,1-2.381,1.2,11.864,11.864,0,0,1-1.273.175,12.268,12.268,0,0,0-1.438.213,4.653,4.653,0,0,0-1.438.717,4,4,0,0,0-1.478,4.726,4.23,4.23,0,0,0,1.192,1.8,4.588,4.588,0,0,0,1.95,1.026,4.7,4.7,0,0,0,2.239.039,4.6,4.6,0,0,0,1.99-1.007,3.894,3.894,0,0,0,1.212-1.763,8.673,8.673,0,0,0,.328-2.788q0-1.279-.02-3.834t-.022-3.834V97.2a3.186,3.186,0,0,0-.595-1.859A3.966,3.966,0,0,0,131.632,94a5.5,5.5,0,0,0-2.3-.485,4.889,4.889,0,0,0-3.367,1.2.8.8,0,0,1-.616.213,1.117,1.117,0,0,1-.657-.252.757.757,0,0,1-.246-.735.842.842,0,0,1,.451-.62A9.312,9.312,0,0,1,129.333,92.277Z" transform="translate(-18755.262 1919.653)" fill="none" stroke="#36a8e5" stroke-width="0.875"/>
    <path id="Path_45341" data-name="Path 45341" d="M143.979,92.588a.679.679,0,0,1,.513.5.6.6,0,0,1-.226.659.714.714,0,0,1-.862.116,3.26,3.26,0,0,0-1.478-.349,3.415,3.415,0,0,0-2.773,1.433,5.46,5.46,0,0,0-1.128,3.486v13.557H135.4V92.278h2.629v1.239a6.521,6.521,0,0,1,3.9-1.239A6.819,6.819,0,0,1,143.979,92.588Z" transform="translate(-18750.605 1919.654)" fill="none" stroke="#36a8e5" stroke-width="0.875"/>
    <path id="Path_45342" data-name="Path 45342" d="M144.214,102.115a8.781,8.781,0,0,0,.082,1.24l12.851-3.1a9.127,9.127,0,0,0-2.278-4.822,5.45,5.45,0,0,0-4.086-1.918,5.7,5.7,0,0,0-4.64,2.517A9.7,9.7,0,0,0,144.214,102.115Zm13.386,4.222a1.06,1.06,0,0,1,.574,1.588,9.565,9.565,0,0,1-3.224,2.963,8.33,8.33,0,0,1-4.167,1.1,8.414,8.414,0,0,1-5.421-1.918,9.784,9.784,0,0,1-3.283-4.9,11.064,11.064,0,0,1-.288-1.2,10.526,10.526,0,0,1,1.067-6.8,9.5,9.5,0,0,1,3.325-3.583,8.472,8.472,0,0,1,4.6-1.317,8.371,8.371,0,0,1,5.6,2.092,9.858,9.858,0,0,1,3.224,5.307,8.577,8.577,0,0,1,.246,1.2l-2.587.62-12.77,3.06a8.92,8.92,0,0,0,2.342,4.474,5.428,5.428,0,0,0,3.941,1.724,5.2,5.2,0,0,0,3.121-1.047,7.407,7.407,0,0,0,2.3-2.828,1.167,1.167,0,0,1,.595-.5A1.211,1.211,0,0,1,157.6,106.338Z" transform="translate(-18748.42 1919.654)" fill="none" stroke="#36a8e5" stroke-width="0.875"/>
    <path id="Path_45343" data-name="Path 45343" d="M8.28,112.658a4.671,4.671,0,0,0,3.7-1.8,6.538,6.538,0,0,0,1.519-4.357,6.842,6.842,0,0,0-.7-3.079,5.767,5.767,0,0,0-1.908-2.248,4.521,4.521,0,0,0-2.608-.832H3.065v12.317ZM3.065,88.024V99.1H7.622a4.04,4.04,0,0,0,3.224-1.627,5.972,5.972,0,0,0,1.335-3.911,6.521,6.521,0,0,0-.6-2.789,4.889,4.889,0,0,0-1.663-2.014,3.969,3.969,0,0,0-2.3-.737Zm7.884,11.543a7.708,7.708,0,0,1,2.689,1.53,7.293,7.293,0,0,1,1.828,2.44,7.067,7.067,0,0,1-1.643,8.192A7.785,7.785,0,0,1,8.28,113.9H.438V86.785H7.622a7.136,7.136,0,0,1,5.072,1.995,6.491,6.491,0,0,1,1.066,8.328,6.823,6.823,0,0,1-2.812,2.459" transform="translate(-18798 1917.749)" fill="#36a8e5"/>
    <path id="Path_45344" data-name="Path 45344" d="M24.678,86.785v1.239H19.462V113.9H16.836V88.024H11.62V86.785Z" transform="translate(-18794.072 1917.748)" fill="#36a8e5"/>
    <path id="Path_45345" data-name="Path 45345" d="M30.495,112.658a4.671,4.671,0,0,0,3.7-1.8,6.538,6.538,0,0,0,1.519-4.357,6.842,6.842,0,0,0-.7-3.079,5.759,5.759,0,0,0-1.909-2.248,4.514,4.514,0,0,0-2.606-.832H25.279v12.317ZM25.279,88.024V99.1h4.558a4.04,4.04,0,0,0,3.224-1.627A5.972,5.972,0,0,0,34.4,93.564a6.521,6.521,0,0,0-.6-2.789,4.889,4.889,0,0,0-1.663-2.014,3.969,3.969,0,0,0-2.3-.737Zm7.884,11.543a7.708,7.708,0,0,1,2.689,1.53,7.293,7.293,0,0,1,1.828,2.44,7.067,7.067,0,0,1-1.643,8.192,7.785,7.785,0,0,1-5.543,2.168H22.651V86.785h7.186a7.13,7.13,0,0,1,5.071,1.995,6.489,6.489,0,0,1,1.067,8.328,6.823,6.823,0,0,1-2.812,2.459" transform="translate(-18790.197 1917.749)" fill="#36a8e5"/>
    <path id="Path_45346" data-name="Path 45346" d="M124.544,107.693a.914.914,0,0,1,.636.659.868.868,0,0,1-.226.89,8.692,8.692,0,0,1-12.812-.135,9.878,9.878,0,0,1-2.669-6.954,10.252,10.252,0,0,1,1.232-4.977,9.51,9.51,0,0,1,3.325-3.583,8.662,8.662,0,0,1,10.923,1.433.87.87,0,0,1,.226.892.921.921,0,0,1-.678.659.893.893,0,0,1-1.108-.349,5.766,5.766,0,0,0-4.763-2.711,5.7,5.7,0,0,0-4.64,2.517,10.609,10.609,0,0,0,0,12.2,5.522,5.522,0,0,0,9.362-.155.983.983,0,0,1,1.19-.388" transform="translate(-18759.711 1919.653)" fill="#36a8e5"/>
    <path id="Path_45347" data-name="Path 45347" d="M56.921,86.785h2.628V113.9H56.921V100.96H46.491V113.9H43.863V86.785h2.628V99.721h10.43Z" transform="translate(-18782.75 1917.748)" fill="#36a8e5"/>
    <path id="Path_45348" data-name="Path 45348" d="M60.278,102.115a8.785,8.785,0,0,0,.082,1.24l12.852-3.1a9.128,9.128,0,0,0-2.279-4.822,5.45,5.45,0,0,0-4.086-1.918,5.7,5.7,0,0,0-4.64,2.517,9.7,9.7,0,0,0-1.929,6.081m13.386,4.222a1.06,1.06,0,0,1,.574,1.588,9.573,9.573,0,0,1-3.223,2.963,8.531,8.531,0,0,1-9.588-.814,9.778,9.778,0,0,1-3.285-4.9,11.393,11.393,0,0,1-.288-1.2,10.526,10.526,0,0,1,1.067-6.8A9.494,9.494,0,0,1,62.249,93.6a8.464,8.464,0,0,1,4.6-1.317,8.371,8.371,0,0,1,5.6,2.092,9.858,9.858,0,0,1,3.224,5.307,8.582,8.582,0,0,1,.247,1.2l-2.588.62-12.77,3.06a8.918,8.918,0,0,0,2.34,4.474,5.428,5.428,0,0,0,3.941,1.724,5.193,5.193,0,0,0,3.121-1.047,7.392,7.392,0,0,0,2.3-2.828,1.173,1.173,0,0,1,.6-.5,1.207,1.207,0,0,1,.8-.039" transform="translate(-18777.896 1919.654)" fill="#36a8e5"/>
    <path id="Path_45349" data-name="Path 45349" d="M79.19,92.277A8.734,8.734,0,0,1,84.26,93.73,4.173,4.173,0,0,1,86.375,97.2v14.8H83.747v-1.278a8.2,8.2,0,0,1-4.558,1.278,8.049,8.049,0,0,1-5.091-1.627A4.821,4.821,0,0,1,72,106.454a4.543,4.543,0,0,1,1.026-2.886,6.862,6.862,0,0,1,2.752-2.034l.492-.155a11.148,11.148,0,0,1,2.012-.426c.192-.026.589-.053,1.192-.078a12.386,12.386,0,0,0,1.478-.135,7.474,7.474,0,0,0,1.148-.291q1.48-.582,1.643-1.588a4.968,4.968,0,0,1-.246,1.084,2.788,2.788,0,0,1-.616.813,4.3,4.3,0,0,1-2.381,1.2,11.906,11.906,0,0,1-1.274.175,12.235,12.235,0,0,0-1.436.213,4.653,4.653,0,0,0-1.438.717,4.307,4.307,0,0,0-1.088,1.162,4.367,4.367,0,0,0-.6,1.452,4.324,4.324,0,0,0,.205,2.112,4.24,4.24,0,0,0,1.19,1.8,4.6,4.6,0,0,0,1.951,1.026,4.7,4.7,0,0,0,2.238.039,4.593,4.593,0,0,0,1.992-1.007,3.89,3.89,0,0,0,1.211-1.763,8.627,8.627,0,0,0,.33-2.788q0-1.279-.022-3.834t-.02-3.834V97.2a3.177,3.177,0,0,0-.6-1.859A3.954,3.954,0,0,0,81.489,94a5.5,5.5,0,0,0-2.3-.485,4.889,4.889,0,0,0-3.367,1.2.8.8,0,0,1-.616.213,1.117,1.117,0,0,1-.657-.252.761.761,0,0,1-.247-.735.844.844,0,0,1,.453-.62,9.3,9.3,0,0,1,4.435-1.047" transform="translate(-18772.869 1919.653)" fill="#36a8e5"/>
    <path id="Path_45350" data-name="Path 45350" d="M84.282,88.625h3.9v24.634H85.6V89.866Z" transform="translate(-18768.557 1918.387)" fill="#36a8e5"/>
    <path id="Path_45351" data-name="Path 45351" d="M106.444,94.5a7.327,7.327,0,0,1,3.943,1.123,8.077,8.077,0,0,1,2.854,3.04,8.56,8.56,0,0,1,1.047,4.164v11.388h-2.629V102.829a8.246,8.246,0,0,0-1.519-5.016,4.331,4.331,0,0,0-7.391,0,8.247,8.247,0,0,0-1.52,5.016v11.388H96.713a5.148,5.148,0,0,1-3.7-1.453A4.628,4.628,0,0,1,91.5,109.3V96.942H88.871v-1.2H91.5v-6.2h2.587v6.2h2.628v1.2H94.085V109.3a4.759,4.759,0,0,0,.349,1.82,3.363,3.363,0,0,0,.965,1.356,2.044,2.044,0,0,0,1.315.5,2.673,2.673,0,0,0,1.888-1.125V85.864h2.628V96.632a7.283,7.283,0,0,1,5.216-2.131" transform="translate(-18766.947 1917.429)" fill="#36a8e5"/>
    <path id="Path_45352" data-name="Path 45352" d="M129.333,92.277A8.734,8.734,0,0,1,134.4,93.73a4.173,4.173,0,0,1,2.115,3.465v14.8H133.89v-1.278a8.2,8.2,0,0,1-4.558,1.278,8.049,8.049,0,0,1-5.091-1.627,4.825,4.825,0,0,1-2.094-3.911,4.536,4.536,0,0,1,1.027-2.886,6.848,6.848,0,0,1,2.751-2.034l.492-.155a11.172,11.172,0,0,1,2.012-.426c.192-.026.589-.053,1.192-.078a12.387,12.387,0,0,0,1.478-.135,7.531,7.531,0,0,0,1.15-.291q1.478-.582,1.642-1.588a4.889,4.889,0,0,1-.246,1.084,2.812,2.812,0,0,1-.616.813,4.294,4.294,0,0,1-2.381,1.2,11.864,11.864,0,0,1-1.273.175,12.268,12.268,0,0,0-1.438.213,4.653,4.653,0,0,0-1.438.717,4.306,4.306,0,0,0-1.088,1.162,4.368,4.368,0,0,0-.6,1.452,4.323,4.323,0,0,0,.205,2.112,4.23,4.23,0,0,0,1.192,1.8,4.588,4.588,0,0,0,1.95,1.026,4.7,4.7,0,0,0,2.238.039,4.593,4.593,0,0,0,1.992-1.007,3.9,3.9,0,0,0,1.212-1.763,8.711,8.711,0,0,0,.328-2.788q0-1.279-.02-3.834t-.022-3.834V97.2a3.186,3.186,0,0,0-.595-1.859A3.966,3.966,0,0,0,131.632,94a5.5,5.5,0,0,0-2.3-.485,4.889,4.889,0,0,0-3.367,1.2.794.794,0,0,1-.616.213,1.117,1.117,0,0,1-.657-.252.757.757,0,0,1-.246-.735.839.839,0,0,1,.451-.62,9.312,9.312,0,0,1,4.435-1.047" transform="translate(-18755.262 1919.653)" fill="#36a8e5"/>
    <path id="Path_45353" data-name="Path 45353" d="M143.979,92.588a.681.681,0,0,1,.513.5.6.6,0,0,1-.226.659.714.714,0,0,1-.862.116,3.26,3.26,0,0,0-1.478-.349,3.415,3.415,0,0,0-2.773,1.433,5.46,5.46,0,0,0-1.128,3.486v13.557H135.4V92.278h2.629v1.239a6.524,6.524,0,0,1,3.9-1.239,6.819,6.819,0,0,1,2.052.31" transform="translate(-18750.605 1919.654)" fill="#36a8e5"/>
    <path id="Path_45354" data-name="Path 45354" d="M144.214,102.115a8.781,8.781,0,0,0,.082,1.24l12.852-3.1a9.138,9.138,0,0,0-2.279-4.822,5.45,5.45,0,0,0-4.086-1.918,5.7,5.7,0,0,0-4.64,2.517,9.7,9.7,0,0,0-1.929,6.081m13.386,4.222a1.058,1.058,0,0,1,.574,1.588,9.573,9.573,0,0,1-3.223,2.963,8.531,8.531,0,0,1-9.588-.814,9.778,9.778,0,0,1-3.285-4.9,11.4,11.4,0,0,1-.288-1.2,10.526,10.526,0,0,1,1.067-6.8,9.5,9.5,0,0,1,3.325-3.583,8.472,8.472,0,0,1,4.6-1.317,8.371,8.371,0,0,1,5.6,2.092,9.858,9.858,0,0,1,3.224,5.307,8.389,8.389,0,0,1,.246,1.2l-2.586.62-12.77,3.06a8.908,8.908,0,0,0,2.34,4.474,5.428,5.428,0,0,0,3.941,1.724,5.193,5.193,0,0,0,3.121-1.047,7.407,7.407,0,0,0,2.3-2.828,1.167,1.167,0,0,1,.595-.5,1.211,1.211,0,0,1,.8-.039" transform="translate(-18748.42 1919.654)" fill="#36a8e5"/>
    <path id="Path_45355" data-name="Path 45355" d="M41.833,61.927a3.372,3.372,0,0,0,.838.209,3.3,3.3,0,0,1,.836.207q4.315.913,8.542,2.119T60.5,67.244l5.636,2.326a32.608,32.608,0,0,1,5.372,2.824,19.681,19.681,0,0,1,2.466,1.828A12.607,12.607,0,0,1,76,76.465q.529.665.44,1.038t-.881.789a2.063,2.063,0,0,1-.7.333,18.8,18.8,0,0,1-4.316.5,34.206,34.206,0,0,1-7.485-1.411q-1.5-.416-2.951-.955t-2.95-1.205a37.585,37.585,0,0,1-6.429-3.572,33.369,33.369,0,0,1-5.46-4.734,19.23,19.23,0,0,1-1.893-2.451A20.8,20.8,0,0,1,41.833,61.927ZM79,57.94a43.228,43.228,0,0,0-.265-4.736A93.071,93.071,0,0,0,77.1,42.78a56.13,56.13,0,0,0-3.214-10.093,40.51,40.51,0,0,0-2.643-5.109,28.193,28.193,0,0,0-3.522-4.61,15.151,15.151,0,0,0-5.988-3.988,4.689,4.689,0,0,0-3.7.167,4.886,4.886,0,0,0-2.29,2.492,10.667,10.667,0,0,0-.661,1.993,15.738,15.738,0,0,0-.308,2.077,23.138,23.138,0,0,0,.177,4.943,35.013,35.013,0,0,0,1.057,4.859,59.11,59.11,0,0,0,2.994,7.851q1.761,3.778,3.963,7.517a2.934,2.934,0,0,0,.4.582,2.878,2.878,0,0,1,.4.582,4.229,4.229,0,0,0,.793,1.08,1.085,1.085,0,0,1-.661-.167,4.623,4.623,0,0,1-.4-.333q-1.5-1.162-3.082-2.159a31.651,31.651,0,0,0-3.347-1.828,34.678,34.678,0,0,0-4.226-1.579,15.467,15.467,0,0,0-4.491-.664A9.863,9.863,0,0,0,42.8,47.64a7.5,7.5,0,0,0-3.435,4.236,17.022,17.022,0,0,0-.792,2.824,9.105,9.105,0,0,0-.088,2.826,4.144,4.144,0,0,1-.089,1l-1.232-.167-1.232-.166q-2.556-.416-5.021-.789t-5.02-.54a7.753,7.753,0,0,0-1.32-.082q-.353,0-.528.5a1.23,1.23,0,0,0,1.144,1.411q1.5.331,3.039.582t3.125.5q1.761.414,3.61.748t3.612.747a.555.555,0,0,1,.616.5,7.631,7.631,0,0,1,.308.873,7.61,7.61,0,0,0,.308.871,20.927,20.927,0,0,0,2.686,4.61,34.264,34.264,0,0,0,3.655,4.03,30.222,30.222,0,0,0,5.46,4.112,57.375,57.375,0,0,0,6.164,3.115q1.234.5,2.466.955T62.7,81.2a25.771,25.771,0,0,0,3.214.788q1.63.291,3.3.458a9.466,9.466,0,0,0,2.333.04q1.1-.123,2.246-.29a6.7,6.7,0,0,0,2.115-.665,3.981,3.981,0,0,0,2.07-1.828,3.915,3.915,0,0,0,.043-2.907,6.351,6.351,0,0,0-.836-1.869,17.718,17.718,0,0,0-1.277-1.7,15.854,15.854,0,0,0-1.85-1.786A24.731,24.731,0,0,0,71.952,69.9a47.791,47.791,0,0,0-8.983-4.57q-1.5-.665-3.083-1.2t-3.17-1.122q-3.786-1.247-7.926-2.243-1.761-.416-3.566-.789t-3.655-.789a.882.882,0,0,1-.705-.748,8.238,8.238,0,0,1,1.321-5.316,4.842,4.842,0,0,1,1.85-1.786,10.229,10.229,0,0,1,2.554-.956,9.52,9.52,0,0,1,2.509-.166q1.279.083,2.51.249a24.477,24.477,0,0,1,6.649,2.2A46.452,46.452,0,0,1,64.114,56.2q2.906,2.16,5.548,4.485a3.143,3.143,0,0,1,.308.333,3.442,3.442,0,0,0,.308.333.679.679,0,0,0,.705.249.39.39,0,0,0,.263-.582q-.087-.665-.219-1.329a3.756,3.756,0,0,0-.573-1.329q-1.321-2.16-2.6-4.319T65.17,49.716a37.622,37.622,0,0,1-2.6-4.736q-1.1-2.408-2.158-4.9-.794-2.077-1.5-4.194a37.062,37.062,0,0,1-1.146-4.279,21.576,21.576,0,0,1-.44-3.239,9.7,9.7,0,0,1,.353-3.157,3.676,3.676,0,0,1,1.057-1.91,2.518,2.518,0,0,1,2.378-.749,5.072,5.072,0,0,1,1.542.416,13.931,13.931,0,0,1,1.453.748A10.747,10.747,0,0,1,66.887,26q1.19,1.37,2.246,2.783A22.9,22.9,0,0,1,71.6,33.1q.969,2.245,1.762,4.57.969,3.073,1.628,6.147t1.189,6.229a36.3,36.3,0,0,1,.616,4.321l.353,4.319q.176,1.746.22,3.488t.132,3.49q.087.913.088,1.7v1.7a2.431,2.431,0,0,0,.045.415.648.648,0,0,1-.132.5,1.108,1.108,0,0,0,.088.5q.176.333.308.624a.721.721,0,0,0,.573.373.661.661,0,0,0,.616-.291,2.394,2.394,0,0,0,.265-.622,16.427,16.427,0,0,0,.924-3.032q.308-1.537.573-3.115.44-2.243.661-4.486t.4-4.485q.176-2.576.263-5.15t0-5.15q-.174-3.657-.4-7.227a65.972,65.972,0,0,0-.836-7.145q-.353-1.909-.661-3.863t-.749-3.861q-.263-.915-.573-1.746a6.812,6.812,0,0,0-.836-1.577,3.558,3.558,0,0,0-.7-.831q-.705-.5-.969.249a3.383,3.383,0,0,0,0,2.408,9.352,9.352,0,0,1,.881,2.368q.263,1.2.528,2.451.88,4.485,1.32,9.137.176,1.412.22,2.783t.22,2.783q.176,2.245.132,4.445T79.7,49.882a28.966,28.966,0,0,1-.088,3.9q-.176,1.994-.351,3.9C79.262,57.8,79.172,57.885,79,57.94Z" transform="translate(-18789.713 1894.128)" fill="none" stroke="#30bba9" stroke-width="1"/>
    <path id="Path_45356" data-name="Path 45356" d="M41.833,61.927a3.358,3.358,0,0,0,.838.209,3.313,3.313,0,0,1,.836.207q4.315.913,8.542,2.119T60.5,67.244l5.636,2.326a32.608,32.608,0,0,1,5.372,2.824,19.681,19.681,0,0,1,2.466,1.828A12.607,12.607,0,0,1,76,76.465q.527.665.44,1.038t-.881.789a2.069,2.069,0,0,1-.705.333,18.776,18.776,0,0,1-4.314.5,34.206,34.206,0,0,1-7.485-1.411q-1.5-.416-2.951-.955t-2.95-1.205a37.534,37.534,0,0,1-6.429-3.572,33.369,33.369,0,0,1-5.46-4.734,19.23,19.23,0,0,1-1.893-2.451,20.8,20.8,0,0,1-1.542-2.866M79,57.94a43.564,43.564,0,0,0-.265-4.736A92.763,92.763,0,0,0,77.1,42.78a56.125,56.125,0,0,0-3.213-10.093,40.51,40.51,0,0,0-2.643-5.109,28.268,28.268,0,0,0-3.522-4.61,15.151,15.151,0,0,0-5.988-3.988,4.689,4.689,0,0,0-3.7.167,4.886,4.886,0,0,0-2.29,2.492,10.667,10.667,0,0,0-.661,1.993,15.738,15.738,0,0,0-.308,2.077,23.138,23.138,0,0,0,.177,4.943,34.817,34.817,0,0,0,1.057,4.859A59.292,59.292,0,0,0,59,43.362q1.763,3.778,3.964,7.517a2.934,2.934,0,0,0,.4.582,2.935,2.935,0,0,1,.4.582,4.229,4.229,0,0,0,.793,1.08,1.085,1.085,0,0,1-.661-.167,4.423,4.423,0,0,1-.4-.333q-1.5-1.162-3.082-2.159a31.651,31.651,0,0,0-3.347-1.828,34.678,34.678,0,0,0-4.226-1.579,15.469,15.469,0,0,0-4.493-.664A9.861,9.861,0,0,0,42.8,47.64a7.5,7.5,0,0,0-3.435,4.236,17.022,17.022,0,0,0-.792,2.824,9.105,9.105,0,0,0-.088,2.826,4.144,4.144,0,0,1-.089,1l-1.232-.167-1.232-.166q-2.556-.416-5.021-.789t-5.02-.54a7.753,7.753,0,0,0-1.32-.082q-.353,0-.528.5a1.23,1.23,0,0,0,1.144,1.411q1.5.331,3.039.582t3.125.5q1.761.414,3.61.748t3.612.747a.555.555,0,0,1,.616.5,7.631,7.631,0,0,1,.308.873,7.61,7.61,0,0,0,.308.871,20.927,20.927,0,0,0,2.686,4.61,34.264,34.264,0,0,0,3.655,4.03,30.222,30.222,0,0,0,5.46,4.112,57.248,57.248,0,0,0,6.164,3.115q1.234.5,2.466.955T62.7,81.2a25.771,25.771,0,0,0,3.214.788q1.63.291,3.3.458a9.465,9.465,0,0,0,2.333.04q1.1-.123,2.246-.29a6.685,6.685,0,0,0,2.113-.665A3.979,3.979,0,0,0,77.985,79.7a3.915,3.915,0,0,0,.043-2.907,6.355,6.355,0,0,0-.838-1.869,17.279,17.279,0,0,0-1.277-1.7,15.738,15.738,0,0,0-1.848-1.786A24.731,24.731,0,0,0,71.952,69.9a47.791,47.791,0,0,0-8.983-4.57q-1.5-.665-3.082-1.2t-3.171-1.122q-3.786-1.247-7.926-2.243-1.761-.416-3.566-.789t-3.655-.789a.882.882,0,0,1-.705-.748,8.238,8.238,0,0,1,1.321-5.316,4.842,4.842,0,0,1,1.85-1.786,10.229,10.229,0,0,1,2.554-.956,9.52,9.52,0,0,1,2.509-.166q1.279.083,2.51.249a24.477,24.477,0,0,1,6.649,2.2A46.452,46.452,0,0,1,64.114,56.2q2.906,2.16,5.548,4.485a3.143,3.143,0,0,1,.308.333,3.442,3.442,0,0,0,.308.333.679.679,0,0,0,.705.249.39.39,0,0,0,.263-.582q-.087-.665-.22-1.329a3.728,3.728,0,0,0-.572-1.329q-1.321-2.16-2.6-4.319T65.17,49.716a37.805,37.805,0,0,1-2.6-4.736q-1.1-2.408-2.156-4.9-.792-2.077-1.5-4.194a37.062,37.062,0,0,1-1.146-4.279,21.4,21.4,0,0,1-.44-3.239,9.7,9.7,0,0,1,.353-3.157,3.666,3.666,0,0,1,1.057-1.91,2.518,2.518,0,0,1,2.378-.749,5.072,5.072,0,0,1,1.542.416,14.068,14.068,0,0,1,1.453.748A10.747,10.747,0,0,1,66.887,26q1.188,1.37,2.246,2.783A22.9,22.9,0,0,1,71.6,33.1q.969,2.245,1.761,4.57.969,3.073,1.63,6.147t1.189,6.229a36.585,36.585,0,0,1,.616,4.321l.353,4.319q.176,1.746.22,3.488t.132,3.49q.087.913.088,1.7v1.7a2.554,2.554,0,0,0,.043.415.646.646,0,0,1-.131.5,1.09,1.09,0,0,0,.088.5q.176.333.308.624a.718.718,0,0,0,.573.373.661.661,0,0,0,.616-.291,2.345,2.345,0,0,0,.263-.622,16.329,16.329,0,0,0,.926-3.032q.308-1.537.572-3.115.442-2.243.661-4.486t.4-4.485q.174-2.576.263-5.15t0-5.15q-.174-3.657-.4-7.227a65.972,65.972,0,0,0-.836-7.145q-.353-1.909-.661-3.863t-.749-3.861q-.266-.915-.573-1.746a6.812,6.812,0,0,0-.836-1.577,3.571,3.571,0,0,0-.705-.831q-.7-.5-.967.249a3.369,3.369,0,0,0,0,2.408,9.352,9.352,0,0,1,.881,2.368q.263,1.2.527,2.451.882,4.485,1.321,9.137.176,1.412.22,2.783t.22,2.783q.176,2.245.132,4.445T79.7,49.882a28.966,28.966,0,0,1-.088,3.9q-.176,1.994-.351,3.9c0,.11-.089.194-.265.249" transform="translate(-18789.713 1894.128)" fill="#30bba9"/>
    <path id="Path_45357" data-name="Path 45357" d="M81.355,27.872a.835.835,0,0,1,.315-.1h.011a4.122,4.122,0,0,1,.926-.1c.915,0,1.655.257,1.655.572s-.74.571-1.655.571-1.655-.256-1.655-.571c0-.143.153-.273.4-.374M91.819,58.626V47.762c.745.2,1.763,1.63,2.179,2.322,2.173,3.624,1.313,6.21-2.179,8.542m-6.765-4.494a7.093,7.093,0,0,1,3.006-6.182c0,3.724.188,6.905.188,10.489a5.519,5.519,0,0,1-3.194-4.307m6.388,22.851-.005-6.375c0-1.026.176-1.244.195-2.054,2.827,1.887,3.655,5.861-.189,8.429m-5.449-3.56V72.3a4.3,4.3,0,0,1,2.443-3.558v8.054c-.712-.477-2.443-2.267-2.443-3.373m5.13,16.961.112-3.989a3,3,0,0,1-.112,3.989M73.589,0h2.119A7.978,7.978,0,0,1,82.05,3.557c1.235,2.129.069,5.4-1.807,6.82-2.84,2.146,1.036,4.31,1.992,5.731A15.764,15.764,0,0,1,86,15.739c2.238.05,1.693-.156,1.685-2.44,0-1.29.084-2.859-.008-4.112-.162-2.2-.435-1.51-1.236-2.889-2.706-4.664,4.857-8.684,7.208-3.44a4.049,4.049,0,0,1-.234,3.417c-.83,1.452-1.254.677-1.227,2.9.074,6.1-.873,6.621,1.692,6.567,3.577-.074,3.583,1.007,5.944-1.953.722-.905,1.235-1.677.353-2.823-.6-.784-1.361-1.16-1.9-2.047a5.217,5.217,0,0,1,.109-6.111,7.8,7.8,0,0,1,5.5-2.758c.139-.018.278-.034.413-.047h2.163a12.082,12.082,0,0,1,4.271,1.37A54.22,54.22,0,0,1,118.394,6.1l4.956,3.3a98.073,98.073,0,0,0,10.624,5.894,14.218,14.218,0,0,0,2.752,1.188v.374c-1.407.327-3.424,1.88-7.49.349-4.127-1.553-7.814-4.16-11.451-6.567a28.18,28.18,0,0,1-2.613-1.89c-.722-.609-1.523-1.984-2.309-2.194a4.888,4.888,0,0,0-.376,1.125,3.048,3.048,0,0,0,.938.937L116.294,11a47.94,47.94,0,0,0,3.976,2.966c2.246,1.628,6.617,4.147,9.5,4.387-.405,1.511-3.318,2-5.051,1.669-3.781-.727-10.819-6.7-13.364-8.037a8.043,8.043,0,0,1-.563.936c.98.653,2.048,1.529,3.006,2.248,2.02,1.515,4.2,2.851,6.352,4.156.926.562,2.739.888,3.044,2.024-4.424,1.028-5.089.478-8.823-1.883-1.132-.715-2.321-1.779-3.391-2.613-1.52-1.183-2.112-2.356-3.382-1.685.123.166,1.725,1.658,2.021,1.918a33.7,33.7,0,0,0,4.329,3.552c.812.505,2.011.7,2.105,1.834a7.036,7.036,0,0,1-4.252-.07c-2.348-.682-4.094-2.795-5.578-4.554-.78-.925-1.466-2.461-2.571-1.931.438.6.809.341.665,1.386a5.748,5.748,0,0,1-2.465,4.125c-2.979,2.049-3.771,1.484-7.081,1.418a2.879,2.879,0,0,0-1.459-.154c-.749,0-1.074-.179-1.231.376-.1.347-.136,2.81-.149,3.337l.07,13.11c1.834-.152,5.461-2.117,6.713-3.047,2.669-1.983,2.941-3.576,2.682-6.693-1.219.325-1.54,2.084-4.691,1.305a4.464,4.464,0,0,1-2.774-1.941c-.578-1.076-.058-1.036-.051-1.051.174-.481-.034-.312.678-.634,3.1-1.4,9.593-.148,10.314,5.8A6.157,6.157,0,0,1,104,36.869c-2.024,3.346-3.8,4.268-7.485,6.21.727.99,2.215,1.172,4.174,4.081,1.475,2.19,1.635,3.1,1.652,6.6a9.294,9.294,0,0,1-3.056,7.255A18.356,18.356,0,0,1,96.14,63.87c.45.671,1.021,1.038,1.586,1.79,2.852,3.787,3.258,9.382.823,12.974a12.274,12.274,0,0,1-3.536,3.216,10.589,10.589,0,0,1,1.831,2.858,7.845,7.845,0,0,1,.32,4.158c-.453,2.144-2.683,4.75-4.218,5.16V94.4c.847.225,2.061,1.556,2.682,2.2a6.089,6.089,0,0,1-.992,9.416c.353-1.506,1.146-4.5.157-6.148-.68-1.134-2.356-3.088-3.914-3.216,0,3.238-.2,5.833-.185,8.993.011,1.992-.566,6.728-.566,8.426h-.376c0-1.337-.343-2.987-.382-4.3-.041-1.383-.186-3.006-.188-4.307,0-3.012-.181-5.646-.181-8.81-1.35.312-3.12,2.2-3.7,3.426-1.123,2.365.085,3.817.132,5.938-1.48-.987-3.182-4.078-2.59-6.513.528-2.178,2-3.165,3.108-4.209a6.844,6.844,0,0,0,1.174-1.077c-.466-.634-3.355-1.984-4.128-5.44-.876-3.922,1.839-6.093,2.061-6.923-.357-.485-2.531-1.864-3.65-3.479a17.1,17.1,0,0,1-1.3-2.261c-1.4-2.71-.57-6.208.624-8.5.88-1.688,2.282-2.376,3.2-3.742-1.174-1.748-6.2-4.092-6.207-10.3-.007-4.624,1.708-7.146,4.866-9.583.469-.362.819-.451,1.154-.909A27.543,27.543,0,0,1,80.7,41.422c-4.325-3.014-7.976-7.472-3.337-12.374,1.993-2.105,7.65-3.059,9.191-.766-.539,2.3-3.64,3.667-5.892,2.69-1.017-.442-1.015-.979-1.812-1.191-.484,1-.082,3.339.316,4.181a8.861,8.861,0,0,0,2.2,2.488,21.839,21.839,0,0,0,6.5,3.071l.058-11.987c-.054-1.325-.028-2.64-.065-3.948-.027-.968.031-.919-.913-.944-.551-.015-1.462-.1-1.819.209-1.666.119-2.151.465-3.918.084a7.193,7.193,0,0,1-5.159-3.849c-.947-2.366-.455-2.318.168-3.164-.861-.412-1.128.079-1.561.692a18.444,18.444,0,0,1-3.59,3.914,10.6,10.6,0,0,1-3.151,1.915,6.089,6.089,0,0,1-4.1.034c.063-.769.361-.849.9-1.166,3.889-2.306,2.916-2.273,5.6-4.345.586-.451,1.794-1.366,1.959-1.981-1.007-.084-.378-.357-1.086.039-1.686.941-5.955,5.453-9.551,6.59-1.861.589-3.314.121-4.959-.26.215-.8.677-.813,1.442-1.185.713-.347.988-.583,1.689-.939,4.3-2.171,6.088-4.181,9.272-6.3a8.238,8.238,0,0,1-.565-.936,17.518,17.518,0,0,0-2.12,1.445l-5.357,3.65c-1.924,1.2-3.425,2.427-5.875,2.95-1.762.376-4.657-.167-5.061-1.677,6.373-1.48,10.647-5.109,15.434-8.963.667-.536,1.109-1.029,1.852-1.526a6.938,6.938,0,0,0-.376-1.312c-.792.211-.712.494-1.184,1.069-2.311,2.814-8.892,6.185-12.121,8.146a11.922,11.922,0,0,1-7,2.032c-1.432-.016-2.319-.656-3.563-.945v-.374a15.864,15.864,0,0,0,3.574-1.5c3.213-1.579,6.35-3.412,9.356-5.284C60.593,6.892,66.645,1.964,71.4.439A10.368,10.368,0,0,1,73.589,0m24.32,27.674c.915,0,1.657.257,1.657.572s-.742.571-1.657.571-1.655-.256-1.655-.571.742-.572,1.655-.572m-9.247,59.34.074,2.628c-.158-.167-.463.132-.486-1.235A3.721,3.721,0,0,1,88.3,87.7Z" transform="translate(-18783 1887.647)" fill="#36a8e5" fill-rule="evenodd"/>
    <path id="Path_45358" data-name="Path 45358" d="M128.843,61.927a3.372,3.372,0,0,1-.838.209,3.286,3.286,0,0,0-.836.207q-4.315.913-8.542,2.119t-8.454,2.783l-5.637,2.326a32.65,32.65,0,0,0-5.371,2.824A19.681,19.681,0,0,0,96.7,74.222a12.607,12.607,0,0,0-2.025,2.243q-.529.665-.44,1.038c.059.249.351.512.881.789a2.052,2.052,0,0,0,.7.333,18.8,18.8,0,0,0,4.316.5,34.206,34.206,0,0,0,7.485-1.411q1.5-.416,2.951-.955t2.95-1.205a37.585,37.585,0,0,0,6.429-3.572,33.37,33.37,0,0,0,5.46-4.734,19.227,19.227,0,0,0,1.893-2.451A20.8,20.8,0,0,0,128.843,61.927ZM91.679,57.94a43.228,43.228,0,0,1,.265-4.736A93.073,93.073,0,0,1,93.572,42.78a56.129,56.129,0,0,1,3.214-10.093,40.51,40.51,0,0,1,2.643-5.109,28.193,28.193,0,0,1,3.522-4.61,15.151,15.151,0,0,1,5.988-3.988,4.689,4.689,0,0,1,3.7.167,4.886,4.886,0,0,1,2.29,2.492,10.667,10.667,0,0,1,.661,1.993,15.738,15.738,0,0,1,.308,2.077,23.139,23.139,0,0,1-.177,4.943,35.013,35.013,0,0,1-1.057,4.859,59.11,59.11,0,0,1-2.994,7.851q-1.761,3.778-3.963,7.517a2.935,2.935,0,0,1-.4.582,2.879,2.879,0,0,0-.4.582,4.229,4.229,0,0,1-.793,1.08,1.085,1.085,0,0,0,.661-.167,4.622,4.622,0,0,0,.4-.333q1.5-1.162,3.082-2.159a31.65,31.65,0,0,1,3.347-1.828,34.678,34.678,0,0,1,4.226-1.579,15.469,15.469,0,0,1,4.493-.664,9.861,9.861,0,0,1,5.548,1.246,7.5,7.5,0,0,1,3.433,4.236A16.9,16.9,0,0,1,132.1,54.7a9.146,9.146,0,0,1,.088,2.826,4.229,4.229,0,0,0,.088,1l1.234-.167,1.232-.166q2.556-.416,5.021-.789t5.02-.54a7.753,7.753,0,0,1,1.32-.082q.353,0,.528.5a1.23,1.23,0,0,1-1.144,1.411q-1.5.331-3.039.582t-3.125.5q-1.761.414-3.612.748t-3.61.747a.555.555,0,0,0-.616.5,7.629,7.629,0,0,0-.308.873,7.613,7.613,0,0,1-.308.871,20.981,20.981,0,0,1-2.686,4.61,34.265,34.265,0,0,1-3.655,4.03,30.221,30.221,0,0,1-5.46,4.112,57.374,57.374,0,0,1-6.164,3.115q-1.234.5-2.466.955t-2.466.873a25.77,25.77,0,0,1-3.214.788q-1.63.291-3.3.458a9.454,9.454,0,0,1-2.332.04q-1.1-.123-2.247-.29a6.7,6.7,0,0,1-2.113-.665,3.98,3.98,0,0,1-2.07-1.828,3.914,3.914,0,0,1-.043-2.907,6.352,6.352,0,0,1,.836-1.869,17.717,17.717,0,0,1,1.277-1.7,15.747,15.747,0,0,1,1.85-1.786A24.732,24.732,0,0,1,98.724,69.9a47.791,47.791,0,0,1,8.983-4.57q1.5-.665,3.083-1.2t3.17-1.122q3.786-1.247,7.925-2.243,1.763-.416,3.567-.789t3.655-.789a.882.882,0,0,0,.705-.748,8.238,8.238,0,0,0-1.321-5.316,4.843,4.843,0,0,0-1.85-1.786,10.229,10.229,0,0,0-2.554-.956,9.52,9.52,0,0,0-2.509-.166q-1.279.083-2.51.249a24.476,24.476,0,0,0-6.649,2.2,46.451,46.451,0,0,0-5.856,3.531q-2.906,2.16-5.548,4.485a3.31,3.31,0,0,0-.309.333,3.26,3.26,0,0,1-.307.333.679.679,0,0,1-.705.249.39.39,0,0,1-.263-.582q.087-.665.219-1.329a3.756,3.756,0,0,1,.573-1.329q1.321-2.16,2.6-4.319t2.686-4.319a37.618,37.618,0,0,0,2.6-4.736q1.1-2.408,2.158-4.9.794-2.077,1.5-4.194a37.061,37.061,0,0,0,1.146-4.279,21.574,21.574,0,0,0,.44-3.239,9.7,9.7,0,0,0-.353-3.157,3.668,3.668,0,0,0-1.058-1.91,2.514,2.514,0,0,0-2.377-.749,5.072,5.072,0,0,0-1.542.416,13.933,13.933,0,0,0-1.453.748A10.747,10.747,0,0,0,103.789,26q-1.19,1.37-2.246,2.783A22.906,22.906,0,0,0,99.077,33.1q-.969,2.245-1.762,4.57-.969,3.073-1.628,6.147T94.5,50.048a36.3,36.3,0,0,0-.616,4.321l-.353,4.319q-.176,1.746-.22,3.488t-.132,3.49q-.087.913-.088,1.7v1.7a2.43,2.43,0,0,1-.045.415.648.648,0,0,0,.132.5,1.108,1.108,0,0,1-.088.5q-.176.333-.309.624a.716.716,0,0,1-.572.373.661.661,0,0,1-.616-.291,2.394,2.394,0,0,1-.265-.622,16.429,16.429,0,0,1-.924-3.032Q90.095,66,89.83,64.42q-.44-2.243-.661-4.486t-.4-4.485q-.176-2.576-.263-5.15t0-5.15q.174-3.657.4-7.227a65.965,65.965,0,0,1,.836-7.145q.353-1.909.661-3.863t.749-3.861q.263-.915.573-1.746a6.812,6.812,0,0,1,.836-1.577,3.558,3.558,0,0,1,.7-.831q.705-.5.969.249a3.384,3.384,0,0,1,0,2.408,9.352,9.352,0,0,0-.881,2.368q-.263,1.2-.528,2.451-.88,4.485-1.321,9.137-.174,1.412-.219,2.783t-.22,2.783q-.176,2.245-.132,4.445t.045,4.361a28.966,28.966,0,0,0,.088,3.9q.176,1.994.351,3.9C91.415,57.8,91.5,57.885,91.679,57.94Z" transform="translate(-18767.09 1894.128)" fill="none" stroke="#30bba9" stroke-width="1"/>
    <path id="Path_45359" data-name="Path 45359" d="M128.843,61.927a3.358,3.358,0,0,1-.838.209,3.3,3.3,0,0,0-.836.207q-4.315.913-8.542,2.119t-8.454,2.783l-5.636,2.326a32.608,32.608,0,0,0-5.372,2.824A19.681,19.681,0,0,0,96.7,74.222a12.659,12.659,0,0,0-2.025,2.243q-.529.665-.44,1.038t.881.789a2.063,2.063,0,0,0,.7.333,18.8,18.8,0,0,0,4.316.5,34.192,34.192,0,0,0,7.485-1.411q1.5-.416,2.951-.955t2.95-1.205a37.534,37.534,0,0,0,6.429-3.572,33.37,33.37,0,0,0,5.46-4.734,19.106,19.106,0,0,0,1.893-2.451,20.8,20.8,0,0,0,1.542-2.866M91.679,57.94a43.228,43.228,0,0,1,.265-4.736,92.767,92.767,0,0,1,1.63-10.425,56.017,56.017,0,0,1,3.213-10.093,40.51,40.51,0,0,1,2.643-5.109,28.269,28.269,0,0,1,3.522-4.61,15.151,15.151,0,0,1,5.988-3.988,4.689,4.689,0,0,1,3.7.167,4.886,4.886,0,0,1,2.29,2.492,10.667,10.667,0,0,1,.661,1.993,15.738,15.738,0,0,1,.308,2.077,23.139,23.139,0,0,1-.177,4.943,35.013,35.013,0,0,1-1.057,4.859,59.11,59.11,0,0,1-2.994,7.851q-1.761,3.778-3.963,7.517a2.935,2.935,0,0,1-.4.582,2.935,2.935,0,0,0-.4.582,4.229,4.229,0,0,1-.793,1.08,1.085,1.085,0,0,0,.661-.167,4.422,4.422,0,0,0,.4-.333q1.5-1.162,3.082-2.159a31.65,31.65,0,0,1,3.347-1.828,34.531,34.531,0,0,1,4.228-1.579,15.451,15.451,0,0,1,4.49-.664,9.863,9.863,0,0,1,5.549,1.246,7.5,7.5,0,0,1,3.435,4.236A17.025,17.025,0,0,1,132.1,54.7a9.146,9.146,0,0,1,.088,2.826,4.229,4.229,0,0,0,.088,1l1.234-.167,1.232-.166q2.556-.416,5.021-.789t5.018-.54a7.782,7.782,0,0,1,1.321-.082q.353,0,.528.5a1.23,1.23,0,0,1-1.144,1.411q-1.5.331-3.039.582t-3.125.5q-1.761.414-3.61.748t-3.612.747a.555.555,0,0,0-.616.5,7.629,7.629,0,0,0-.308.873,7.613,7.613,0,0,1-.308.871,20.928,20.928,0,0,1-2.686,4.61,34.265,34.265,0,0,1-3.655,4.03,30.221,30.221,0,0,1-5.46,4.112,57.248,57.248,0,0,1-6.164,3.115q-1.234.5-2.466.955t-2.466.873a25.77,25.77,0,0,1-3.214.788q-1.63.291-3.3.458a9.466,9.466,0,0,1-2.333.04q-1.1-.123-2.246-.29a6.7,6.7,0,0,1-2.115-.665A3.972,3.972,0,0,1,92.693,79.7a3.914,3.914,0,0,1-.045-2.907,6.386,6.386,0,0,1,.836-1.869,17.717,17.717,0,0,1,1.277-1.7,15.854,15.854,0,0,1,1.85-1.786A24.732,24.732,0,0,1,98.724,69.9a47.791,47.791,0,0,1,8.983-4.57q1.5-.665,3.083-1.2t3.17-1.122q3.786-1.247,7.926-2.243,1.761-.416,3.566-.789t3.655-.789a.882.882,0,0,0,.705-.748,8.238,8.238,0,0,0-1.321-5.316,4.843,4.843,0,0,0-1.85-1.786,10.229,10.229,0,0,0-2.554-.956,9.52,9.52,0,0,0-2.509-.166q-1.279.083-2.51.249a24.476,24.476,0,0,0-6.649,2.2,46.451,46.451,0,0,0-5.856,3.531q-2.906,2.16-5.548,4.485a3.31,3.31,0,0,0-.309.333,3.111,3.111,0,0,1-.307.333.679.679,0,0,1-.705.249.39.39,0,0,1-.263-.582q.087-.665.219-1.329a3.756,3.756,0,0,1,.573-1.329q1.321-2.16,2.6-4.319t2.686-4.319a37.618,37.618,0,0,0,2.6-4.736q1.1-2.408,2.158-4.9.794-2.077,1.5-4.194a37.061,37.061,0,0,0,1.146-4.279,21.574,21.574,0,0,0,.44-3.239,9.7,9.7,0,0,0-.353-3.157,3.666,3.666,0,0,0-1.057-1.91,2.518,2.518,0,0,0-2.378-.749,5.072,5.072,0,0,0-1.542.416,13.933,13.933,0,0,0-1.453.748A10.77,10.77,0,0,0,103.789,26q-1.19,1.37-2.246,2.783A22.906,22.906,0,0,0,99.077,33.1q-.969,2.245-1.761,4.57-.969,3.073-1.63,6.147T94.5,50.048a36.3,36.3,0,0,0-.616,4.321l-.353,4.319q-.176,1.746-.22,3.488t-.132,3.49q-.087.913-.088,1.7v1.7a2.43,2.43,0,0,1-.045.415.653.653,0,0,0,.132.5,1.09,1.09,0,0,1-.088.5q-.176.333-.308.624a.718.718,0,0,1-.573.373.661.661,0,0,1-.616-.291,2.344,2.344,0,0,1-.263-.622,16.329,16.329,0,0,1-.926-3.032Q90.095,66,89.831,64.42q-.442-2.243-.661-4.486t-.4-4.485q-.176-2.576-.263-5.15t0-5.15q.176-3.657.4-7.227a65.965,65.965,0,0,1,.836-7.145q.353-1.909.661-3.863t.749-3.861c.177-.61.366-1.192.573-1.746a6.812,6.812,0,0,1,.836-1.577,3.592,3.592,0,0,1,.7-.831q.705-.5.969.249a3.384,3.384,0,0,1,0,2.408,9.3,9.3,0,0,0-.88,2.368q-.265,1.2-.528,2.451-.882,4.485-1.321,9.137-.176,1.412-.22,2.783t-.22,2.783q-.176,2.245-.132,4.445t.045,4.361a28.966,28.966,0,0,0,.088,3.9q.176,1.994.351,3.9c0,.11.089.194.265.249" transform="translate(-18767.09 1894.128)" fill="#30bba9"/>
  </g>
</svg>
