<svg xmlns="http://www.w3.org/2000/svg" width="21.645" height="17.58" viewBox="0 0 21.645 17.58">
  <path id="Icon_awesome-twitter" data-name="Icon awesome-twitter" d="M19.42,7.762c.014.192.014.385.014.577A12.535,12.535,0,0,1,6.812,20.961,12.536,12.536,0,0,1,0,18.969a9.178,9.178,0,0,0,1.071.055,8.884,8.884,0,0,0,5.507-1.9,4.444,4.444,0,0,1-4.148-3.077,5.594,5.594,0,0,0,.838.069,4.692,4.692,0,0,0,1.167-.151A4.437,4.437,0,0,1,.879,9.616V9.561a4.468,4.468,0,0,0,2.005.563A4.443,4.443,0,0,1,1.511,4.191a12.61,12.61,0,0,0,9.147,4.642,5.008,5.008,0,0,1-.11-1.016,4.44,4.44,0,0,1,7.678-3.035A8.734,8.734,0,0,0,21.041,3.71a4.424,4.424,0,0,1-1.95,2.445,8.893,8.893,0,0,0,2.555-.687A9.536,9.536,0,0,1,19.42,7.762Z" transform="translate(0 -3.381)" fill="#333"/>
</svg>
