<svg xmlns="http://www.w3.org/2000/svg" xmlns:xlink="http://www.w3.org/1999/xlink" width="1920" height="877" viewBox="0 0 1920 877">
  <defs>
    <linearGradient id="linear-gradient" x1="0.5" y1="0.174" x2="0.5" y2="0.883" gradientUnits="objectBoundingBox">
      <stop offset="0" stop-color="#fff"/>
      <stop offset="1" stop-color="#bcd2e8" stop-opacity="0.6"/>
    </linearGradient>
    <clipPath id="clip-path">
      <rect id="Rectangle_4308" data-name="Rectangle 4308" width="1920" height="877" transform="translate(0 1129)" fill="url(#linear-gradient)"/>
    </clipPath>
  </defs>
  <g id="Mask_Group_289" data-name="Mask Group 289" transform="translate(0 -1129)" clip-path="url(#clip-path)">
    <g id="Group_9958" data-name="Group 9958" transform="translate(198 1137)" opacity="0.2">
      <path id="Path_45327" data-name="Path 45327" d="M632.991,487.868a462.182,462.182,0,0,0-2.765-49.994,991.361,991.361,0,0,0-17.1-110.055,595.069,595.069,0,0,0-33.736-106.557,428.6,428.6,0,0,0-27.738-53.933,297.448,297.448,0,0,0-36.969-48.672,158.954,158.954,0,0,0-62.849-42.1q-22.186-7.017-38.813,1.749a51.5,51.5,0,0,0-24.036,26.32,112,112,0,0,0-6.92,21.044,162.393,162.393,0,0,0-3.233,21.926,244.809,244.809,0,0,0,1.843,52.184,369.864,369.864,0,0,0,11.089,51.3,626.106,626.106,0,0,0,31.425,82.868q18.484,39.906,41.592,79.371a32.045,32.045,0,0,0,4.155,6.143A31.047,31.047,0,0,1,473.1,425.6q1.829,4.372,8.31,11.39-4.616,0-6.934-1.749a51.28,51.28,0,0,1-4.155-3.512q-15.719-12.263-32.346-22.793a331.61,331.61,0,0,0-35.126-19.3,361.746,361.746,0,0,0-44.357-16.665,161.473,161.473,0,0,0-47.151-7.01q-32.332-1.77-58.226,13.153-25.866,14.887-36.047,44.719a180.118,180.118,0,0,0-8.31,29.818,97.1,97.1,0,0,0-.922,29.831A44.68,44.68,0,0,1,206.915,494c-4.311-.583-8.636-1.166-12.933-1.749q-6.488-.875-12.947-1.749-26.8-4.394-52.682-8.332t-52.7-5.7a80.45,80.45,0,0,0-13.855-.882c-2.467,0-4.311,1.763-5.545,5.261q-.915,12.285,12.011,14.916,15.719,3.5,31.893,6.128t32.8,5.276q18.485,4.372,37.905,7.891,19.4,3.5,37.891,7.892,5.551,0,6.48,5.261a87.619,87.619,0,0,1,3.233,9.2,78.118,78.118,0,0,0,3.233,9.213A220.859,220.859,0,0,0,249.9,595.307a358.3,358.3,0,0,0,38.345,42.515,316.045,316.045,0,0,0,57.3,43.41,597.218,597.218,0,0,0,64.707,32.9q12.932,5.247,25.88,10.081t25.866,9.2a265.484,265.484,0,0,0,33.736,8.332q17.1,3.072,34.658,4.82a100.33,100.33,0,0,0,24.5.455q11.55-1.344,23.554-3.085a70.027,70.027,0,0,0,22.193-7q15.72-7.039,21.725-19.309t.454-30.685a67.324,67.324,0,0,0-8.778-19.75,184.891,184.891,0,0,0-13.4-17.959,164.593,164.593,0,0,0-19.413-18.854,254.444,254.444,0,0,0-22.179-16.224,500.479,500.479,0,0,0-94.274-48.245Q449.059,558.9,432.432,553.2q-16.655-5.716-33.282-11.844-39.734-13.16-83.17-23.675-18.484-4.393-37.437-8.332t-38.359-8.332c-3.7-.6-6.154-3.213-7.4-7.892q-2.765-29.817,13.869-56.137a51.163,51.163,0,0,1,19.414-18.855,106.933,106.933,0,0,1,26.8-10.081,98.885,98.885,0,0,1,26.348-1.749q13.4.874,26.333,2.63a255.845,255.845,0,0,1,69.784,23.234,485.769,485.769,0,0,1,61.459,37.268q30.5,22.821,58.226,47.363a31.78,31.78,0,0,1,3.233,3.512,34.607,34.607,0,0,0,3.233,3.5,7.086,7.086,0,0,0,7.4,2.63c3.077-1.166,4.013-3.214,2.765-6.128q-.915-7.017-2.3-14.034a39.516,39.516,0,0,0-6.013-14.034q-13.869-22.8-27.269-45.6t-28.192-45.6a398.923,398.923,0,0,1-27.255-49.994q-11.571-25.424-22.647-51.743-8.317-21.925-15.712-44.292a389.188,389.188,0,0,1-12.011-45.16,227.3,227.3,0,0,1-4.637-34.2,102.548,102.548,0,0,1,3.716-33.329,38.794,38.794,0,0,1,11.075-20.177q10.168-10.515,24.958-7.891a52.771,52.771,0,0,1,16.18,4.393,145.94,145.94,0,0,1,15.244,7.892A112.96,112.96,0,0,1,505.9,150.664q12.486,14.461,23.568,29.377a242.178,242.178,0,0,1,25.88,45.6q10.168,23.7,18.492,48.231,10.168,32.462,17.1,64.91t12.465,65.763a387.937,387.937,0,0,1,6.48,45.615q1.851,22.8,3.687,45.6,1.851,18.406,2.311,36.827t1.39,36.827c.624,6.455.922,12.428.922,17.973v18a25.8,25.8,0,0,0,.468,4.379,6.892,6.892,0,0,1-1.39,5.247,11.856,11.856,0,0,0,.922,5.29q1.851,3.5,3.233,6.569c.936,2.034,2.936,3.37,6.013,3.953,3.091,0,5.233-1.024,6.466-3.085a25.231,25.231,0,0,0,2.779-6.583,174.049,174.049,0,0,0,9.7-31.993q3.233-16.252,6.013-32.889,4.616-23.7,6.92-47.363t4.169-47.349q1.85-27.194,2.765-54.388.936-27.194,0-54.359-1.829-38.6-4.155-76.313a700.046,700.046,0,0,0-8.778-75.418q-3.7-20.155-6.934-40.78-3.233-20.6-7.856-40.78-2.766-9.641-6.013-18.414a72.049,72.049,0,0,0-8.778-16.651c-1.234-2.36-3.687-5.275-7.388-8.787-4.921-3.5-8.324-2.63-10.168,2.631q-4.616,14.93,0,25.438a99.085,99.085,0,0,1,9.246,25q2.765,12.712,5.545,25.864,9.232,47.371,13.855,96.476,1.851,14.909,2.312,29.377t2.326,29.376q1.829,23.675,1.376,46.923t-.468,46.041a309.918,309.918,0,0,1-.907,41.221q-1.851,21.051-3.7,41.221c0,1.166-.936,2.047-2.779,2.63Zm-390.028,42.1a34.861,34.861,0,0,0,8.778,2.176,35.134,35.134,0,0,1,8.778,2.2q45.286,9.641,89.651,22.352,44.371,12.734,88.729,29.377,29.567,12.306,59.148,24.556a342.1,342.1,0,0,1,56.383,29.831,208.019,208.019,0,0,1,25.88,19.3,133.231,133.231,0,0,1,21.257,23.661c3.687,4.692,5.233,8.332,4.623,10.977s-3.7,5.4-9.246,8.318a21.194,21.194,0,0,1-7.388,3.512,194.646,194.646,0,0,1-45.293,5.275q-37.905-2.623-78.562-14.915-15.719-4.373-30.957-10.082t-30.971-12.726a394.089,394.089,0,0,1-67.458-37.709A349.1,349.1,0,0,1,279,586.079a202.785,202.785,0,0,1-19.867-25.864,219.936,219.936,0,0,1-16.166-30.244Z" transform="translate(-56.198 192.243)" fill="#fff"/>
      <path id="Path_45328" data-name="Path 45328" d="M552.947,973.384l.794,27.742c-1.659-1.778-4.864,1.379-5.119-13.053a38.281,38.281,0,0,1,.511-7.451l3.815-7.237ZM650,346.908c9.615,0,17.386,2.716,17.386,6.043S659.615,358.98,650,358.98c-9.586,0-17.372-2.7-17.372-6.029s7.785-6.043,17.372-6.043ZM394.76,54.75h22.25c26.957,2.531,53.192,14.4,66.55,37.552,12.975,22.481.723,57.061-18.945,72.02-29.808,22.637,10.877,45.486,20.888,60.487a164.531,164.531,0,0,1,39.508-3.9c23.483.526,17.768-1.65,17.683-25.751-.028-13.622.879-30.2-.085-43.425-1.687-23.177-4.566-15.939-12.961-30.5C501.23,72,580.613,29.554,605.3,84.923c5.176,11.617,2.85,26.732-2.467,36.074-8.707,15.328-13.16,7.167-12.862,30.585.751,64.412-9.161,69.9,17.726,69.346,37.565-.8,37.621,10.621,62.409-20.631,7.558-9.555,12.961-17.7,3.687-29.8-6.3-8.275-14.266-12.243-19.9-21.6-12.493-20.888-14.01-44.648,1.135-64.526,12.862-16.835,32.389-25.807,57.758-29.12,1.461-.185,2.907-.356,4.311-.5h22.718c17.584,1.834,31.623,7.835,44.839,14.461,28.107,14.091,55.036,31.424,80.32,49.952L917.024,154A1025.734,1025.734,0,0,0,1028.5,216.221c9.09,4.38,18.946,10.224,28.914,12.541v3.953c-14.79,3.455-35.948,19.85-78.632,3.683C935.5,220,896.8,192.476,858.613,167.066c-9.26-6.157-19-12.8-27.425-19.949-7.587-6.427-15.982-20.944-24.235-23.149a51.462,51.462,0,0,0-3.928,11.859c3.46,5.218,4.977,6.214,9.827,9.9l30.106,25.2c13.33,11.958,27.227,20.717,41.748,31.31,23.569,17.19,69.43,43.78,99.734,46.311-4.24,15.954-34.814,21.143-53.008,17.617C891.768,258.48,817.9,195.476,791.17,181.3a85.13,85.13,0,0,1-5.9,9.9c10.281,6.9,21.5,16.138,31.552,23.731,21.186,16,44.06,30.1,66.663,43.88,9.714,5.929,28.745,9.37,31.935,21.371-46.427,10.849-53.4,5.048-92.6-19.878-11.883-7.55-24.363-18.783-35.58-27.585-15.953-12.484-22.193-24.869-35.509-17.788,1.3,1.749,18.108,17.5,21.214,20.248,14.649,12.94,28.575,26.973,45.45,37.51,8.494,5.317,21.1,7.408,22.08,19.366-11.2,5.389-31.325,3.128-44.627-.754-24.618-7.2-42.953-29.5-58.524-48.089-8.2-9.754-15.4-25.964-27-20.376,4.595,6.3,8.495,3.6,6.977,14.631-2.524,18.215-10.835,33.145-25.866,43.553-31.269,21.627-39.579,15.669-74.307,14.973-4.5-2.46-8.849-1.593-15.33-1.621-7.856-.028-11.26-1.891-12.933,3.967-1.021,3.669-1.4,29.661-1.546,35.235l.751,138.408c19.244-1.607,57.333-22.352,70.45-32.163,27.979-20.931,30.858-37.752,28.149-70.655-12.805,3.427-16.18,22-49.25,13.778-11.189-2.787-23.625-10.28-29.113-20.49-6.055-11.361-.61-10.934-.525-11.091,1.829-5.076-.383-3.3,7.119-6.7,32.488-14.788,100.683-1.565,108.242,61.227,1.6,13.508-3.6,28.751-9.189,38.093-21.243,35.32-39.919,45.06-78.576,65.564,7.644,10.451,23.257,12.37,43.8,43.083,15.486,23.12,17.145,32.675,17.343,69.645.2,35.192-12.181,56.706-32.077,76.6-11.373,11.39-17.754,19.935-33.013,30.173,4.736,7.081,10.721,10.963,16.648,18.9,29.935,39.984,34.176,99.05,8.636,136.986-9.685,14.361-23.015,24.485-37.111,33.941,7.431,11.134,12.862,13.607,19.229,30.187a83.379,83.379,0,0,1,3.347,43.88c-4.765,22.623-28.135,50.151-44.258,54.488v3.938c8.891,2.389,21.625,16.437,28.135,23.192,36.572,37.965,13.628,83.252-10.409,99.419,3.716-15.911,12.025-47.548,1.631-64.924-7.119-11.973-24.7-32.6-41.067-33.969,0,34.211-2.141,61.6-1.943,94.955.113,21.016-5.956,71.038-5.956,88.94h-3.928c0-14.106-3.6-31.51-4.013-45.4-.425-14.6-1.957-31.737-1.971-45.487-.043-31.765-1.9-59.606-1.9-93.007-14.167,3.327-32.729,23.22-38.869,36.187-11.784,24.969.893,40.3,1.4,62.706-15.542-10.437-33.4-43.069-27.2-68.764,5.559-22.992,21-33.443,32.616-44.463,4.538-4.309,9.033-6.441,12.323-11.361-4.893-6.683-35.211-20.931-43.308-57.431-9.189-41.406,19.286-64.341,21.612-73.086-3.73-5.119-26.561-19.665-38.3-36.714-6.1-8.873-8.608-14.091-13.656-23.888-14.72-28.609-5.984-65.536,6.566-89.722,9.217-17.816,23.937-25.082,33.566-39.5-12.323-18.457-65.061-43.212-65.147-108.733-.071-48.814,17.925-75.446,51.051-101.168,4.921-3.811,8.594-4.764,12.125-9.6-10.919-5.787-21.8-10.437-31.85-17.49-45.393-31.822-83.695-78.887-35.026-130.63,20.916-22.224,80.291-32.291,96.457-8.09-5.644,24.3-38.189,38.718-61.828,28.4-10.678-4.663-10.664-10.323-19.031-12.569-5.077,10.607-.865,35.249,3.318,44.136,3.928,8.361,15.882,20.817,23.114,26.262,15.316,11.532,47.449,27.571,68.21,32.419l.61-126.55c-.553-13.977-.3-27.869-.68-41.676-.284-10.209.326-9.7-9.572-9.968-5.8-.156-15.358-1.095-19.1,2.2-17.471,1.251-22.576,4.919-41.124.882-22.335-4.849-45.776-19.58-54.142-40.639-9.941-24.982-4.765-24.471,1.758-33.4-9.033-4.351-11.841.839-16.379,7.309-10.352,14.774-23.242,30.088-37.664,41.321-10.026,7.806-20.874,16.394-33.083,20.219-13.415,4.194-30.971,6.171-43.025.37.667-8.133,3.786-8.972,9.416-12.328,40.8-24.343,30.588-24,58.765-45.871,6.154-4.764,18.832-14.418,20.562-20.9-10.55-.881-3.97-3.782-11.4.4-17.7,9.939-62.495,57.573-100.244,69.574-19.513,6.214-34.785,1.28-52.044-2.744,2.255-8.46,7.119-8.588,15.131-12.513,7.487-3.669,10.366-6.157,17.726-9.911,45.109-22.921,63.9-44.136,97.309-66.559a87.245,87.245,0,0,1-5.927-9.9c-7.275,3.868-15.258,10.024-22.236,15.271L263.078,235.1c-20.208,12.712-35.963,25.623-61.658,31.14-18.492,3.967-48.9-1.763-53.135-17.7,66.891-15.627,111.758-53.933,162-94.628,6.991-5.659,11.628-10.863,19.428-16.124-1.092-4.692-2.07-9.925-3.942-13.821-8.31,2.218-7.473,5.2-12.423,11.276-24.235,29.718-93.309,65.293-127.216,86-23.994,14.646-43.421,21.769-73.428,21.457-15.032-.156-24.334-6.925-37.395-9.982v-3.953c8.863-.739,28.815-11.489,37.508-15.783,33.722-16.65,66.664-36,98.188-55.781,47.378-29.689,110.879-81.717,160.8-97.813A108.111,108.111,0,0,1,394.76,54.75Zm184.024,954.2,1.191-42.117c4.665,4.692,7.119,11.574,7.346,19.3.269,8.858-2.056,17.106-8.537,22.822Zm-53.83-179.06V818.027c0-15.115,14.209-34.51,25.639-37.567v85.03c-7.487-5.034-25.639-23.945-25.639-35.6Zm57.191,37.567-.057-67.284c0-10.835,1.83-13.138,2.014-21.684,29.694,19.921,38.359,61.9-1.957,88.968ZM515.084,626.227c0-27.528,10.352-51.018,31.552-65.251,0,39.3,1.971,72.887,1.971,110.724-12.281-3.284-33.523-26.163-33.523-45.472Zm70.989,47.449V558.985c7.842,2.1,18.534,17.19,22.873,24.528,22.831,38.249,13.8,65.55-22.873,90.163ZM476.271,349a8.681,8.681,0,0,1,3.3-1.024l.113-.029a44.063,44.063,0,0,1,9.714-1.038c9.6,0,17.371,2.716,17.371,6.043S499,358.98,489.4,358.98s-17.372-2.7-17.372-6.029c0-1.507,1.6-2.886,4.24-3.953Z" transform="translate(195.704 -54.75)" fill="#fff" fill-rule="evenodd"/>
      <path id="Path_45329" data-name="Path 45329" d="M154.371,487.868a458.515,458.515,0,0,1,2.765-49.994,994.554,994.554,0,0,1,17.088-110.055A596.221,596.221,0,0,1,207.96,221.261a430.6,430.6,0,0,1,27.752-53.933,298.928,298.928,0,0,1,36.955-48.672,158.9,158.9,0,0,1,62.863-42.1q22.143-7.017,38.813,1.749a51.557,51.557,0,0,1,24.036,26.32,113.041,113.041,0,0,1,6.92,21.044,160.172,160.172,0,0,1,3.248,21.926,246.667,246.667,0,0,1-1.858,52.184,373.979,373.979,0,0,1-11.075,51.3,630.075,630.075,0,0,1-31.439,82.868q-18.484,39.906-41.606,79.371a30.226,30.226,0,0,1-4.155,6.143,31.642,31.642,0,0,0-4.155,6.143q-1.871,4.372-8.31,11.39c3.077,0,5.375-.583,6.934-1.749a46.864,46.864,0,0,0,4.155-3.512q15.7-12.263,32.346-22.793a330.012,330.012,0,0,1,35.112-19.3,362.807,362.807,0,0,1,44.371-16.665A161.312,161.312,0,0,1,476,365.969q32.333-1.77,58.227,13.153,25.887,14.887,36.062,44.719a181.577,181.577,0,0,1,8.309,29.818,96.234,96.234,0,0,1,.907,29.831A42.929,42.929,0,0,0,580.46,494c4.283-.583,8.608-1.166,12.933-1.749s8.608-1.166,12.933-1.749q26.8-4.394,52.682-8.332t52.681-5.7a80.644,80.644,0,0,1,13.869-.882c2.467,0,4.324,1.763,5.544,5.261q.914,12.285-12.025,14.916-15.7,3.5-31.879,6.128t-32.815,5.276q-18.485,4.372-37.891,7.891-19.4,3.5-37.891,7.892c-3.715,0-5.843,1.748-6.481,5.261a84.28,84.28,0,0,0-3.219,9.2,86.794,86.794,0,0,1-3.233,9.213,223.137,223.137,0,0,1-28.191,48.686,359.86,359.86,0,0,1-38.373,42.515,315.568,315.568,0,0,1-57.3,43.41,597.029,597.029,0,0,1-64.693,32.9q-12.933,5.247-25.865,10.081c-8.651,3.228-17.259,6.285-25.909,9.2a263.5,263.5,0,0,1-33.721,8.332q-17.081,3.072-34.658,4.82a100.075,100.075,0,0,1-24.476.455q-11.55-1.344-23.569-3.085a70.139,70.139,0,0,1-22.192-7c-10.466-4.693-17.726-11.119-21.711-19.309q-6.02-12.285-.468-30.685a67.331,67.331,0,0,1,8.778-19.75,182.587,182.587,0,0,1,13.4-17.959,163.485,163.485,0,0,1,19.413-18.854,250.574,250.574,0,0,1,22.193-16.224,499.794,499.794,0,0,1,94.246-48.245Q338.31,558.9,354.915,553.2q16.677-5.716,33.3-11.844,39.713-13.16,83.171-23.675,18.484-4.393,37.423-8.332,18.995-3.946,38.359-8.332c3.715-.6,6.183-3.213,7.4-7.892q2.765-29.817-13.855-56.137A51.263,51.263,0,0,0,521.3,418.138a106.845,106.845,0,0,0-26.816-10.081,98.663,98.663,0,0,0-26.334-1.749q-13.38.874-26.348,2.63a255.905,255.905,0,0,0-69.769,23.234,486.956,486.956,0,0,0-61.474,37.268q-30.5,22.821-58.226,47.363a34.772,34.772,0,0,0-3.233,3.512,34.378,34.378,0,0,1-3.219,3.5,7.086,7.086,0,0,1-7.4,2.63q-4.637-1.749-2.765-6.128c.609-4.678,1.39-9.356,2.3-14.034a39.516,39.516,0,0,1,6.012-14.034q13.869-22.8,27.256-45.6,13.422-22.8,28.191-45.6a398.766,398.766,0,0,0,27.255-49.994q11.593-25.424,22.661-51.743,8.3-21.925,15.7-44.292a389.144,389.144,0,0,0,12.025-45.16,225.35,225.35,0,0,0,4.623-34.2,102.917,102.917,0,0,0-3.687-33.329,38.929,38.929,0,0,0-11.1-20.177q-10.168-10.515-24.958-7.891a52.894,52.894,0,0,0-16.166,4.393,146.22,146.22,0,0,0-15.259,7.892,113.445,113.445,0,0,0-29.113,24.116q-12.465,14.461-23.54,29.377A241.53,241.53,0,0,0,232,225.641q-10.168,23.7-18.464,48.231-10.189,32.462-17.116,64.91t-12.465,65.763a391.05,391.05,0,0,0-6.481,45.615q-1.829,22.8-3.687,45.6-1.872,18.406-2.326,36.827t-1.39,36.827c-.61,6.455-.908,12.428-.908,17.973v18a27.333,27.333,0,0,1-.468,4.379,6.879,6.879,0,0,0,1.376,5.247,11.889,11.889,0,0,1-.908,5.29c-1.248,2.332-2.3,4.521-3.248,6.569-.908,2.034-2.935,3.37-6.013,3.953-3.063,0-5.232-1.024-6.452-3.085a24.732,24.732,0,0,1-2.765-6.583,172.98,172.98,0,0,1-9.714-31.993q-3.255-16.252-6.013-32.889-4.616-23.7-6.935-47.363t-4.155-47.349q-1.85-27.194-2.765-54.388-.958-27.194,0-54.359,1.829-38.6,4.155-76.313a696.5,696.5,0,0,1,8.778-75.418q3.7-20.155,6.935-40.78,3.233-20.6,7.856-40.78,2.787-9.641,6.013-18.414a71.491,71.491,0,0,1,8.778-16.651c1.22-2.36,3.687-5.275,7.4-8.787q7.382-5.247,10.153,2.631,4.616,14.93,0,25.438a99.09,99.09,0,0,0-9.245,25Q169.14,141.45,166.4,154.6q-9.274,47.371-13.883,96.476-1.829,14.909-2.3,29.377t-2.326,29.376q-1.829,23.675-1.39,46.923.468,23.248.468,46.041a312.339,312.339,0,0,0,.922,41.221q1.872,21.051,3.716,41.221c0,1.166.908,2.047,2.765,2.63Zm390.028,42.1a35,35,0,0,1-8.778,2.176,35.071,35.071,0,0,0-8.792,2.2q-45.264,9.641-89.651,22.352-44.372,12.734-88.715,29.377Q318.9,598.386,289.3,610.636a342.66,342.66,0,0,0-56.383,29.831,208.948,208.948,0,0,0-25.866,19.3,132.068,132.068,0,0,0-21.242,23.661c-3.715,4.692-5.261,8.332-4.638,10.977s3.687,5.4,9.232,8.318a21.2,21.2,0,0,0,7.389,3.512,194.642,194.642,0,0,0,45.293,5.275q37.926-2.623,78.575-14.915,15.7-4.373,30.957-10.082t30.971-12.726a395.851,395.851,0,0,0,67.472-37.709,350.145,350.145,0,0,0,57.3-49.994,201.333,201.333,0,0,0,19.853-25.864,219.93,219.93,0,0,0,16.18-30.244Z" transform="translate(792.986 192.243)" fill="#fff"/>
    </g>
  </g>
</svg>
