<svg xmlns="http://www.w3.org/2000/svg" width="982.103" height="1204.224" viewBox="0 0 982.103 1204.224">
  <path id="Path_45328" data-name="Path 45328" d="M552.947,973.384l.794,27.742c-1.659-1.778-4.864,1.379-5.119-13.053a38.281,38.281,0,0,1,.511-7.451l3.815-7.237ZM650,346.908c9.615,0,17.386,2.716,17.386,6.043S659.615,358.98,650,358.98c-9.586,0-17.372-2.7-17.372-6.029s7.785-6.043,17.372-6.043ZM394.76,54.75h22.25c26.957,2.531,53.192,14.4,66.55,37.552,12.975,22.481.723,57.061-18.945,72.02-29.808,22.637,10.877,45.486,20.888,60.487a164.531,164.531,0,0,1,39.508-3.9c23.483.526,17.768-1.65,17.683-25.751-.028-13.622.879-30.2-.085-43.425-1.687-23.177-4.566-15.939-12.961-30.5C501.23,72,580.613,29.554,605.3,84.923c5.176,11.617,2.85,26.732-2.467,36.074-8.707,15.328-13.16,7.167-12.862,30.585.751,64.412-9.161,69.9,17.726,69.346,37.565-.8,37.621,10.621,62.409-20.631,7.558-9.555,12.961-17.7,3.687-29.8-6.3-8.275-14.266-12.243-19.9-21.6-12.493-20.888-14.01-44.648,1.135-64.526,12.862-16.835,32.389-25.807,57.758-29.12,1.461-.185,2.907-.356,4.311-.5h22.718c17.584,1.834,31.623,7.835,44.839,14.461,28.107,14.091,55.036,31.424,80.32,49.952L917.024,154A1025.734,1025.734,0,0,0,1028.5,216.221c9.09,4.38,18.946,10.224,28.914,12.541v3.953c-14.79,3.455-35.948,19.85-78.632,3.683C935.5,220,896.8,192.476,858.613,167.066c-9.26-6.157-19-12.8-27.425-19.949-7.587-6.427-15.982-20.944-24.235-23.149a51.462,51.462,0,0,0-3.928,11.859c3.46,5.218,4.977,6.214,9.827,9.9l30.106,25.2c13.33,11.958,27.227,20.717,41.748,31.31,23.569,17.19,69.43,43.78,99.734,46.311-4.24,15.954-34.814,21.143-53.008,17.617C891.768,258.48,817.9,195.476,791.17,181.3a85.13,85.13,0,0,1-5.9,9.9c10.281,6.9,21.5,16.138,31.552,23.731,21.186,16,44.06,30.1,66.663,43.88,9.714,5.929,28.745,9.37,31.935,21.371-46.427,10.849-53.4,5.048-92.6-19.878-11.883-7.55-24.363-18.783-35.58-27.585-15.953-12.484-22.193-24.869-35.509-17.788,1.3,1.749,18.108,17.5,21.214,20.248,14.649,12.94,28.575,26.973,45.45,37.51,8.494,5.317,21.1,7.408,22.08,19.366-11.2,5.389-31.325,3.128-44.627-.754-24.618-7.2-42.953-29.5-58.524-48.089-8.2-9.754-15.4-25.964-27-20.376,4.595,6.3,8.495,3.6,6.977,14.631-2.524,18.215-10.835,33.145-25.866,43.553-31.269,21.627-39.579,15.669-74.307,14.973-4.5-2.46-8.849-1.593-15.33-1.621-7.856-.028-11.26-1.891-12.933,3.967-1.021,3.669-1.4,29.661-1.546,35.235l.751,138.408c19.244-1.607,57.333-22.352,70.45-32.163,27.979-20.931,30.858-37.752,28.149-70.655-12.805,3.427-16.18,22-49.25,13.778-11.189-2.787-23.625-10.28-29.113-20.49-6.055-11.361-.61-10.934-.525-11.091,1.829-5.076-.383-3.3,7.119-6.7,32.488-14.788,100.683-1.565,108.242,61.227,1.6,13.508-3.6,28.751-9.189,38.093-21.243,35.32-39.919,45.06-78.576,65.564,7.644,10.451,23.257,12.37,43.8,43.083,15.486,23.12,17.145,32.675,17.343,69.645.2,35.192-12.181,56.706-32.077,76.6-11.373,11.39-17.754,19.935-33.013,30.173,4.736,7.081,10.721,10.963,16.648,18.9,29.935,39.984,34.176,99.05,8.636,136.986-9.685,14.361-23.015,24.485-37.111,33.941,7.431,11.134,12.862,13.607,19.229,30.187a83.379,83.379,0,0,1,3.347,43.88c-4.765,22.623-28.135,50.151-44.258,54.488v3.938c8.891,2.389,21.625,16.437,28.135,23.192,36.572,37.965,13.628,83.252-10.409,99.419,3.716-15.911,12.025-47.548,1.631-64.924-7.119-11.973-24.7-32.6-41.067-33.969,0,34.211-2.141,61.6-1.943,94.955.113,21.016-5.956,71.038-5.956,88.94h-3.928c0-14.106-3.6-31.51-4.013-45.4-.425-14.6-1.957-31.737-1.971-45.487-.043-31.765-1.9-59.606-1.9-93.007-14.167,3.327-32.729,23.22-38.869,36.187-11.784,24.969.893,40.3,1.4,62.706-15.542-10.437-33.4-43.069-27.2-68.764,5.559-22.992,21-33.443,32.616-44.463,4.538-4.309,9.033-6.441,12.323-11.361-4.893-6.683-35.211-20.931-43.308-57.431-9.189-41.406,19.286-64.341,21.612-73.086-3.73-5.119-26.561-19.665-38.3-36.714-6.1-8.873-8.608-14.091-13.656-23.888-14.72-28.609-5.984-65.536,6.566-89.722,9.217-17.816,23.937-25.082,33.566-39.5-12.323-18.457-65.061-43.212-65.147-108.733-.071-48.814,17.925-75.446,51.051-101.168,4.921-3.811,8.594-4.764,12.125-9.6-10.919-5.787-21.8-10.437-31.85-17.49-45.393-31.822-83.695-78.887-35.026-130.63,20.916-22.224,80.291-32.291,96.457-8.09-5.644,24.3-38.189,38.718-61.828,28.4-10.678-4.663-10.664-10.323-19.031-12.569-5.077,10.607-.865,35.249,3.318,44.136,3.928,8.361,15.882,20.817,23.114,26.262,15.316,11.532,47.449,27.571,68.21,32.419l.61-126.55c-.553-13.977-.3-27.869-.68-41.676-.284-10.209.326-9.7-9.572-9.968-5.8-.156-15.358-1.095-19.1,2.2-17.471,1.251-22.576,4.919-41.124.882-22.335-4.849-45.776-19.58-54.142-40.639-9.941-24.982-4.765-24.471,1.758-33.4-9.033-4.351-11.841.839-16.379,7.309-10.352,14.774-23.242,30.088-37.664,41.321-10.026,7.806-20.874,16.394-33.083,20.219-13.415,4.194-30.971,6.171-43.025.37.667-8.133,3.786-8.972,9.416-12.328,40.8-24.343,30.588-24,58.765-45.871,6.154-4.764,18.832-14.418,20.562-20.9-10.55-.881-3.97-3.782-11.4.4-17.7,9.939-62.495,57.573-100.244,69.574-19.513,6.214-34.785,1.28-52.044-2.744,2.255-8.46,7.119-8.588,15.131-12.513,7.487-3.669,10.366-6.157,17.726-9.911,45.109-22.921,63.9-44.136,97.309-66.559a87.245,87.245,0,0,1-5.927-9.9c-7.275,3.868-15.258,10.024-22.236,15.271L263.078,235.1c-20.208,12.712-35.963,25.623-61.658,31.14-18.492,3.967-48.9-1.763-53.135-17.7,66.891-15.627,111.758-53.933,162-94.628,6.991-5.659,11.628-10.863,19.428-16.124-1.092-4.692-2.07-9.925-3.942-13.821-8.31,2.218-7.473,5.2-12.423,11.276-24.235,29.718-93.309,65.293-127.216,86-23.994,14.646-43.421,21.769-73.428,21.457-15.032-.156-24.334-6.925-37.395-9.982v-3.953c8.863-.739,28.815-11.489,37.508-15.783,33.722-16.65,66.664-36,98.188-55.781,47.378-29.689,110.879-81.717,160.8-97.813A108.111,108.111,0,0,1,394.76,54.75Zm184.024,954.2,1.191-42.117c4.665,4.692,7.119,11.574,7.346,19.3.269,8.858-2.056,17.106-8.537,22.822Zm-53.83-179.06V818.027c0-15.115,14.209-34.51,25.639-37.567v85.03c-7.487-5.034-25.639-23.945-25.639-35.6Zm57.191,37.567-.057-67.284c0-10.835,1.83-13.138,2.014-21.684,29.694,19.921,38.359,61.9-1.957,88.968ZM515.084,626.227c0-27.528,10.352-51.018,31.552-65.251,0,39.3,1.971,72.887,1.971,110.724-12.281-3.284-33.523-26.163-33.523-45.472Zm70.989,47.449V558.985c7.842,2.1,18.534,17.19,22.873,24.528,22.831,38.249,13.8,65.55-22.873,90.163ZM476.271,349a8.681,8.681,0,0,1,3.3-1.024l.113-.029a44.063,44.063,0,0,1,9.714-1.038c9.6,0,17.371,2.716,17.371,6.043S499,358.98,489.4,358.98s-17.372-2.7-17.372-6.029c0-1.507,1.6-2.886,4.24-3.953Z" transform="translate(-75.31 -54.75)" fill="#fff" fill-rule="evenodd"/>
</svg>
