<svg xmlns="http://www.w3.org/2000/svg" width="56.2" height="44.14" viewBox="0 0 56.2 44.14">
  <path id="Path_44680" data-name="Path 44680" d="M101,261.845a2.662,2.662,0,0,1,1.743-1.745c2.517-1.018,5.038-2.03,7.518-3.132,1.6-.713,2.823-.144,3.3,1.361a1.855,1.855,0,0,0,.135.261c.876-.3,1.721-.638,2.593-.88,1.613-.447,3.234-.87,4.865-1.245a14.478,14.478,0,0,1,6.387.338c.5.108.994.233,1.5.312a10.527,10.527,0,0,1,4.434,1.9c1.782,1.246,3.58,2.47,5.378,3.692a3.719,3.719,0,0,1,1.789,3.759,7.935,7.935,0,0,0,.948-.385c.363-.207.687-.484,1.045-.7,2.22-1.338,4.458-2.648,6.667-4.006a3.744,3.744,0,0,1,5.67,4.05.493.493,0,0,0,.26.662,3.65,3.65,0,0,1,.131,6.178,6.2,6.2,0,0,1-2.138.911c-5.434,1.143-10.88,2.231-16.322,3.334-.595.121-1.021-.1-1.131-.57-.125-.536.17-.923.829-1.057q8.135-1.658,16.27-3.319a4.73,4.73,0,0,0,1.372-.511,2.063,2.063,0,0,0-1.079-3.882c-1.274.042-2.546.153-3.818.242-2.944.207-5.888.425-8.833.621a1.389,1.389,0,0,0-.952.421,2.687,2.687,0,0,1-3.171.618c-2.263-1.056-4.494-2.181-6.731-3.293a.813.813,0,0,1-.439-1.143.829.829,0,0,1,1.219-.313c2.014.987,4.021,1.988,6.031,2.983,1.08.535,1.749.422,2.239-.374a1.82,1.82,0,0,0-.457-2.595c-2.419-1.672-4.838-3.351-7.343-4.884a9.926,9.926,0,0,0-2.914-.856,15.67,15.67,0,0,0-5.617-.625,35.785,35.785,0,0,0-8.072,2.183l4.016,9.86a20.345,20.345,0,0,1,1.972-.639,7.917,7.917,0,0,1,6.358,1.47c1.4.96,2.793,1.938,4.2,2.884a15.385,15.385,0,0,0,1.613.919c.587.3.821.687.626,1.156-.2.488-.684.649-1.292.352a15.938,15.938,0,0,1-1.856-1.043c-1.445-.962-2.862-1.966-4.295-2.946a6.218,6.218,0,0,0-5.065-1.16,15.711,15.711,0,0,0-1.619.561c.106.272.189.473.263.676a2.026,2.026,0,0,1-1.193,2.747c-1.761.747-3.532,1.473-5.3,2.205l-8.889,3.682c-1.452.6-2.139.357-2.845-1.019Zm1.641,17.7c.209-.07.363-.111.509-.172q7.045-2.919,14.092-5.834c.487-.2.572-.443.374-.925q-2.825-6.877-5.62-13.766c-.253-.62-.337-.657-.931-.41-2.607,1.086-5.209,2.185-7.825,3.251a.867.867,0,0,0-.608.955q.022,8.149.009,16.3Zm42.27-13.606.039.088c.235,0,.472.015.706,0,2.429-.174,4.859-.345,7.286-.548a.661.661,0,0,0,.426-.425,1.972,1.972,0,0,0-.7-2.116,1.892,1.892,0,0,0-2.282-.264c-1,.562-1.976,1.167-2.961,1.756Q146.165,265.183,144.911,265.941Zm-5.56-22.246c.736-.566,1.46-1.1,2.157-1.677a.748.748,0,0,0,.151-.511,12.019,12.019,0,0,1-.023-1.478,3.075,3.075,0,0,1,2.176-2.652,3.135,3.135,0,0,1,3.336.755c.053.05.109.1.185.164a3.409,3.409,0,0,1,2.7-1.089,3.208,3.208,0,0,1,2.707,1.786.8.8,0,0,1-1.3.923c-.125-.132-.214-.3-.329-.44a1.608,1.608,0,0,0-2.488-.073c-.135.149-.248.319-.386.466a1.176,1.176,0,0,1-1.822-.038,4.427,4.427,0,0,0-.586-.646,1.537,1.537,0,0,0-1.75-.112,1.575,1.575,0,0,0-.856,1.546,4.418,4.418,0,0,0,1.376,3.1,22.04,22.04,0,0,0,2.448,1.917.706.706,0,0,0,.617-.01,8.465,8.465,0,0,0,2.963-2.558,2.922,2.922,0,0,1,.24-.3.808.808,0,1,1,1.273.994,18.314,18.314,0,0,1-2.442,2.494,2.566,2.566,0,0,0-1.156,1.913,9.687,9.687,0,0,1-2.525,5.167,19.554,19.554,0,0,1-5.71,4.382,1.67,1.67,0,0,1-1.7-.016,17.345,17.345,0,0,1-6.6-5.558,8.963,8.963,0,0,1-1.717-6.182,5,5,0,0,1,8.9-2.491Zm2.924-.357a14.2,14.2,0,0,0-1.367,1.346c-.98,1.269-1.963,1.293-2.9.014a3.379,3.379,0,0,0-3.859-1.3,3.452,3.452,0,0,0-2.3,3.459,7.72,7.72,0,0,0,1.091,3.715,14.917,14.917,0,0,0,6.322,5.593.654.654,0,0,0,.54-.083c1.1-.713,2.245-1.377,3.269-2.193a10.291,10.291,0,0,0,3.727-5.314c.282-1.015.282-1.015-.627-1.488-.129-.067-.256-.141-.379-.219A10.767,10.767,0,0,1,142.275,243.337Z" transform="translate(-100.9 -237.081)" fill="#00a8f0" stroke="#00a8f0" stroke-width="0.2"/>
</svg>
