<svg xmlns="http://www.w3.org/2000/svg" width="59.119" height="60" viewBox="0 0 59.119 60">
  <path id="Path_44681" data-name="Path 44681" d="M141.357,264a1.381,1.381,0,0,1-.566-1.258c.02-1.992-.014-3.984.026-5.975a2.156,2.156,0,0,1,.4-1.165c.871-1.176,1.8-2.313,2.714-3.452a6.726,6.726,0,0,0,1.577-4.31q.012-7.82,0-15.641a2.5,2.5,0,0,0-.028-.256l-3.516-.653c0,1.715,0,3.391,0,5.067q0,1.377-.039,2.753c-.016.67-.379,1.084-.91,1.068s-.854-.421-.842-1.113c.044-2.655.084-5.31.155-7.965a.812.812,0,0,0-.513-.848c-.78-.43-1.521-.931-2.331-1.436-.117,1.133-.234,2.251-.349,3.368-.186,1.805-.364,3.611-.559,5.416-.074.685-.459,1.037-1,.963s-.806-.525-.738-1.192q.5-4.834.983-9.669a1.066,1.066,0,0,0-.119-.71,17.572,17.572,0,0,1-2.855-5.006c-.085.494-.189.985-.253,1.482q-.849,6.618-1.684,13.238c-.112.884-.434,1.3-1,1.257-.612-.048-.865-.5-.746-1.439q.844-6.678,1.707-13.353c.032-.252.067-.5.084-.756a1.618,1.618,0,0,0-3.188-.53c-.246.943-.474,1.891-.712,2.836a2.961,2.961,0,0,1-.164.56.822.822,0,0,1-1.065.481.78.78,0,0,1-.585-.954,35.2,35.2,0,0,1,1-3.845,3.328,3.328,0,0,1,4.67-1.72c.172.09.336.195.554.322a4.5,4.5,0,0,1,.379-1.376,7.348,7.348,0,0,0,.811-2.945A13.941,13.941,0,0,1,144.715,204.1a2.922,2.922,0,0,0,.392-.1h2.461c1.152.273,2.334.458,3.45.837a13.521,13.521,0,0,1,6.576,4.875.916.916,0,0,1,.125,1.132c-.357.561-1,.5-1.522-.047a21.814,21.814,0,0,0-2.832-2.769,12.174,12.174,0,1,0,5.007,11.828,12.513,12.513,0,0,0-.406-5.615,1.2,1.2,0,0,1-.039-.838.844.844,0,0,1,1.591.09c.3,1.005.475,2.045.7,3.073a2.227,2.227,0,0,0,.081.454c.376.82.767,1.633,1.16,2.464a3.273,3.273,0,0,1,2.64-.558,3.334,3.334,0,0,1,2.668,2.643q1.654,6.64,3.316,13.279c.056.223.126.442.194.68a9.14,9.14,0,0,1,1.512-.284,9.517,9.517,0,0,1,2.26.144,2.443,2.443,0,0,1,1.829,3.059c-.337,1.3-.722,2.592-1.1,3.881a.873.873,0,1,1-1.67-.477c.321-1.185.663-2.365.993-3.548.231-.83.03-1.177-.828-1.3a4.532,4.532,0,0,0-4.555,1.91c-1.257,1.716-2.456,3.475-3.661,5.228a1.4,1.4,0,0,1-1.085.685,11.583,11.583,0,0,0-1.5.233,4.127,4.127,0,0,0-3.079,2.612,6.763,6.763,0,0,1-.332.81.806.806,0,0,1-1.107.364.818.818,0,0,1-.491-1.012,6.015,6.015,0,0,1,5.089-4.557,2.125,2.125,0,0,0,1.723-1.055c.868-1.366,1.82-2.68,2.774-3.989.4-.548.909-1.014,1.332-1.547a.852.852,0,0,0,.184-.629q-1.741-7.071-3.523-14.131a1.62,1.62,0,0,0-1.93-1.28,1.59,1.59,0,0,0-1.255,1.836c.405,3.292.833,6.581,1.253,9.872.192,1.51.389,3.019.573,4.53a.891.891,0,0,1-.75,1.071.861.861,0,0,1-.964-.807c-.279-2.03-.53-4.063-.8-6.094q-.58-4.41-1.169-8.819a4.543,4.543,0,0,0-.1-.454c-.585,1.187-1.189,2.439-1.82,3.676a3.367,3.367,0,0,1-.639.906,1.824,1.824,0,0,0-.442,1.71c.342,3.143.655,6.289.97,9.435a.9.9,0,0,1-.778,1.053.868.868,0,0,1-.96-.873c-.309-2.911-.606-5.824-.908-8.735-.006-.058-.02-.115-.046-.252-.161.108-.294.2-.425.286a5.043,5.043,0,0,1-1.06.723c-1.2.431-1.4,1.262-1.328,2.443.142,2.337.121,4.684.157,7.027a.881.881,0,0,1-.844.994.918.918,0,0,1-.906-.953c0-.058,0-.117,0-.176q-.067-3.573-.133-7.146c0-.21,0-.42,0-.612-1.092.191-2.129.355-3.155.573-.129.027-.28.33-.283.507-.024,1.288-.013,2.577-.013,3.866,0,3.71.022,7.421-.009,11.131A7.374,7.374,0,0,0,149,252.335q1.348,1.621,2.612,3.31a1.948,1.948,0,0,1,.367,1.063c.035,2.011,0,4.023.025,6.034a1.393,1.393,0,0,1-.566,1.259h-.586a1.18,1.18,0,0,1-.62-1.21c.022-1.871.015-3.742,0-5.613a1.231,1.231,0,0,0-.194-.7c-1.214-1.588-2.451-3.157-3.638-4.675-1.187,1.518-2.425,3.087-3.638,4.674a1.233,1.233,0,0,0-.195.7c-.015,1.871-.022,3.742,0,5.613a1.183,1.183,0,0,1-.62,1.211Zm-15.352,0c.2-.314.527-.611.57-.945.371-2.9.693-5.811,1.024-8.719a1.946,1.946,0,0,0-1.154-2.045c-.478-.219-.98-.383-1.461-.6a6.042,6.042,0,0,1-3.522-3.782c-1-3.24-1.891-6.513-2.813-9.776a.778.778,0,0,1,.7-1.1,4.545,4.545,0,0,1,4.727,1.875c1.16,1.568,2.289,3.163,3.346,4.8a2.422,2.422,0,0,0,2.033,1.213,4.36,4.36,0,0,1,4.141,3.229,1.638,1.638,0,0,0,.108.271.858.858,0,0,0,1.136.428.829.829,0,0,0,.479-1.066,6.364,6.364,0,0,0-2.411-3.5,7.637,7.637,0,0,0-3.28-1.148,1.245,1.245,0,0,1-.729-.453c-1.03-1.422-2.005-2.884-3.039-4.3-.445-.611-1-1.139-1.475-1.73a.789.789,0,0,1-.152-.588c.322-1.386.678-2.763,1.021-4.144.258-1.04.524-2.079.764-3.124a.824.824,0,0,0-.585-1.061.8.8,0,0,0-1,.4,1.7,1.7,0,0,0-.174.493q-.776,3.091-1.545,6.184c-.06.238-.129.473-.193.707a14.572,14.572,0,0,0-1.72-.311,8.171,8.171,0,0,0-1.746.088,2.5,2.5,0,0,0-2.116,3.224c.9,3.23,1.784,6.463,2.756,9.671a7.96,7.96,0,0,0,4.688,5.151,11.651,11.651,0,0,1,1.131.472.666.666,0,0,1,.3.516q-.447,4.161-.952,8.315A1.208,1.208,0,0,0,125.42,264Zm41.367,0a1.162,1.162,0,0,0,.57-1.232c-.329-2.73-.612-5.466-.963-8.194a.675.675,0,0,1,.553-.879,8.282,8.282,0,0,0,5.3-4.78,24.448,24.448,0,0,0,.818-2.62.91.91,0,0,0-.55-1.238c-.505-.158-.96.15-1.148.79-.165.561-.309,1.128-.481,1.686a6.412,6.412,0,0,1-3.72,4.185c-.464.2-.947.364-1.4.578a1.933,1.933,0,0,0-1.153,2.042c.327,2.849.671,5.7.977,8.546a1.387,1.387,0,0,0,.618,1.115Zm-21.051-56.484a10.432,10.432,0,1,0,10.453,10.418A10.454,10.454,0,0,0,146.322,207.516Zm-.055,1.758a8.674,8.674,0,1,1-8.612,8.687A8.689,8.689,0,0,1,146.267,209.273Zm-2.581,12.721a1.4,1.4,0,0,0,1.482,1.459c.8.015,1.6.012,2.4,0a1.409,1.409,0,0,0,1.54-1.521c.009-.421,0-.842,0-1.295.518,0,.946.012,1.374,0a1.389,1.389,0,0,0,1.438-1.443c.02-.8.013-1.6,0-2.4a1.411,1.411,0,0,0-1.584-1.592c-.4-.008-.8,0-1.234,0,0-.533.012-.962,0-1.39a1.34,1.34,0,0,0-1.336-1.415c-.915-.043-1.835-.043-2.75,0a1.339,1.339,0,0,0-1.333,1.418c-.014.441,0,.883,0,1.39-.522,0-.968-.018-1.412,0a1.35,1.35,0,0,0-1.4,1.413q-.031,1.287,0,2.576a1.386,1.386,0,0,0,1.44,1.442c.427.014.856,0,1.373,0C143.684,221.143,143.673,221.569,143.686,221.994Zm.55-5.039c.908-.012,1.194-.3,1.2-1.192,0-.522,0-1.044,0-1.6h1.916c0,.588-.008,1.147,0,1.707.013.754.317,1.056,1.074,1.069.561.01,1.122,0,1.712,0v1.942c-.585,0-1.163-.007-1.741,0-.71.011-1.028.326-1.044,1.043-.013.563,0,1.127,0,1.731h-1.917c0-.54.006-1.1,0-1.65-.01-.819-.316-1.118-1.142-1.124-.54,0-1.081,0-1.645,0v-1.926C143.224,216.956,143.73,216.962,144.236,216.955Z" transform="translate(-116.84 -204)" fill="#00a8f0"/>
</svg>
