<svg xmlns="http://www.w3.org/2000/svg" width="56" height="60" viewBox="0 0 56 60">
  <path id="Path_44669" data-name="Path 44669" d="M153.411,264a27.432,27.432,0,0,1-3.509-.826,29.7,29.7,0,0,1-3.769-1.835,2.487,2.487,0,0,0-1.249-.363q-6.792.017-13.584,0a3.368,3.368,0,0,1-.429-6.723c.483-.024.969,0,1.514,0,.013-.263.031-.47.032-.677,0-1.66,0-3.32,0-4.98,0-.8.291-1.207.857-1.215.585-.009.9.422.9,1.249q0,2.46,0,4.921v.659h6.168c-2.162-7.882-.3-14.406,6.878-18.674,5.412-3.218,11.107-2.881,16.208.788,6.191,4.453,7.714,10.635,5.6,17.875h6.161c.012-.2.034-.4.034-.607q0-9.139-.013-18.278a1.342,1.342,0,0,0-.331-.863q-9.894-9.944-19.818-19.857c-.107-.107-.225-.2-.365-.33-.173.163-.329.3-.478.452q-9.792,9.8-19.589,19.588a1.426,1.426,0,0,0-.465,1.121c.021,2.753.011,5.507.01,8.26a3.966,3.966,0,0,1-.014.526.857.857,0,0,1-.911.8.828.828,0,0,1-.823-.879c-.018-.878-.008-1.757-.008-2.636q0-2.256,0-4.511v-.527a12.016,12.016,0,0,1-2.361.16A3.63,3.63,0,0,1,126.921,234a3.725,3.725,0,0,1,.951-3.992c1.816-1.855,3.665-3.679,5.5-5.516q9.708-9.716,19.424-19.423A11.947,11.947,0,0,1,154.231,204h.937a12.16,12.16,0,0,1,1.434,1.066q5.425,5.384,10.815,10.8c.137.137.287.262.481.439v-3.492c-1.372-.425-1.6-.743-1.6-2.2,0-1.152,0-2.3,0-3.457a1.571,1.571,0,0,1,1.729-1.752q4.8-.01,9.6,0a1.532,1.532,0,0,1,1.709,1.645c.023,1.347.02,2.7,0,4.042a1.5,1.5,0,0,1-1.3,1.621c-.091.023-.178.06-.3.1,0,1.4,0,2.78,0,4.164a2.78,2.78,0,0,1-.05.639A.856.856,0,0,1,176,217.5c-.029-.408-.015-.82-.016-1.23,0-1.148,0-2.3,0-3.481h-6.254a1.466,1.466,0,0,0-.042.237c0,1.6-.015,3.2.011,4.8a1.058,1.058,0,0,0,.325.631q2.758,2.792,5.541,5.558c.1.1.222.185.419.347,0-.53,0-.953,0-1.377,0-.449-.012-.9.007-1.347a.837.837,0,0,1,.81-.9.861.861,0,0,1,.929.847,4.028,4.028,0,0,1,.01.468c0,1.191.017,2.383-.009,3.574a1.206,1.206,0,0,0,.405.97c1.159,1.132,2.319,2.266,3.433,3.441a3.727,3.727,0,0,1,.888,4.007,3.621,3.621,0,0,1-3.12,2.57,11.805,11.805,0,0,1-2.309-.158v17.785c.531,0,1.016-.02,1.5,0a3.371,3.371,0,1,1-.491,6.724c-4.567.006-9.134,0-13.7.015a1.866,1.866,0,0,0-.961.3,15.219,15.219,0,0,1-4.653,2.14c-.9.226-1.822.378-2.734.564Zm1.291-28.732a13.487,13.487,0,1,0,13.477,13.482A13.456,13.456,0,0,0,154.7,235.268Zm-24.189-.331a2.52,2.52,0,0,0,1.887-.868q10.49-10.509,20.99-21.009c.97-.97,1.654-.968,2.631.01l16.81,16.822q2.174,2.175,4.348,4.35a2.1,2.1,0,0,0,2.252.582,2.059,2.059,0,0,0,1.462-1.676,2.356,2.356,0,0,0-.867-2.18q-12.39-12.379-24.766-24.772c-.563-.563-.564-.563-1.139.012q-12.359,12.368-24.716,24.738a4.722,4.722,0,0,0-.513.561,2.05,2.05,0,0,0-.177,2.264A2.077,2.077,0,0,0,130.513,234.937Zm12.97,24.288c-.672-.971-1.32-1.864-1.915-2.791a.809.809,0,0,0-.786-.441c-2.611.017-5.222.008-7.833.009-.662,0-1.326-.016-1.987.016a1.539,1.539,0,0,0-1.46,1.348,1.57,1.57,0,0,0,1.1,1.773,3.449,3.449,0,0,0,.925.082q5.465.008,10.931,0Zm22.458-.018c4.176,0,8.35.015,12.525-.012a1.518,1.518,0,0,0,1.449-1.61,1.542,1.542,0,0,0-1.558-1.57c-3.3-.02-6.6-.014-9.9,0a.665.665,0,0,0-.478.223C167.3,257.2,166.64,258.184,165.941,259.207Zm2.115-48.251h9.493v-3.763h-9.46a2.066,2.066,0,0,0-.032.246C168.055,208.59,168.056,209.741,168.056,210.956Zm-8.715,17.79c.678,0,1.085-.343,1.077-.878a.921.921,0,0,0-1.041-.873q-4.677-.012-9.353,0c-.636,0-1.034.352-1.047.866-.013.532.4.883,1.07.885,1.539.005,3.079,0,4.618,0C156.224,228.747,157.782,228.751,159.341,228.746Zm-6.487-5.29c-.635.011-1.01.354-1,.893a.869.869,0,0,0,.973.859q1.873.015,3.746,0a.879.879,0,1,0,.028-1.75c-.624-.015-1.249,0-1.873,0S153.479,223.445,152.855,223.456Zm5.405,21.706c.843,0,1.618,0,2.394,0a2.517,2.517,0,0,1,2.813,2.82c0,.605.01,1.211,0,1.815a2.427,2.427,0,0,1-2.522,2.5c-.857.01-1.715,0-2.679,0,0,.645-.039,1.263.007,1.875.187,2.515-1.135,3.515-3.346,3.343-.427-.033-.859.007-1.287-.008a2.425,2.425,0,0,1-2.5-2.53c-.016-.7,0-1.406-.006-2.108,0-.171-.022-.342-.039-.571-.869,0-1.7,0-2.537,0a2.44,2.44,0,0,1-2.626-2.634c0-.644-.008-1.289,0-1.933a2.454,2.454,0,0,1,2.532-2.567c.856-.022,1.713,0,2.67,0,0-.715-.008-1.388,0-2.061a6.916,6.916,0,0,1,.077-1.282,2.385,2.385,0,0,1,2.29-1.837c.76-.022,1.522-.017,2.283,0a2.406,2.406,0,0,1,2.467,2.433C158.284,243.306,158.26,244.2,158.26,245.162Zm-5.369-.9c0,.468,0,.937,0,1.405-.006,1.006-.248,1.253-1.234,1.256-1.014,0-2.029-.007-3.043,0-.686.007-.915.238-.924.915-.008.585-.006,1.171,0,1.756.006.734.212.945.932.949,1.034.005,2.067,0,3.1,0,.862.005,1.16.3,1.167,1.165.009,1.054-.005,2.108.006,3.161.007.664.218.87.885.883.6.012,1.209.011,1.814,0,.7-.012.9-.217.911-.918.01-1.054,0-2.108.006-3.161.008-.826.311-1.123,1.142-1.129,1.034-.007,2.067,0,3.1,0,.731,0,.949-.214.957-.926q.01-.878,0-1.756c-.008-.711-.233-.934-.961-.939-1.014-.008-2.028,0-3.043,0-.931,0-1.191-.256-1.2-1.173-.007-1.054.007-2.108-.007-3.161-.008-.623-.236-.839-.856-.848-.643-.009-1.287-.011-1.931,0-.582.01-.8.232-.82.824C152.881,243.126,152.893,243.693,152.891,244.259Z" transform="translate(-126.699 -204)" fill="#00a8f0"/>
</svg>
