<svg xmlns="http://www.w3.org/2000/svg" width="89" height="90" viewBox="0 0 89 90">
  <path id="Path_44682" data-name="Path 44682" d="M153.749,294a2.069,2.069,0,0,1-.852-1.887c.03-2.987-.02-5.976.04-8.962a3.227,3.227,0,0,1,.605-1.748c1.311-1.764,2.7-3.469,4.086-5.179A10.068,10.068,0,0,0,160,269.76q.018-11.731,0-23.461a3.74,3.74,0,0,0-.043-.384l-5.293-.98c0,2.572.007,5.087,0,7.6q-.007,2.065-.059,4.129c-.024,1-.57,1.626-1.369,1.6s-1.286-.632-1.268-1.67c.066-3.983.126-7.966.234-11.947a1.217,1.217,0,0,0-.773-1.272c-1.174-.645-2.289-1.4-3.509-2.154-.177,1.7-.353,3.376-.526,5.053-.28,2.708-.548,5.417-.842,8.123-.112,1.028-.691,1.555-1.5,1.445s-1.214-.788-1.11-1.788q.752-7.25,1.479-14.5a1.594,1.594,0,0,0-.179-1.065,26.333,26.333,0,0,1-4.3-7.509c-.128.741-.284,1.478-.38,2.222q-1.278,9.927-2.535,19.857c-.168,1.326-.653,1.953-1.511,1.886-.921-.072-1.3-.748-1.123-2.158q1.271-10.017,2.569-20.03c.048-.377.1-.755.127-1.135a2.436,2.436,0,0,0-4.8-.795c-.37,1.415-.713,2.837-1.071,4.254a4.43,4.43,0,0,1-.247.84,1.239,1.239,0,0,1-1.6.721,1.169,1.169,0,0,1-.881-1.431A52.639,52.639,0,0,1,131,229.444a5.016,5.016,0,0,1,7.031-2.58c.259.135.506.292.834.483a6.73,6.73,0,0,1,.57-2.065c.929-1.36.922-2.92,1.221-4.418A20.957,20.957,0,0,1,158.8,204.152a4.411,4.411,0,0,0,.59-.152h3.7c1.734.41,3.513.687,5.193,1.255a20.349,20.349,0,0,1,9.9,7.313,1.371,1.371,0,0,1,.189,1.7c-.537.841-1.5.75-2.291-.071a32.783,32.783,0,0,0-4.264-4.153,18.257,18.257,0,1,0,7.537,17.742,18.7,18.7,0,0,0-.611-8.423,1.8,1.8,0,0,1-.058-1.256,1.272,1.272,0,0,1,2.4.135c.445,1.508.715,3.068,1.047,4.609a3.328,3.328,0,0,0,.122.681c.566,1.23,1.155,2.45,1.747,3.7a4.941,4.941,0,0,1,3.974-.837A5.01,5.01,0,0,1,192,230.355q2.49,9.96,4.991,19.918c.084.334.189.664.292,1.02a13.8,13.8,0,0,1,2.276-.426,14.379,14.379,0,0,1,3.4.216,3.664,3.664,0,0,1,2.754,4.588c-.507,1.953-1.087,3.887-1.663,5.822a1.314,1.314,0,1,1-2.514-.716c.484-1.778,1-3.548,1.494-5.322.348-1.246.046-1.765-1.247-1.946a6.834,6.834,0,0,0-6.857,2.865c-1.892,2.574-3.7,5.212-5.511,7.842a2.107,2.107,0,0,1-1.634,1.028,17.5,17.5,0,0,0-2.262.35,6.206,6.206,0,0,0-4.635,3.918,10.125,10.125,0,0,1-.5,1.215,1.31,1.31,0,0,1-2.406-.972,9.044,9.044,0,0,1,7.662-6.835,3.2,3.2,0,0,0,2.594-1.582c1.307-2.049,2.74-4.02,4.176-5.984.6-.822,1.369-1.522,2.006-2.32a1.275,1.275,0,0,0,.276-.944q-2.621-10.606-5.3-21.2a2.438,2.438,0,0,0-2.905-1.92,2.386,2.386,0,0,0-1.89,2.755c.61,4.938,1.255,9.872,1.886,14.808.29,2.265.586,4.528.862,6.794a1.338,1.338,0,0,1-1.129,1.607,1.294,1.294,0,0,1-1.452-1.21c-.42-3.044-.8-6.094-1.2-9.141q-.873-6.615-1.76-13.229a6.79,6.79,0,0,0-.146-.681c-.881,1.781-1.79,3.658-2.741,5.515a5.05,5.05,0,0,1-.962,1.359,2.729,2.729,0,0,0-.666,2.565c.516,4.714.985,9.434,1.46,14.153a1.344,1.344,0,0,1-1.172,1.579,1.305,1.305,0,0,1-1.445-1.31c-.466-4.367-.913-8.735-1.367-13.1-.009-.087-.031-.172-.069-.377-.242.162-.443.293-.639.43a7.594,7.594,0,0,1-1.6,1.085c-1.814.646-2.108,1.893-2,3.664.214,3.506.183,7.026.236,10.541a1.322,1.322,0,0,1-1.271,1.49,1.38,1.38,0,0,1-1.364-1.429c-.007-.087,0-.176-.006-.263q-.1-5.36-.2-10.719c-.006-.315,0-.63,0-.918-1.644.286-3.2.533-4.749.859-.194.041-.422.494-.426.761-.036,1.933-.02,3.866-.02,5.8,0,5.566.033,11.132-.014,16.7a11.035,11.035,0,0,0,2.607,7.45q2.029,2.431,3.932,4.965a2.915,2.915,0,0,1,.552,1.594c.052,3.016.007,6.034.037,9.051a2.086,2.086,0,0,1-.852,1.888h-.882a1.768,1.768,0,0,1-.934-1.815c.032-2.806.023-5.613,0-8.42a1.842,1.842,0,0,0-.292-1.048c-1.827-2.381-3.69-4.735-5.476-7.012-1.787,2.277-3.65,4.631-5.477,7.012a1.844,1.844,0,0,0-.293,1.048c-.023,2.806-.033,5.613,0,8.42a1.772,1.772,0,0,1-.934,1.816Zm-23.111,0c.3-.471.794-.916.858-1.417.559-4.354,1.043-8.717,1.542-13.078a2.917,2.917,0,0,0-1.737-3.067c-.72-.328-1.476-.575-2.2-.895a9.076,9.076,0,0,1-5.3-5.673c-1.505-4.859-2.846-9.769-4.234-14.664a1.167,1.167,0,0,1,1.059-1.65,6.854,6.854,0,0,1,7.117,2.812c1.747,2.352,3.447,4.745,5.037,7.2a3.648,3.648,0,0,0,3.061,1.819,6.56,6.56,0,0,1,6.233,4.844,2.451,2.451,0,0,0,.163.406,1.293,1.293,0,0,0,1.71.642,1.242,1.242,0,0,0,.721-1.6,9.545,9.545,0,0,0-3.63-5.246,11.525,11.525,0,0,0-4.938-1.721,1.875,1.875,0,0,1-1.1-.679c-1.551-2.133-3.019-4.326-4.575-6.454-.67-.916-1.507-1.709-2.221-2.6a1.18,1.18,0,0,1-.229-.881c.485-2.078,1.021-4.145,1.538-6.216.389-1.561.789-3.119,1.15-4.686a1.236,1.236,0,0,0-.88-1.591,1.211,1.211,0,0,0-1.5.6,2.541,2.541,0,0,0-.262.74q-1.168,4.636-2.326,9.275c-.09.357-.194.71-.29,1.06a22.01,22.01,0,0,0-2.59-.466,12.345,12.345,0,0,0-2.629.132A3.756,3.756,0,0,0,117,255.791c1.351,4.845,2.686,9.695,4.149,14.506a11.956,11.956,0,0,0,7.058,7.727,17.566,17.566,0,0,1,1.7.708,1,1,0,0,1,.446.773q-.673,6.241-1.433,12.472a1.81,1.81,0,0,0,.838,2.022Zm62.275,0a1.741,1.741,0,0,0,.858-1.848c-.5-4.1-.922-8.2-1.45-12.291a1.013,1.013,0,0,1,.833-1.319,12.452,12.452,0,0,0,7.977-7.171,36.576,36.576,0,0,0,1.231-3.93,1.364,1.364,0,0,0-.828-1.857c-.76-.238-1.444.224-1.729,1.185-.249.841-.465,1.692-.725,2.529a9.63,9.63,0,0,1-5.6,6.278c-.7.3-1.425.546-2.115.867a2.9,2.9,0,0,0-1.736,3.064c.492,4.273,1.01,8.543,1.471,12.819a2.078,2.078,0,0,0,.93,1.673Zm-31.691-84.727A15.648,15.648,0,1,0,176.959,224.9,15.709,15.709,0,0,0,161.223,209.273Zm-.082,2.637a13.012,13.012,0,1,1-12.964,13.03A13.058,13.058,0,0,1,161.141,211.91Zm-3.886,19.081a2.1,2.1,0,0,0,2.231,2.188c1.2.022,2.409.018,3.614,0a2.117,2.117,0,0,0,2.318-2.281c.014-.631,0-1.263,0-1.942.779,0,1.424.018,2.068,0a2.087,2.087,0,0,0,2.165-2.165c.03-1.2.02-2.4.008-3.6a2.121,2.121,0,0,0-2.385-2.388c-.6-.012-1.2,0-1.858,0,0-.8.018-1.443,0-2.085a2.014,2.014,0,0,0-2.012-2.123c-1.377-.065-2.763-.065-4.14,0a2.012,2.012,0,0,0-2.007,2.126c-.021.662,0,1.324,0,2.085-.786,0-1.457-.027-2.126.006a2.029,2.029,0,0,0-2.108,2.119q-.047,1.931,0,3.864a2.082,2.082,0,0,0,2.167,2.162c.643.022,1.288,0,2.067,0C157.251,229.714,157.235,230.353,157.255,230.991Zm.829-7.559c1.367-.018,1.8-.446,1.808-1.788.006-.783,0-1.566,0-2.4h2.885c0,.881-.012,1.721,0,2.56.02,1.13.478,1.584,1.617,1.6.844.015,1.689,0,2.578,0v2.913c-.881,0-1.751-.011-2.622,0a1.381,1.381,0,0,0-1.572,1.564c-.019.845,0,1.69,0,2.6h-2.886c0-.81.009-1.643,0-2.476-.016-1.228-.476-1.677-1.719-1.687-.814-.006-1.628,0-2.476,0v-2.89C156.56,223.435,157.322,223.443,158.083,223.433Z" transform="translate(-116.84 -204)" fill="#eaf0fa" opacity="0"/>
</svg>
