<svg xmlns="http://www.w3.org/2000/svg" width="87" height="80" viewBox="0 0 87 80">
  <path id="Path_45330" data-name="Path 45330" d="M137,219.873c-.6,1.806-1.669,3.165-3.657,3.464a7.281,7.281,0,0,1-2.185-.088,20.929,20.929,0,0,1-6.6-2.084,7.934,7.934,0,0,0-7.243-.2c-20.243,8.542-39.429-4.33-43.293-22.051a31.276,31.276,0,0,1,.828-16.441c.077-.242.167-.481.248-.722a.742.742,0,0,0-.007-.165,3.587,3.587,0,0,0-.616.085c-11.444,3.656-18.354,11.36-20.575,23.2-.721,3.843-.237,7.653.36,11.486a41.445,41.445,0,0,1-1.447,18.819c-.635,2.054.3,3.118,2.431,2.785a22.376,22.376,0,0,0,6.59-2.119,9.359,9.359,0,0,1,8.358-.207,28.867,28.867,0,0,0,34.736-8.347c.233-.285.443-.588.672-.877.629-.8,1.327-.973,1.962-.506a1.271,1.271,0,0,1,.083,2.009,50.447,50.447,0,0,1-4.577,5A29.985,29.985,0,0,1,81.2,240.787a31.686,31.686,0,0,1-11.6-2.652,7.573,7.573,0,0,0-7.011.16,23.014,23.014,0,0,1-7.6,2.293,4.386,4.386,0,0,1-4.751-2.908c-.076-.21-.162-.416-.243-.624v-1.7a31.278,31.278,0,0,0,1.863-7.884,46.288,46.288,0,0,0-.54-13.53,31.286,31.286,0,0,1,14.33-31.131,32.952,32.952,0,0,1,10.172-4.119,1.464,1.464,0,0,0,.851-.67c4.963-9.212,12.534-14.858,22.838-16.749a30.161,30.161,0,0,1,8.967-.212c.684.08,1.294.271,1.481,1.039.225.924-.5,1.561-1.591,1.528a53.683,53.683,0,0,0-6.351-.06,27.608,27.608,0,0,0-19.991,10.871,28.846,28.846,0,0,0,16.707,46.037,27.019,27.019,0,0,0,17.039-1.645,11.408,11.408,0,0,1,10.338.19,28.017,28.017,0,0,0,6.233,1.815,1.767,1.767,0,0,0,1.964-2.439,42.6,42.6,0,0,1-1.872-16.612c.181-2.169.615-4.315.874-6.478a28.785,28.785,0,0,0-19.222-30.361c-.08-.027-.166-.039-.246-.066-1.024-.351-1.424-.945-1.168-1.733s.946-1.04,1.958-.7a30.134,30.134,0,0,1,13.682,9.113c6.669,7.863,8.894,16.913,7.087,27.047a38.821,38.821,0,0,0,1.529,19.52c.007.021.045.033.068.049Zm-24.383-37.244c-.594,0-1.188,0-1.783,0a4.791,4.791,0,0,0-5.041,5c-.02,1.388-.01,2.776,0,4.164a4.747,4.747,0,0,0,4.7,5.148,3.453,3.453,0,0,1,3.209,2.37,18.648,18.648,0,0,1,.694,2.615,3,3,0,0,0,2.789,2.74,3.065,3.065,0,0,0,3.155-1.712c2.82-5.129,2.833-10.479.947-15.848a6.6,6.6,0,0,0-5.544-4.341c-1.027-.163-2.083-.137-3.127-.2Zm2.952,2.7a4.191,4.191,0,0,1,3.422,2.857c1.428,4.4,1.559,8.786-.6,13.041a1.476,1.476,0,0,1-.251.439c-.195.177-.48.464-.642.416a1.013,1.013,0,0,1-.547-.622c-.27-.891-.408-1.825-.71-2.7a6.071,6.071,0,0,0-5.5-4.358c-1.741-.181-2.379-.9-2.391-2.654-.009-1.36-.02-2.721,0-4.081a2.268,2.268,0,0,1,2.483-2.486c.623-.011,1.246,0,1.868,0l0-.058A25.21,25.21,0,0,1,115.568,185.333ZM86.78,189.8c0,.708-.009,1.417,0,2.125a4.722,4.722,0,0,0,4.657,5.018A3.458,3.458,0,0,1,94.7,199.36a20.1,20.1,0,0,1,.684,2.618,2.967,2.967,0,0,0,3.146,2.716,3.18,3.18,0,0,0,2.852-1.827c2.745-5.093,2.757-10.386.91-15.7a6.421,6.421,0,0,0-5.515-4.362,29,29,0,0,0-5.756-.1,4.568,4.568,0,0,0-4.211,4.464c-.058.874-.009,1.756-.009,2.634Zm2.575-2.457a2.141,2.141,0,0,1,2.189-2.144c1.414-.044,2.835-.079,4.244.013a4.362,4.362,0,0,1,4.173,2.972c1.462,4.423,1.577,8.838-.629,13.113-.039.076-.059.176-.12.223-.267.207-.546.4-.821.6a3.659,3.659,0,0,1-.493-.8c-.263-.864-.408-1.767-.707-2.616a6.053,6.053,0,0,0-5.466-4.289c-1.748-.185-2.377-.9-2.4-2.644-.007-.68,0-1.36,0-2.04h.017C89.346,188.928,89.3,188.132,89.356,187.342Z" transform="translate(-50 -160.824)" fill="#fff"/>
</svg>
