<svg xmlns="http://www.w3.org/2000/svg" width="82" height="90" viewBox="0 0 82 90">
  <path id="Path_44675" data-name="Path 44675" d="M125.581,230h-3.521c-.569-.114-1.136-.24-1.707-.341a18.738,18.738,0,0,1-15.209-17.439,18.531,18.531,0,0,1,8.382-16.645,1.752,1.752,0,0,0,.555-1.046A8.319,8.319,0,0,0,114.1,193a22.812,22.812,0,0,1-2.5.747c-1.672.3-3.358.536-5.046.729a1.1,1.1,0,0,0-1.071.905,9.722,9.722,0,0,1-3.492,4.943,1.663,1.663,0,0,0-.74,1.523q.031,11.028.009,22.057a5.79,5.79,0,0,1-4.6,5.947,1.656,1.656,0,0,0-.3.15H94.594c-.161-.059-.319-.132-.485-.175a5.748,5.748,0,0,1-4.386-4.836,23,23,0,0,1-.062-2.719c-.007-.649,0-1.3,0-2.106-2.228,1.639-4.281,3.146-6.33,4.657a5.608,5.608,0,0,1-4.824,1.03,5.764,5.764,0,0,1-2.235-10.191c1.822-1.426,3.7-2.783,5.586-4.125,1.129-.8,2.282-1.543,2.4-3.115a.688.688,0,0,1,.318-.5c.408-.173.915-.449,1.267-.333.394.13.961.671.932.986-.123,1.339-.162,2.768-1.423,3.694-2.433,1.786-4.871,3.565-7.29,5.369a3.114,3.114,0,1,0,3.634,5.052c2.522-1.812,5.016-3.664,7.5-5.528a1.229,1.229,0,0,0,.441-.85q.04-7.467.009-14.934a2.374,2.374,0,0,0-.231-.695,23.987,23.987,0,0,0-1.132,3.217,1.32,1.32,0,0,1-1.64,1.064,1.337,1.337,0,0,1-.905-1.8c.363-1.355.778-2.7,1.105-4.062a1.578,1.578,0,0,0-.161-1.106,10.687,10.687,0,0,1-1.807-5.872c0-4.627-.045-9.254.014-13.88a10.283,10.283,0,0,1,5.293-9.043c.2-.125.4-.256.64-.409a12.476,12.476,0,0,1-5.971-11.524c.089-2.31-.026-4.627.031-6.939a10.312,10.312,0,0,1,4.3-8.262A13.183,13.183,0,0,1,94.066,140h13.028a3.493,3.493,0,0,0,.4.157,5.572,5.572,0,0,1,4.287,5.52,5.442,5.442,0,0,1-4.229,5.448,3.834,3.834,0,0,0-.453.188,12.333,12.333,0,0,1-5.532,18.358,2.591,2.591,0,0,0,.243.251,10.6,10.6,0,0,1,4.233,9.019c-.026,1.284,0,2.569,0,3.907.6-.081,1.117-.15,1.635-.222.958-.134,1.912-.344,2.873-.391a5.886,5.886,0,0,1,5.284,2.71,12.176,12.176,0,0,1,9.206-5.652c-.539-.869-1.077-1.634-1.5-2.458a.8.8,0,0,0-1.06-.533,7.232,7.232,0,0,1-2.956-14.157,22.788,22.788,0,0,1,2.877-.267c.081-.2.165-.416.257-.631a12.222,12.222,0,0,1,17.262-5.861,3.292,3.292,0,0,0,1.552.4,8.891,8.891,0,0,1,5.64,15.934,1.8,1.8,0,0,0-.6,1.052,12.212,12.212,0,0,1-10.023,10.511l-1.27.24c.42.644.813,1.191,1.149,1.77a12.113,12.113,0,0,1,1.565,6.484c-.036,1.691-.007,3.384-.007,5.1,2.078.368,4.06.749,6.053,1.065a5.446,5.446,0,0,1,4.484,3.721c1.385,3.571,2.781,7.14,4.241,10.681.791,1.917,1.385,3.8.295,5.876.694,0,1.252-.031,1.8.008.655.046,1.2.422,1.188,1.065a2.454,2.454,0,0,1-.653,1.385c-.171.2-.653.181-1,.186-1.388.018-2.776.008-4.262.008l.312.687a5.882,5.882,0,0,1-3.9,8.256c-.167.044-.326.116-.489.176h-1.937a2.781,2.781,0,0,0-.387-.173,5.75,5.75,0,0,1-4.44-5.177,15.668,15.668,0,0,1,.278-2.959c.049-.023-.014-.014-.043.023-.18.23-.352.467-.528.7a18.276,18.276,0,0,1-9.11,6.588C128.457,229.452,127,229.674,125.581,230Zm11.077-58.336c-.641.271-1.271.57-1.924.805a1.323,1.323,0,0,1-1.764-.7,1.3,1.3,0,0,1,.725-1.741c.233-.122.481-.214.718-.328a9.555,9.555,0,0,0,5.138-10.706,1.785,1.785,0,0,0-1.019-1.307,9.237,9.237,0,0,0-10.277.67c-3.219,2.366-4.351,5.675-3.7,9.606a1.741,1.741,0,0,0,1.147,1.515c1.043.371,2.082.766,3.149,1.055,1.011.274,1.489.757,1.351,1.589s-.85,1.263-1.893,1.023c-1.124-.259-2.228-.6-3.341-.9.081,3.72,3.231,7.372,7.172,8.317a9.549,9.549,0,0,0,10.6-4.714c1.845-3.411,1.393-8.158-1.059-10.453a12.929,12.929,0,0,1-4.836,6.073Zm-21.65,32.078c-3.426,3.608-3.749,9.754-.762,14.091a11.683,11.683,0,0,0,21.146-8.62c-.886-4.846-5.329-9.221-9.83-9.383.958.888,1.786,1.585,2.532,2.362a4.883,4.883,0,0,1,1.249,4.871,5.141,5.141,0,0,1-8.615,2.322C118.8,207.548,116.935,205.649,115.007,203.742Zm20.251-7.436c0-1.9.033-3.644-.006-5.386a9.237,9.237,0,0,0-18.467.053c-.048,3.162-.056,6.326.022,9.487a3.238,3.238,0,0,0,.773,1.956c1.607,1.744,3.308,3.405,5.031,5.037a3.018,3.018,0,0,0,1.543.723,2.259,2.259,0,0,0,2.4-1.276,2.375,2.375,0,0,0-.387-2.846c-1.147-1.214-2.325-2.4-3.539-3.547a2.694,2.694,0,0,1-.914-2.162c.043-3.016.015-6.032.018-9.049a4.845,4.845,0,0,1,.049-1.049,1.249,1.249,0,0,1,1.315-1.07,1.224,1.224,0,0,1,1.285,1.19c.038.377.025.76.026,1.141,0,.984,0,1.969,0,2.989A19.182,19.182,0,0,1,135.258,196.306Zm-32.507-1.254a6.231,6.231,0,0,1-5.687-1.488,1.336,1.336,0,0,0-.821-.178c-2.611-.013-5.222-.009-7.833,0a6.174,6.174,0,0,0-.661.07,7.338,7.338,0,0,0,3.526,5.265,2.031,2.031,0,0,1,1.06,1.939c-.027,6.883-.015,13.766-.015,20.649,0,1-.032,1.993.013,2.987a3.127,3.127,0,0,0,2.8,3.008,3.079,3.079,0,0,0,3.231-2.054,5.835,5.835,0,0,0,.21-1.73q.02-11.379-.006-22.758a2.1,2.1,0,0,1,1.12-2.08A7.3,7.3,0,0,0,102.751,195.053ZM87.667,159.515a8.513,8.513,0,0,0,.1.863,9.513,9.513,0,0,0,17.751,2.24,9.4,9.4,0,0,0-1.478-10.752,1.98,1.98,0,0,0-1.271-.547c-2.929-.047-5.86-.026-8.79-.023-.282,0-.564.031-.925.053C93.319,155.449,91.671,158.251,87.667,159.515Zm7.144,31.134-3.322-4.427c-.932-1.241-1.876-2.473-2.79-3.728a1.249,1.249,0,0,1,.065-1.692,1.225,1.225,0,0,1,1.6-.277,2.575,2.575,0,0,1,.737.732c1.01,1.319,2,2.651,3.031,4.018l5.027-3.685c-1.112-1.483-2.176-2.88-3.214-4.3a1.336,1.336,0,0,1,.458-2.185,1.367,1.367,0,0,1,1.727.652q2.268,3.021,4.542,6.038c.178.236.374.459.562.689l.249-.1a41.509,41.509,0,0,0-.372-5.83,7.745,7.745,0,0,0-8.317-6.058,7.855,7.855,0,0,0-7.237,7.795c-.036,3.894-.01,7.788-.007,11.682a6.661,6.661,0,0,0,.066.668Zm29.643,6.227c.183.035.268.06.355.067,8.054.641,14.122,7.6,13.4,15.366a14.254,14.254,0,0,1-16.14,13.115,14.287,14.287,0,0,1-8.735-23.841,3.408,3.408,0,0,0,.7-2.96,15.9,15.9,0,0,0-4.744,19.443A16.1,16.1,0,0,0,139.5,207.341c-1.7-6.9-9.178-12.9-15.047-12.052ZM87.652,156.6a3.924,3.924,0,0,0,2.717-3.576c.034-.818.011-1.638.014-2.458,0-1.531.4-1.938,1.912-1.939,4.6,0,9.2.009,13.8-.014a2.7,2.7,0,0,0,2.981-2.843,2.835,2.835,0,0,0-2.957-3.1c-3.6-.033-7.211-.063-10.815.009a7.614,7.614,0,0,0-7.6,6.607A58.259,58.259,0,0,0,87.652,156.6Zm8.067,30.829c1.123,1.453,2.126,2.941,3.342,4.228a3.01,3.01,0,0,0,2.2.829c3.378-.366,6.743-.875,10.1-1.409a3.1,3.1,0,1,0-1.019-6.123c-2.119.292-4.24.58-6.35.933a2.052,2.052,0,0,1-2.379-1.021,12.092,12.092,0,0,0-.846-1.13Zm43.052,12.328a9.344,9.344,0,0,1,.536.81c.8,1.558,1.678,3.08,2.345,4.692,1.554,3.753,2.986,7.557,4.5,11.326a2.472,2.472,0,1,0,4.6-1.811c-1.63-4.2-3.3-8.377-4.964-12.559A2.367,2.367,0,0,0,144,200.677C142.3,200.349,140.6,200.076,138.771,199.757ZM122.4,173.516l-.788-8.855a4.5,4.5,0,0,0-4.52,2.383,4.6,4.6,0,0,0,.6,5.155A4.414,4.414,0,0,0,122.4,173.516Zm19.819-15.041a6.9,6.9,0,0,1,.145,1.347c-.177,1.69.632,2.876,1.651,4.157a28.8,28.8,0,0,1,2.484,4.5,5.68,5.68,0,0,0,1.07-5.788A6.18,6.18,0,0,0,142.223,158.475Zm6.072,65.6a3.214,3.214,0,1,0-3.221,3.263A3.241,3.241,0,0,0,148.3,224.074Zm-4.393-5.88-1.467-3.638-1.03,3.638Zm-7.244-46.53a7.138,7.138,0,0,0-.749,1.979,1.609,1.609,0,0,0,.844,1.229,1.441,1.441,0,0,0,1.361-.33,4.234,4.234,0,0,0,.455-2.275c-.118-.835-1-.828-1.717-.8Zm5.914,2.082a1.306,1.306,0,0,0-1.358-1.314c-1.084.073-1.364.858-1.513,2.225a1.3,1.3,0,0,0,1.35,1.325C141.929,175.962,142.6,174.982,142.572,173.746Zm-42.342-18.481c0-.437.024-.876-.005-1.311a1.306,1.306,0,0,0-1.354-1.3,1.28,1.28,0,0,0-1.283,1.278c-.035.873-.036,1.749,0,2.621a1.261,1.261,0,0,0,1.3,1.257,1.289,1.289,0,0,0,1.332-1.231c.036-.434.007-.873.007-1.31Zm4.416.029c0-.466.029-.934-.007-1.4a1.237,1.237,0,0,0-1.225-1.239,1.251,1.251,0,0,0-1.393,1.155,18.458,18.458,0,0,0,.012,2.88,1.184,1.184,0,0,0,1.34,1.105,1.207,1.207,0,0,0,1.261-1.193c.042-.433.008-.873.008-1.31Zm39.1,68.846a1.4,1.4,0,0,0,1.4,1.289,1.321,1.321,0,0,0-.077-2.639A1.348,1.348,0,0,0,143.741,224.141Z" transform="translate(-73.994 -140)" fill="#eaf0fa" opacity="0"/>
</svg>
