<svg xmlns="http://www.w3.org/2000/svg" width="54.58" height="60" viewBox="0 0 54.58 60">
  <path id="Path_44674" data-name="Path 44674" d="M108.331,200h-2.344c-.379-.076-.756-.16-1.136-.227a12.485,12.485,0,0,1-10.123-11.626,12.36,12.36,0,0,1,5.579-11.1,1.168,1.168,0,0,0,.369-.7,5.554,5.554,0,0,0,.015-1.021,15.165,15.165,0,0,1-1.666.5c-1.113.2-2.235.357-3.359.486a.73.73,0,0,0-.713.6,6.481,6.481,0,0,1-2.324,3.3,1.109,1.109,0,0,0-.492,1.015q.02,7.352.006,14.7a3.859,3.859,0,0,1-3.063,3.965,1.1,1.1,0,0,0-.2.1H87.706c-.107-.039-.212-.088-.323-.116a3.83,3.83,0,0,1-2.919-3.224,15.355,15.355,0,0,1-.041-1.813c0-.433,0-.865,0-1.4-1.483,1.093-2.849,2.1-4.213,3.1a3.728,3.728,0,0,1-3.211.686,3.845,3.845,0,0,1-1.488-6.794c1.213-.951,2.463-1.855,3.718-2.75.751-.536,1.519-1.029,1.6-2.076a.459.459,0,0,1,.212-.334c.272-.115.609-.3.843-.222.262.086.64.448.62.658a3.029,3.029,0,0,1-.947,2.462c-1.619,1.191-3.242,2.376-4.852,3.579a2.075,2.075,0,1,0,2.419,3.368c1.679-1.208,3.339-2.443,4.992-3.686a.82.82,0,0,0,.294-.567q.027-4.978.006-9.956a1.585,1.585,0,0,0-.154-.463,16.007,16.007,0,0,0-.754,2.145.878.878,0,0,1-1.091.71.891.891,0,0,1-.6-1.2c.242-.9.518-1.8.736-2.708a1.053,1.053,0,0,0-.107-.737,7.132,7.132,0,0,1-1.2-3.915c0-3.085-.03-6.169.009-9.253a6.857,6.857,0,0,1,3.523-6.028c.135-.083.267-.17.426-.273a8.321,8.321,0,0,1-3.975-7.682c.059-1.54-.017-3.085.02-4.626a6.878,6.878,0,0,1,2.862-5.508A8.768,8.768,0,0,1,87.354,140h8.672a2.32,2.32,0,0,0,.269.1,3.714,3.714,0,0,1,2.853,3.68,3.627,3.627,0,0,1-2.815,3.632,2.549,2.549,0,0,0-.3.125,8.228,8.228,0,0,1-3.682,12.238,1.727,1.727,0,0,0,.162.167,7.073,7.073,0,0,1,2.817,6.012c-.017.856,0,1.713,0,2.6.4-.054.743-.1,1.088-.148.637-.089,1.272-.229,1.913-.261a3.916,3.916,0,0,1,3.517,1.807,8.1,8.1,0,0,1,6.128-3.768c-.359-.579-.717-1.089-1-1.639-.17-.332-.312-.432-.706-.355a4.821,4.821,0,0,1-1.968-9.438,15.144,15.144,0,0,1,1.915-.178c.054-.132.11-.277.171-.42a8.13,8.13,0,0,1,11.49-3.907,2.188,2.188,0,0,0,1.033.268,5.929,5.929,0,0,1,3.754,10.623,1.2,1.2,0,0,0-.4.7,8.136,8.136,0,0,1-6.671,7.007l-.845.16c.28.429.541.794.765,1.18a8.085,8.085,0,0,1,1.042,4.323c-.024,1.127,0,2.256,0,3.4,1.383.246,2.7.5,4.029.71a3.626,3.626,0,0,1,2.984,2.481c.922,2.381,1.851,4.76,2.823,7.121.526,1.278.922,2.533.2,3.917.462,0,.833-.021,1.2.005.436.031.8.281.791.71a1.637,1.637,0,0,1-.435.923c-.114.134-.435.121-.662.124-.924.012-1.847.005-2.837.005l.208.458a3.922,3.922,0,0,1-2.6,5.5c-.111.03-.217.078-.325.117h-1.289a1.852,1.852,0,0,0-.257-.116,3.831,3.831,0,0,1-2.955-3.451,10.46,10.46,0,0,1,.185-1.973c.033-.015-.009-.009-.028.015-.12.154-.235.312-.352.468a12.165,12.165,0,0,1-6.064,4.392C110.245,199.635,109.277,199.783,108.331,200Zm7.373-38.891c-.426.181-.846.38-1.281.537a.88.88,0,0,1-1.174-.466.866.866,0,0,1,.482-1.161c.155-.081.32-.143.478-.219a6.373,6.373,0,0,0,3.42-7.138,1.19,1.19,0,0,0-.678-.872,6.361,6.361,0,0,0-9.3,6.85,1.161,1.161,0,0,0,.763,1.01c.694.247,1.386.51,2.1.7.673.183.991.5.9,1.059s-.566.842-1.26.682c-.748-.172-1.483-.4-2.224-.6a6.245,6.245,0,0,0,4.774,5.545,6.352,6.352,0,0,0,7.058-3.143c1.228-2.274.927-5.439-.7-6.969a8.617,8.617,0,0,1-3.219,4.049Zm-14.411,21.386a7.681,7.681,0,0,0-.507,9.394,7.777,7.777,0,0,0,14.075-5.746c-.59-3.231-3.547-6.147-6.543-6.255.637.592,1.189,1.057,1.685,1.575a3.259,3.259,0,0,1,.831,3.247,3.42,3.42,0,0,1-5.734,1.548C103.819,185.032,102.576,183.766,101.293,182.495Zm13.479-4.957c0-1.266.022-2.429,0-3.591a6.148,6.148,0,0,0-12.292.035c-.032,2.108-.037,4.217.015,6.325a2.161,2.161,0,0,0,.515,1.3c1.07,1.163,2.2,2.27,3.349,3.358a2.008,2.008,0,0,0,1.027.482,1.5,1.5,0,0,0,1.6-.851,1.585,1.585,0,0,0-.258-1.9c-.763-.809-1.547-1.6-2.355-2.365a1.8,1.8,0,0,1-.609-1.442c.029-2.01.01-4.022.012-6.032a3.235,3.235,0,0,1,.033-.7.832.832,0,0,1,.875-.713.815.815,0,0,1,.855.793c.025.251.017.507.017.761,0,.656,0,1.312,0,1.992A12.755,12.755,0,0,1,114.772,177.537ZM93.135,176.7a4.143,4.143,0,0,1-3.785-.992.888.888,0,0,0-.546-.118c-1.738-.008-3.476-.006-5.213,0a4.1,4.1,0,0,0-.44.047,4.893,4.893,0,0,0,2.347,3.51,1.355,1.355,0,0,1,.705,1.293c-.018,4.589-.01,9.177-.01,13.766,0,.664-.021,1.329.009,1.991a2.083,2.083,0,0,0,1.866,2.006,2.049,2.049,0,0,0,2.151-1.369,3.9,3.9,0,0,0,.14-1.153q.013-7.586,0-15.172a1.4,1.4,0,0,1,.746-1.386A4.865,4.865,0,0,0,93.135,176.7ZM83.1,153.01a5.686,5.686,0,0,0,.067.575,6.329,6.329,0,0,0,11.815,1.493,6.277,6.277,0,0,0-.984-7.168,1.317,1.317,0,0,0-.846-.364c-1.95-.032-3.9-.017-5.851-.015-.187,0-.375.021-.616.035C86.857,150.3,85.76,152.167,83.1,153.01Zm4.755,20.756-2.211-2.952c-.62-.828-1.249-1.649-1.857-2.485a.834.834,0,0,1,.044-1.128.815.815,0,0,1,1.062-.185,1.715,1.715,0,0,1,.49.488c.672.879,1.333,1.768,2.018,2.678l3.346-2.457c-.74-.988-1.448-1.92-2.14-2.864a.891.891,0,0,1,.3-1.456.909.909,0,0,1,1.149.435q1.51,2.014,3.023,4.025c.119.158.249.306.374.459l.166-.064a27.717,27.717,0,0,0-.248-3.887,5.156,5.156,0,0,0-5.536-4.039,5.233,5.233,0,0,0-4.817,5.2c-.024,2.6-.007,5.192,0,7.788a4.448,4.448,0,0,0,.044.445Zm19.731,4.151c.122.024.179.04.236.045a9.543,9.543,0,1,1-1.823,18.987,9.528,9.528,0,0,1-5.814-15.894,2.275,2.275,0,0,0,.469-1.973,10.608,10.608,0,0,0-3.158,12.962,10.719,10.719,0,0,0,20.105-7.15c-1.134-4.6-6.109-8.6-10.015-8.035Zm-24.5-26.85a2.616,2.616,0,0,0,1.809-2.384c.023-.545.008-1.092.009-1.639,0-1.02.268-1.292,1.273-1.293,3.063,0,6.126.006,9.189-.009a1.8,1.8,0,0,0,1.984-1.9,1.889,1.889,0,0,0-1.969-2.066c-2.4-.022-4.8-.042-7.2.006a5.071,5.071,0,0,0-5.059,4.4A38.9,38.9,0,0,0,83.085,151.067Zm5.369,20.553c.748.968,1.415,1.961,2.225,2.818a2,2,0,0,0,1.462.553c2.249-.244,4.488-.583,6.723-.939a2.069,2.069,0,1,0-.678-4.082c-1.411.195-2.822.387-4.227.622a1.365,1.365,0,0,1-1.584-.681,8.058,8.058,0,0,0-.563-.753Zm28.656,8.218a6.225,6.225,0,0,1,.356.54c.529,1.039,1.117,2.054,1.561,3.128,1.034,2.5,1.987,5.038,3,7.551a1.616,1.616,0,0,0,2.147.969,1.633,1.633,0,0,0,.914-2.177c-1.085-2.8-2.2-5.584-3.3-8.373a1.576,1.576,0,0,0-1.193-1.026C119.462,180.232,118.328,180.05,117.11,179.838Zm-10.894-17.494-.525-5.9a3,3,0,0,0-3.009,1.589,3.067,3.067,0,0,0,.4,3.437A2.935,2.935,0,0,0,106.216,162.344Zm13.192-10.027a4.606,4.606,0,0,1,.1.9,3.682,3.682,0,0,0,1.1,2.771,19.208,19.208,0,0,1,1.653,3,3.791,3.791,0,0,0,.712-3.859A4.115,4.115,0,0,0,119.408,152.317Zm4.042,43.733a2.14,2.14,0,1,0-2.144,2.175A2.159,2.159,0,0,0,123.45,196.049Zm-2.924-3.92-.977-2.425-.686,2.425Zm-4.822-31.02a4.763,4.763,0,0,0-.5,1.319,1.073,1.073,0,0,0,.562.82.958.958,0,0,0,.906-.22,2.826,2.826,0,0,0,.3-1.517c-.079-.557-.663-.552-1.143-.535Zm3.936,1.388a.87.87,0,0,0-.9-.876c-.722.049-.908.572-1.007,1.483a.868.868,0,0,0,.9.883C119.213,163.975,119.657,163.321,119.64,162.5ZM91.457,150.177c0-.291.016-.584,0-.874a.87.87,0,0,0-.9-.87.853.853,0,0,0-.854.852c-.023.582-.024,1.166,0,1.748a.84.84,0,0,0,.864.838.858.858,0,0,0,.887-.821c.024-.289,0-.582,0-.874Zm2.939.02c0-.311.019-.623,0-.932a.824.824,0,0,0-.816-.826.833.833,0,0,0-.927.77,12.324,12.324,0,0,0,.008,1.92.789.789,0,0,0,.892.737.8.8,0,0,0,.839-.8c.028-.289.005-.582.005-.873Zm26.023,45.9a.931.931,0,0,0,.932.859.88.88,0,0,0-.051-1.76A.9.9,0,0,0,120.418,196.094Z" transform="translate(-73.994 -140)" fill="#00a8f0"/>
</svg>
