<svg xmlns="http://www.w3.org/2000/svg" width="85" height="90" viewBox="0 0 85 90">
  <path id="Path_44670" data-name="Path 44670" d="M167.244,294a42.062,42.062,0,0,1-5.326-1.239,45.32,45.32,0,0,1-5.721-2.753,3.808,3.808,0,0,0-1.9-.545q-10.309.026-20.619.006a5.089,5.089,0,0,1-5.263-3.738,5.038,5.038,0,0,1,4.611-6.346c.734-.036,1.471-.005,2.3-.005.019-.395.047-.7.048-1.015,0-2.49,0-4.98,0-7.47,0-1.2.442-1.81,1.3-1.823.888-.013,1.363.634,1.364,1.873q0,3.691,0,7.382v.989h9.362c-3.281-11.823-.456-21.608,10.44-28.01,8.214-4.826,16.859-4.322,24.6,1.182,9.4,6.679,11.709,15.953,8.5,26.813H200.3c.018-.3.052-.6.052-.911q0-13.709-.019-27.417a2,2,0,0,0-.5-1.294q-15.017-14.915-30.08-29.785c-.163-.161-.342-.306-.554-.495-.262.245-.5.455-.725.678q-14.863,14.7-29.734,29.383a2.127,2.127,0,0,0-.705,1.682c.032,4.13.016,8.26.015,12.39a5.884,5.884,0,0,1-.021.79,1.3,1.3,0,0,1-1.382,1.2,1.248,1.248,0,0,1-1.25-1.319c-.028-1.317-.012-2.636-.012-3.954q0-3.383,0-6.767v-.79a18.452,18.452,0,0,1-3.584.24,5.828,5.828,0,0,1-3.317-9.93c2.757-2.783,5.562-5.519,8.348-8.274q14.735-14.574,29.482-29.134a18.12,18.12,0,0,1,2.179-1.6h1.422a18.441,18.441,0,0,1,2.176,1.6q8.235,8.076,16.416,16.2c.208.206.435.394.73.659v-5.238c-2.082-.637-2.429-1.115-2.429-3.3,0-1.728-.007-3.457,0-5.185a2.37,2.37,0,0,1,2.624-2.627q7.288-.015,14.575,0a2.313,2.313,0,0,1,2.594,2.468c.035,2.021.03,4.042,0,6.063a2.25,2.25,0,0,1-1.971,2.431c-.138.034-.27.091-.458.155,0,2.093,0,4.17,0,6.247a4.117,4.117,0,0,1-.075.958,1.207,1.207,0,0,1-1.363,1,1.192,1.192,0,0,1-1.2-1.182c-.044-.612-.023-1.23-.024-1.845,0-1.721,0-3.443,0-5.222h-9.493a2.175,2.175,0,0,0-.063.356c0,2.4-.024,4.8.017,7.206a1.58,1.58,0,0,0,.493.947q4.186,4.188,8.411,8.337c.154.152.336.277.636.521,0-.8,0-1.43,0-2.065,0-.674-.018-1.348.011-2.021a1.261,1.261,0,0,1,1.229-1.343,1.3,1.3,0,0,1,1.41,1.271,5.971,5.971,0,0,1,.016.7c0,1.787.025,3.574-.013,5.36a1.8,1.8,0,0,0,.615,1.455c1.759,1.7,3.519,3.4,5.211,5.161a5.544,5.544,0,0,1,1.347,6.011,5.48,5.48,0,0,1-4.736,3.855,18.129,18.129,0,0,1-3.5-.236v26.678c.805,0,1.543-.031,2.277.005a5.037,5.037,0,0,1,4.607,6.348c-.669,2.369-2.6,3.734-5.353,3.737-6.932.009-13.865-.006-20.8.023a2.857,2.857,0,0,0-1.458.452,23.229,23.229,0,0,1-7.063,3.21c-1.369.339-2.766.567-4.15.846Zm1.959-43.1a20.231,20.231,0,1,0,20.455,20.223A20.306,20.306,0,0,0,169.2,250.9Zm-36.715-.5a3.844,3.844,0,0,0,2.865-1.3q15.922-15.764,31.86-31.513c1.472-1.455,2.511-1.452,3.994.015q12.759,12.615,25.516,25.233,3.3,3.263,6.6,6.525a3.212,3.212,0,0,0,3.418.873,3.1,3.1,0,0,0,2.219-2.514,3.514,3.514,0,0,0-1.316-3.27q-18.806-18.568-37.591-37.157c-.854-.844-.856-.844-1.728.018q-18.759,18.552-37.516,37.107a7.113,7.113,0,0,0-.778.841,3.045,3.045,0,0,0-.268,3.4A3.155,3.155,0,0,0,132.488,250.405Zm19.687,36.432c-1.02-1.456-2-2.8-2.907-4.186a1.231,1.231,0,0,0-1.193-.661c-3.963.025-7.926.012-11.889.014-1.005,0-2.013-.024-3.016.024a2.324,2.324,0,0,0-2.216,2.022,2.354,2.354,0,0,0,1.669,2.659,5.3,5.3,0,0,0,1.4.123q8.3.012,16.592,0Zm34.088-.026c6.338,0,12.674.022,19.011-.018a2.287,2.287,0,0,0,2.2-2.415,2.327,2.327,0,0,0-2.364-2.355c-5.007-.03-10.014-.021-15.021,0a1.015,1.015,0,0,0-.725.335C188.323,283.8,187.323,285.275,186.263,286.811Zm3.21-72.376h14.409V208.79H189.523a3.059,3.059,0,0,0-.049.369C189.472,210.885,189.473,212.611,189.473,214.434Zm-13.228,26.685c1.029,0,1.648-.515,1.635-1.318-.012-.77-.62-1.307-1.581-1.31q-7.1-.018-14.2,0c-.965,0-1.57.529-1.59,1.3-.02.8.606,1.325,1.624,1.328,2.337.008,4.673,0,7.01,0C171.513,241.121,173.879,241.127,176.245,241.119Zm-9.846-7.935c-.964.016-1.533.531-1.52,1.34a1.313,1.313,0,0,0,1.477,1.288q2.843.022,5.686,0a1.32,1.32,0,1,0,.042-2.625c-.947-.023-1.9-.005-2.843-.006S167.347,233.168,166.4,233.184Zm8.2,32.56c1.279,0,2.457,0,3.633,0,2.805.009,4.265,1.456,4.27,4.23,0,.908.016,1.816,0,2.723a3.663,3.663,0,0,1-3.827,3.753c-1.3.015-2.6,0-4.066,0,0,.968-.059,1.895.01,2.813.284,3.772-1.723,5.273-5.079,5.015-.648-.05-1.3.011-1.954-.013a3.659,3.659,0,0,1-3.792-3.795c-.025-1.054,0-2.108-.009-3.163,0-.256-.034-.513-.059-.857-1.319,0-2.585.006-3.851,0a3.682,3.682,0,0,1-3.985-3.951c-.007-.966-.013-1.933,0-2.9a3.7,3.7,0,0,1,3.843-3.851c1.3-.033,2.6-.006,4.053-.006,0-1.072-.013-2.082,0-3.091a10.251,10.251,0,0,1,.116-1.923,3.611,3.611,0,0,1,3.476-2.755c1.154-.034,2.31-.026,3.465-.006a3.632,3.632,0,0,1,3.744,3.649C174.64,262.958,174.6,264.3,174.6,265.743Zm-8.149-1.355c0,.7,0,1.4,0,2.108-.009,1.509-.376,1.88-1.873,1.884-1.54,0-3.079-.01-4.618,0-1.042.01-1.389.357-1.4,1.373-.013.878-.009,1.756,0,2.634.01,1.1.322,1.418,1.415,1.424,1.569.008,3.138,0,4.707,0,1.309.007,1.76.45,1.771,1.747.013,1.581-.008,3.161.009,4.742.011,1,.33,1.3,1.343,1.324.917.018,1.836.016,2.753,0,1.058-.018,1.372-.326,1.382-1.377.015-1.581-.007-3.162.009-4.742.012-1.24.472-1.685,1.733-1.694,1.569-.011,3.138,0,4.707,0,1.11,0,1.44-.32,1.452-1.389q.015-1.317,0-2.634c-.013-1.066-.354-1.4-1.458-1.409-1.539-.011-3.079,0-4.618,0-1.413,0-1.808-.383-1.817-1.76-.01-1.581.011-3.161-.01-4.742-.012-.934-.358-1.259-1.3-1.272-.977-.014-1.954-.016-2.93,0-.883.016-1.22.348-1.244,1.235C166.439,262.69,166.457,263.539,166.455,264.388Z" transform="translate(-126.699 -204)" fill="#eaf0fa" opacity="0"/>
</svg>
